SplineFontDB: 3.0
FontName: AdventPro-Thin
FullName: Advent Pro Thin
FamilyName: Advent Pro
Weight: Thin
Copyright: Copyright (c) 2008 Andreas Kalpakidis (hello@inderesting.com), with Reserved Font Name "Advent Pro"
Version: 001.001
ItalicAngle: 0
UnderlinePosition: -50
UnderlineWidth: 50
Ascent: 800
Descent: 200
sfntRevision: 0x00020083
LayerCount: 2
Layer: 0 1 "Back"  1
Layer: 1 1 "Fore"  0
NeedsXUIDChange: 1
XUID: [1021 288 713564382 4143258]
FSType: 0
OS2Version: 2
OS2_WeightWidthSlopeOnly: 0
OS2_UseTypoMetrics: 1
CreationTime: 1322417958
ModificationTime: 1322447137
PfmFamily: 17
TTFWeight: 100
TTFWidth: 5
LineGap: 0
VLineGap: 0
Panose: 2 0 5 6 4 0 0 2 0 4
OS2TypoAscent: 162
OS2TypoAOffset: 1
OS2TypoDescent: -32
OS2TypoDOffset: 1
OS2TypoLinegap: 0
OS2WinAscent: 22
OS2WinAOffset: 1
OS2WinDescent: 14
OS2WinDOffset: 1
HheadAscent: 24
HheadAOffset: 1
HheadDescent: -14
HheadDOffset: 1
OS2SubXSize: 650
OS2SubYSize: 600
OS2SubXOff: 0
OS2SubYOff: 75
OS2SupXSize: 650
OS2SupYSize: 600
OS2SupXOff: 0
OS2SupYOff: 350
OS2StrikeYSize: 50
OS2StrikeYPos: 250
OS2Vendor: 'ADBE'
OS2CodePages: 0000009b.00000000
OS2UnicodeRanges: 800000af.1000204a.00000000.00000000
Lookup: 258 0 0 "'kern' Horizontal Kerning in Latin lookup 0"  {"'kern' Horizontal Kerning in Latin lookup 0 subtable"  } ['kern' ('DFLT' <'dflt' > 'latn' <'dflt' > ) ]
MarkAttachClasses: 1
DEI: 91125
TtTable: prep
PUSHW_1
 511
SCANCTRL
PUSHB_1
 4
SCANTYPE
EndTTInstrs
LangName: 1033 "" "" "" "AndreasKalpakidis: Advent Pro Thin: 2008" "AdventPro-Thin" "Version 2.002 2007" "" "Advent Pro is a trademark of INDE Andreas Kalpakidis." "Andreas Kalpakidis" "Andreas Kalpakidis" "" "www.inderesting.com" "www.inderesting.com" "This Font Software is licensed under the SIL Open Font License, Version 1.1. This license is available with a FAQ at: http://scripts.sil.org/OFL" "http://scripts.sil.org/OFL" 
GaspTable: 1 65535 15
Encoding: UnicodeBmp
UnicodeInterp: none
NameList: Adobe Glyph List
DisplaySize: -36
AntiAlias: 1
FitToEm: 1

StartChar: .notdef
Encoding: 65536 -1 0
Width: 500
Flags: HMW
HStem: 0 21<0 500 0 0> 678 22
VStem: 0 23 478 22
LayerCount: 2
Fore
SplineSet
425 133 m 1,0,-1
 386 101 l 1,1,-1
 250 305 l 1,2,-1
 113 100 l 1,3,-1
 73 129 l 1,4,-1
 220 350 l 1,5,-1
 73 571 l 1,6,-1
 113 600 l 1,7,-1
 250 395 l 1,8,-1
 386 599 l 1,9,-1
 425 567 l 1,10,-1
 280 350 l 1,11,-1
 425 133 l 1,0,-1
450 50 m 1,12,-1
 450 650 l 1,13,-1
 50 650 l 1,14,-1
 50 50 l 1,15,-1
 450 50 l 1,12,-1
500 0 m 1,16,-1
 0 0 l 1,17,-1
 0 700 l 1,18,-1
 500 700 l 1,19,-1
 500 0 l 1,16,-1
EndSplineSet
EndChar

StartChar: numbersign
Encoding: 35 35 4
Width: 613
Flags: HMW
HStem: 0 21G<110 129 110 110 320 339 320 320> 225 20G<34 167 167 167 186 377 377 377 396 582 582 582> 413 19<34 207 34 212 231 417 34 226 440 582>
VStem: 34 548<226 245 226 245 413 432 226 432> 110 19<0 0> 274 19<700 700> 320 19<0 0> 484 19<700 700>
LayerCount: 2
Fore
SplineSet
377 245 m 1,0,-1
 417 413 l 1,1,-1
 226 413 l 1,2,-1
 186 245 l 1,3,-1
 377 245 l 1,0,-1
582 226 m 1,4,-1
 392 226 l 1,5,-1
 339 0 l 1,6,-1
 320 0 l 1,7,-1
 373 226 l 1,8,-1
 182 226 l 1,9,-1
 129 0 l 1,10,-1
 110 0 l 1,11,-1
 163 226 l 1,12,-1
 34 226 l 1,13,-1
 34 245 l 1,14,-1
 167 245 l 1,15,-1
 207 413 l 1,16,-1
 34 413 l 1,17,-1
 34 432 l 1,18,-1
 212 432 l 1,19,-1
 274 700 l 1,20,-1
 293 700 l 1,21,-1
 231 432 l 1,22,-1
 421 432 l 1,23,-1
 484 700 l 1,24,-1
 503 700 l 1,25,-1
 440 432 l 1,26,-1
 582 432 l 1,27,-1
 582 413 l 1,28,-1
 436 413 l 1,29,-1
 396 245 l 1,30,-1
 582 245 l 1,31,-1
 582 226 l 1,4,-1
EndSplineSet
EndChar

StartChar: dollar
Encoding: 36 36 5
Width: 540
Flags: HMW
HStem: -17 80 178 210 710 20G 711 20G
VStem: 22 19 34 22<143 178> 51 20 52 208<487 578.5> 231 19 250 247 260 18<-114 -11 7 360 386 690 690 690 710 817> 405 6 415 8 478 19 488 21<130.5 238>
LayerCount: 2
Fore
SplineSet
260 386 m 1,0,-1
 260 690 l 1,1,2
 179 686 179 686 126 645.5 c 128,-1,3
 73 605 73 605 73 535 c 0,4,5
 73 469.472727273 73 469.472727273 152.5 429 c 0,6,7
 193.275862069 408.24137931 193.275862069 408.24137931 260 386 c 1,0,-1
278 360 m 1,8,-1
 278 7 l 1,9,10
 372 9 372 9 430 52 c 128,-1,11
 488 95 488 95 488 187 c 0,12,13
 488 243.142857143 488 243.142857143 445.5 282 c 0,14,15
 411.327832783 313.243124312 411.327832783 313.243124312 341.5 338.5 c 0,16,17
 318 347 318 347 278 360 c 1,8,-1
278 -114 m 1,18,-1
 260 -114 l 1,19,-1
 260 -11 l 1,20,21
 156 -8 156 -8 96 49 c 128,-1,22
 36 106 36 106 34 178 c 1,23,-1
 56 178 l 1,24,25
 56 117 56 117 109 63.5 c 128,-1,26
 162 10 162 10 260 7 c 1,27,-1
 260 366 l 1,28,29
 130.478359909 408.09453303 130.478359909 408.09453303 94 443.5 c 0,30,31
 52 484.264705882 52 484.264705882 52 544.632352941 c 128,-1,32
 52 605 52 605 105.5 655 c 128,-1,33
 159 705 159 705 260 709 c 1,34,-1
 260 817 l 1,35,-1
 278 817 l 1,36,-1
 278 710 l 1,37,38
 360 710 360 710 423 680 c 1,39,-1
 415 660 l 1,40,41
 355 691 355 691 279 691 c 2,42,-1
 278 691 l 1,43,-1
 278 381 l 1,44,45
 399.5 340.5 399.5 340.5 436.5 313.5 c 0,46,47
 486.59453125 276.94453125 486.59453125 276.94453125 500.5 238.5 c 0,48,49
 509 215 509 215 509 187 c 0,50,51
 509 97 509 97 452.5 44 c 128,-1,52
 396 -9 396 -9 278 -11 c 1,53,-1
 278 -114 l 1,18,-1
EndSplineSet
EndChar

StartChar: percent
Encoding: 37 37 6
Width: 664
Flags: HMW
HStem: 8 125 17 116 308 55 459 124 654 55 711 20G
VStem: 54 124 178 124 332 106 364 125 489 125
LayerCount: 2
Fore
SplineSet
302 583 m 128,-1,1
 302 632 302 632 268 669.5 c 128,-1,2
 234 707 234 707 178 707 c 128,-1,3
 122 707 122 707 88 669.5 c 128,-1,4
 54 632 54 632 54 583 c 128,-1,5
 54 534 54 534 88 496.5 c 128,-1,6
 122 459 122 459 178 459 c 128,-1,7
 234 459 234 459 268 496.5 c 128,-1,0
 302 534 302 534 302 583 c 128,-1,1
178 439 m 128,-1,9
 118 439 118 439 76 481 c 128,-1,10
 34 523 34 523 34 583 c 128,-1,11
 34 643 34 643 76 685 c 128,-1,12
 118 727 118 727 178 727 c 128,-1,13
 238 727 238 727 280 685 c 128,-1,14
 322 643 322 643 322 583 c 128,-1,15
 322 523 322 523 280 481 c 128,-1,8
 238 439 238 439 178 439 c 128,-1,9
579.5 45.5 m 128,-1,17
 614 83 614 83 614 132.5 c 128,-1,18
 614 182 614 182 579.5 220 c 128,-1,19
 545 258 545 258 489 258 c 128,-1,20
 433 258 433 258 398.5 220 c 128,-1,21
 364 182 364 182 364 132.5 c 128,-1,22
 364 83 364 83 398.5 45.5 c 128,-1,23
 433 8 433 8 489 8 c 128,-1,16
 545 8 545 8 579.5 45.5 c 128,-1,17
489 -11 m 128,-1,25
 429 -11 429 -11 387 31 c 128,-1,26
 345 73 345 73 345 133 c 128,-1,27
 345 193 345 193 387 235 c 128,-1,28
 429 277 429 277 489 277 c 128,-1,29
 549 277 549 277 591 235 c 128,-1,30
 633 193 633 193 633 133 c 128,-1,31
 633 73 633 73 591 31 c 128,-1,24
 549 -11 549 -11 489 -11 c 128,-1,25
63 1 m 1,32,-1
 50 17 l 1,33,-1
 595 740 l 1,34,-1
 610 727 l 1,35,-1
 63 1 l 1,32,-1
EndSplineSet
EndChar

StartChar: ampersand
Encoding: 38 38 7
Width: 540
Flags: HMW
HStem: -12 75 383 21G
VStem: 36 183 177 236 432 77<122 481 481 609 481 484>
LayerCount: 2
Fore
SplineSet
413 204 m 2,0,-1
 413 460 l 1,1,2
 284.376975169 430.600451467 284.376975169 430.600451467 242.688487585 411.300225734 c 128,-1,3
 201 392 201 392 166.5 371 c 128,-1,4
 132 350 132 350 111 326 c 0,5,6
 54.4623655914 261.385560676 54.4623655914 261.385560676 54.4623655914 188.128264209 c 128,-1,7
 54.4623655914 114.870967742 54.4623655914 114.870967742 93.7311827957 60.935483871 c 128,-1,8
 133 7 133 7 218 7 c 128,-1,9
 303 7 303 7 358 70 c 128,-1,10
 413 133 413 133 413 204 c 2,0,-1
488 7 m 1,11,-1
 482 -11 l 1,12,13
 413 11 413 11 413 113 c 1,14,15
 370 45 370 45 322.5 17 c 128,-1,16
 275 -11 275 -11 213 -11 c 0,17,18
 123 -11 123 -11 75.5 52.5 c 0,19,20
 34.8468468468 106.846846847 34.8468468468 106.846846847 34.8468468468 179.139680221 c 0,21,22
 34.8468468468 242.426211926 34.8468468468 242.426211926 58.9234234234 287.713105963 c 128,-1,23
 83 333 83 333 118.5 361 c 128,-1,24
 154 389 154 389 182.5 404.5 c 128,-1,25
 211 420 211 420 252 438 c 1,26,27
 214 443 214 443 187 474 c 0,28,29
 155.064935065 510.666185666 155.064935065 510.666185666 155.064935065 562.644781145 c 128,-1,30
 155.064935065 614.623376623 155.064935065 614.623376623 185.032467532 653.811688312 c 0,31,32
 227.847058824 709.8 227.847058824 709.8 310.86 709.8 c 0,33,34
 344.4 709.8 344.4 709.8 381 699 c 1,35,-1
 371 682 l 1,36,37
 340.855072464 691.797101449 340.855072464 691.797101449 304.152173913 691.797101449 c 128,-1,38
 267.449275362 691.797101449 267.449275362 691.797101449 228.5 665 c 0,39,40
 175.353741497 628.43537415 175.353741497 628.43537415 175.353741497 570.17839789 c 0,41,42
 175.353741497 559.925170068 175.353741497 559.925170068 177 549 c 0,43,44
 187 487 187 487 228.5 466.5 c 0,45,46
 254.676923077 453.569230769 254.676923077 453.569230769 277.792307692 453.569230769 c 128,-1,47
 300.907692308 453.569230769 300.907692308 453.569230769 319 458 c 2,48,-1
 413 480 l 1,49,-1
 413 609 l 1,50,-1
 432 609 l 1,51,-1
 432 484 l 1,52,-1
 505 500 l 1,53,-1
 509 481 l 1,54,-1
 432 464 l 1,55,-1
 432 122 l 2,56,57
 432 26 432 26 488 7 c 1,11,-1
EndSplineSet
EndChar

StartChar: quoteright
Encoding: 8217 8217 8
Width: 309
Flags: HMW
HStem: 456 50 603 111
VStem: -40 104 45 30<655 663>
LayerCount: 2
Fore
SplineSet
14 560 m 1,0,-1
 -2 571 l 1,1,2
 23 585 23 585 38.5 603 c 128,-1,3
 54 621 54 621 57 632 c 2,4,-1
 60 643 l 1,5,-1
 58 643 l 1,6,7
 45 646 45 646 45 659.5 c 0,8,9
 45 673 45 673 60 673 c 128,-1,10
 75 673 75 673 75 658 c 0,11,12
 75 610 75 610 14 560 c 1,0,-1
EndSplineSet
EndChar

StartChar: parenleft
Encoding: 40 40 9
Width: 271
Flags: HMW
HStem: -198 21G 711 20G 794 21
VStem: 78 19<71 627 627 636>
LayerCount: 2
Fore
SplineSet
191 -101 m 1,0,-1
 183 -119 l 1,1,2
 126 -86 126 -86 102 -46.5 c 128,-1,3
 78 -7 78 -7 78 71 c 2,4,-1
 78 627 l 2,5,6
 78 705 78 705 102 744.5 c 128,-1,7
 126 784 126 784 183 817 c 1,8,-1
 190 800 l 1,9,10
 121.341463415 762.237804878 121.341463415 762.237804878 105 703 c 0,11,12
 97 674 97 674 97 636 c 2,13,-1
 97 65 l 2,14,15
 97 -26.3142857143 97 -26.3142857143 143.5 -67.5 c 0,16,17
 161 -83 161 -83 166.5 -86.5 c 128,-1,18
 172 -90 172 -90 191 -101 c 1,0,-1
EndSplineSet
EndChar

StartChar: parenright
Encoding: 41 41 10
Width: 271
Flags: HMW
HStem: -198 21G 711 20G
VStem: 93 56
LayerCount: 2
Fore
SplineSet
86 -119 m 1,0,-1
 78 -101 l 1,1,2
 97 -90 97 -90 102.5 -86.5 c 128,-1,3
 108 -83 108 -83 125.5 -67.5 c 128,-1,4
 143 -52 143 -52 150 -37.5 c 0,5,6
 172 8.07142857143 172 8.07142857143 172 65 c 2,7,-1
 172 636 l 2,8,9
 172 713.5 172 713.5 140 750.5 c 0,10,11
 113.690721649 780.920103093 113.690721649 780.920103093 79 800 c 1,12,-1
 86 817 l 1,13,14
 143 784 143 784 167 744.5 c 128,-1,15
 191 705 191 705 191 627 c 2,16,-1
 191 71 l 2,17,18
 191 -7 191 -7 167 -46.5 c 128,-1,19
 143 -86 143 -86 86 -119 c 1,0,-1
EndSplineSet
EndChar

StartChar: asterisk
Encoding: 42 42 11
Width: 352
Flags: HMW
HStem: 694 20G
VStem: 163 22<700 700>
LayerCount: 2
Fore
SplineSet
273 441 m 1,0,-1
 256 428 l 1,1,-1
 175 537 l 1,2,-1
 98 428 l 1,3,-1
 82 439 l 1,4,-1
 158 547 l 1,5,-1
 30 594 l 1,6,-1
 37 613 l 1,7,-1
 164 563 l 1,8,-1
 163 700 l 1,9,-1
 185 700 l 1,10,-1
 184 563 l 1,11,-1
 314 613 l 1,12,-1
 321 594 l 1,13,-1
 190 547 l 1,14,-1
 273 441 l 1,0,-1
EndSplineSet
EndChar

StartChar: plus
Encoding: 43 43 12
Width: 385
Flags: HMW
HStem: 0 21G 112 321
VStem: 34 320<395 413 395 413> 185 19<255 395 255 395 413 545>
LayerCount: 2
Fore
SplineSet
354 395 m 1,0,-1
 204 395 l 1,1,-1
 204 255 l 1,2,-1
 185 255 l 1,3,-1
 185 395 l 1,4,-1
 34 395 l 1,5,-1
 34 413 l 1,6,-1
 185 413 l 1,7,-1
 185 545 l 1,8,-1
 204 545 l 1,9,-1
 204 413 l 1,10,-1
 354 413 l 1,11,-1
 354 395 l 1,0,-1
EndSplineSet
EndChar

StartChar: comma
Encoding: 44 44 13
Width: 178
Flags: HMW
HStem: 0 111
VStem: 77 30<11 19>
LayerCount: 2
Fore
SplineSet
46 -84 m 1,0,-1
 30 -73 l 1,1,2
 55 -59 55 -59 70.5 -41 c 128,-1,3
 86 -23 86 -23 89 -12 c 2,4,-1
 92 -1 l 1,5,-1
 90 -1 l 1,6,7
 77 2 77 2 77 15.5 c 0,8,9
 77 29 77 29 92 29 c 128,-1,10
 107 29 107 29 107 14 c 0,11,12
 107 -34 107 -34 46 -84 c 1,0,-1
EndSplineSet
EndChar

StartChar: hyphen
Encoding: 45 45 14
Width: 410
Flags: HMW
HStem: 238 80
VStem: 45 320<394 413 394 413>
LayerCount: 2
Fore
SplineSet
365 394 m 1,0,-1
 45 394 l 1,1,-1
 45 413 l 1,2,-1
 365 413 l 1,3,-1
 365 394 l 1,0,-1
EndSplineSet
EndChar

StartChar: period
Encoding: 46 46 15
Width: 131
Flags: HMW
HStem: 0 111
VStem: 30 30<11 19>
LayerCount: 2
Fore
SplineSet
45 0 m 128,-1,1
 39 0 39 0 34.5 4.5 c 128,-1,2
 30 9 30 9 30 15 c 128,-1,3
 30 21 30 21 34.5 25.5 c 128,-1,4
 39 30 39 30 45 30 c 128,-1,5
 51 30 51 30 55.5 25.5 c 128,-1,6
 60 21 60 21 60 15 c 128,-1,7
 60 9 60 9 55.5 4.5 c 128,-1,0
 51 0 51 0 45 0 c 128,-1,1
EndSplineSet
EndChar

StartChar: slash
Encoding: 47 47 16
Width: 405
Flags: HMW
HStem: 711 20G
VStem: -10 456
LayerCount: 2
Fore
SplineSet
50 -114 m 1,0,-1
 30 -114 l 1,1,-1
 354 817 l 1,2,-1
 374 817 l 1,3,-1
 50 -114 l 1,0,-1
EndSplineSet
EndChar

StartChar: zero
Encoding: 48 48 17
Width: 549
Flags: HMW
HStem: -12 75 634 75 695 21<211 338>
VStem: 63 19<185 507 507 508> 66 53 364 53 463 21 464 19<184 185 185 506>
LayerCount: 2
Fore
SplineSet
464 184 m 2,0,-1
 464 510 l 2,1,2
 464 596 464 596 416 645.5 c 128,-1,3
 368 695 368 695 273 695 c 128,-1,4
 178 695 178 695 130 644.5 c 128,-1,5
 82 594 82 594 82 508 c 2,6,-1
 82 184 l 2,7,8
 82 97 82 97 138 52.5 c 128,-1,9
 194 8 194 8 274 8 c 0,10,11
 354 8 354 8 409 50 c 128,-1,12
 464 92 464 92 464 184 c 2,0,-1
483 506 m 2,13,-1
 483 185 l 2,14,15
 483 84 483 84 421.5 36.5 c 128,-1,16
 360 -11 360 -11 274 -11 c 128,-1,17
 188 -11 188 -11 125.5 36.5 c 128,-1,18
 63 84 63 84 63 185 c 2,19,-1
 63 507 l 2,20,21
 63 610 63 610 119.5 663 c 128,-1,22
 176 716 176 716 275 716 c 128,-1,23
 374 716 374 716 428.5 660 c 128,-1,24
 483 604 483 604 483 506 c 2,13,-1
EndSplineSet
EndChar

StartChar: one
Encoding: 49 49 18
Width: 213
Flags: HMW
HStem: 0 21G<163 182 163 163> 508 68
VStem: 163 19<0 662 662 662>
LayerCount: 2
Fore
SplineSet
182 0 m 1,0,-1
 163 0 l 1,1,-1
 163 662 l 1,2,3
 139 634 139 634 107 616.5 c 128,-1,4
 75 599 75 599 55 595 c 2,5,-1
 35 591 l 1,6,-1
 30 609 l 1,7,8
 40 611 40 611 56 615 c 128,-1,9
 72 619 72 619 107.5 642.5 c 128,-1,10
 143 666 143 666 163 700 c 1,11,-1
 182 700 l 1,12,-1
 182 0 l 1,0,-1
EndSplineSet
EndChar

StartChar: two
Encoding: 50 50 19
Width: 413
Flags: HMW
HStem: 0 75 634 75
VStem: 30 23<0 20 20 20> 319 62
LayerCount: 2
Fore
SplineSet
381 0 m 1,0,-1
 30 0 l 1,1,-1
 30 20 l 1,2,-1
 321 424 l 1,3,4
 362.550561798 487.775280899 362.550561798 487.775280899 362.550561798 547.612359551 c 128,-1,5
 362.550561798 607.449438202 362.550561798 607.449438202 320.775280899 649.224719101 c 128,-1,6
 279 691 279 691 215 691 c 128,-1,7
 151 691 151 691 113 660 c 128,-1,8
 75 629 75 629 61 583 c 1,9,-1
 43 590 l 1,10,11
 85 710 85 710 221 710 c 0,12,13
 283 710 283 710 329.5 667 c 0,14,15
 382.026086957 618.427489481 382.026086957 618.427489481 382.026086957 551.435483871 c 128,-1,16
 382.026086957 484.443478261 382.026086957 484.443478261 335 413 c 1,17,-1
 53 20 l 1,18,-1
 381 20 l 1,19,-1
 381 0 l 1,0,-1
EndSplineSet
EndChar

StartChar: three
Encoding: 51 51 20
Width: 451
Flags: HMW
HStem: -12 75 634 75
VStem: 30 18<83 94> 103 199 401 19<156 260 142 263.5>
LayerCount: 2
Fore
SplineSet
30 83 m 1,0,-1
 48 94 l 1,1,2
 107 7 107 7 201.5 7 c 0,3,4
 296 7 296 7 348.5 67 c 128,-1,5
 401 127 401 127 401 207.5 c 0,6,7
 401 288 401 288 342.5 339.5 c 128,-1,8
 284 391 284 391 213 394 c 1,9,-1
 127 394 l 1,10,-1
 340 680 l 1,11,-1
 77 680 l 1,12,-1
 77 700 l 1,13,-1
 364 700 l 1,14,-1
 364 680 l 1,15,-1
 164 413 l 1,16,-1
 207 413 l 2,17,18
 296 413 296 413 358 351 c 128,-1,19
 420 289 420 289 420 200.5 c 0,20,21
 420 112 420 112 358 50 c 128,-1,22
 296 -12 296 -12 207 -12 c 0,23,24
 153 -12 153 -12 106 13.5 c 128,-1,25
 59 39 59 39 30 83 c 1,0,-1
EndSplineSet
EndChar

StartChar: four
Encoding: 52 52 21
Width: 484
Flags: HMW
HStem: 0 21G<361 380 361 361> 166 75
VStem: 360 20<394 394>
LayerCount: 2
Fore
SplineSet
380 0 m 1,0,-1
 361 0 l 1,1,-1
 360 394 l 1,2,-1
 30 394 l 1,3,-1
 202 700 l 1,4,-1
 222 700 l 1,5,-1
 63 413 l 1,6,-1
 361 413 l 1,7,-1
 361 700 l 1,8,-1
 380 700 l 1,9,-1
 380 413 l 1,10,-1
 453 413 l 1,11,-1
 447 394 l 1,12,-1
 380 394 l 1,13,-1
 380 0 l 1,0,-1
EndSplineSet
EndChar

StartChar: five
Encoding: 53 53 22
Width: 451
Flags: HMW
HStem: -12 75 392 75 622 75
VStem: 30 16<83 93> 401 19<152.5 249>
LayerCount: 2
Fore
SplineSet
30 83 m 1,0,-1
 46 93 l 1,1,2
 69 54 69 54 114 30.5 c 128,-1,3
 159 7 159 7 207 7 c 0,4,5
 292 7 292 7 346.5 65.5 c 128,-1,6
 401 124 401 124 401 200.5 c 0,7,8
 401 277 401 277 347.5 335.5 c 128,-1,9
 294 394 294 394 209 394 c 2,10,-1
 67 394 l 1,11,-1
 99 700 l 1,12,-1
 364 700 l 1,13,-1
 364 680 l 1,14,-1
 117 680 l 1,15,-1
 88 413 l 1,16,-1
 207 413 l 2,17,18
 296 413 296 413 358 351 c 128,-1,19
 420 289 420 289 420 200.5 c 0,20,21
 420 112 420 112 358 50 c 128,-1,22
 296 -12 296 -12 207 -12 c 0,23,24
 153 -12 153 -12 106 13.5 c 128,-1,25
 59 39 59 39 30 83 c 1,0,-1
EndSplineSet
EndChar

StartChar: six
Encoding: 54 54 23
Width: 486
Flags: HMW
HStem: -12 213<30 301> 201 212<30 301 49 301>
VStem: 30 19<201 209 287 449> 242 67 242 213
LayerCount: 2
Fore
SplineSet
49 209 m 1,0,-1
 49 201 l 2,1,2
 49 120 49 120 105 63.5 c 128,-1,3
 161 7 161 7 242 7 c 128,-1,4
 323 7 323 7 379.5 63.5 c 128,-1,5
 436 120 436 120 436 201 c 128,-1,6
 436 282 436 282 379.5 338 c 128,-1,7
 323 394 323 394 243 394 c 128,-1,8
 163 394 163 394 107.5 340.5 c 128,-1,9
 52 287 52 287 49 209 c 1,0,-1
30 201 m 2,10,-1
 30 461 l 2,11,12
 30 544.037735849 30 544.037735849 80.5 615.5 c 0,13,14
 107 653 107 653 157 676.5 c 128,-1,15
 207 700 207 700 274 700 c 2,16,-1
 309 700 l 1,17,-1
 309 680 l 1,18,-1
 270 680 l 2,19,20
 186.82 680 186.82 680 122.5 632 c 0,21,22
 89 607 89 607 69 560 c 128,-1,23
 49 513 49 513 49 449 c 2,24,-1
 49 287 l 1,25,26
 79 354 79 354 131.5 383.5 c 128,-1,27
 184 413 184 413 242 413 c 0,28,29
 331 413 331 413 393 351 c 128,-1,30
 455 289 455 289 455 200.5 c 128,-1,31
 455 112 455 112 392.5 50 c 128,-1,32
 330 -12 330 -12 242 -12 c 128,-1,33
 154 -12 154 -12 92 50 c 128,-1,34
 30 112 30 112 30 201 c 2,10,-1
EndSplineSet
EndChar

StartChar: seven
Encoding: 55 55 24
Width: 455
Flags: HMW
HStem: 0 21G<43 64 43 43> 680 20<30 401 30 424 30 424>
VStem: 30 394<680 700 680 700>
LayerCount: 2
Fore
SplineSet
64 0 m 1,0,-1
 43 0 l 1,1,-1
 401 680 l 1,2,-1
 30 680 l 1,3,-1
 30 700 l 1,4,-1
 424 700 l 1,5,-1
 424 680 l 1,6,-1
 64 0 l 1,0,-1
EndSplineSet
EndChar

StartChar: eight
Encoding: 56 56 25
Width: 475
Flags: HMW
HStem: -12 75 375 162 381 21G 634 75
VStem: 30 395<138.5 233> 49 22 180 58 238 168 239 205
LayerCount: 2
Fore
SplineSet
342 433.5 m 128,-1,1
 387 475 387 475 387 539 c 128,-1,2
 387 603 387 603 345 646.5 c 128,-1,3
 303 690 303 690 238.5 690 c 128,-1,4
 174 690 174 690 132 646.5 c 128,-1,5
 90 603 90 603 90 539.5 c 128,-1,6
 90 476 90 476 135.5 434 c 128,-1,7
 181 392 181 392 239 392 c 128,-1,0
 297 392 297 392 342 433.5 c 128,-1,1
293 386 m 1,8,9
 361 368 361 368 402.5 311 c 128,-1,10
 444 254 444 254 444 192 c 0,11,12
 444 104 444 104 385.5 46 c 128,-1,13
 327 -12 327 -12 238 -12 c 128,-1,14
 149 -12 149 -12 89.5 46 c 128,-1,15
 30 104 30 104 30 192 c 0,16,17
 30 256 30 256 70 311 c 128,-1,18
 110 366 110 366 180 386 c 1,19,20
 132 402 132 402 101.5 446 c 128,-1,21
 71 490 71 490 71 537 c 0,22,23
 71 611 71 611 118.5 660 c 128,-1,24
 166 709 166 709 238.5 709 c 128,-1,25
 311 709 311 709 358.5 660 c 128,-1,26
 406 611 406 611 406 537 c 0,27,28
 406 489 406 489 376.5 446.5 c 128,-1,29
 347 404 347 404 293 386 c 1,8,9
371.5 59.5 m 128,-1,31
 425 112 425 112 425 190.5 c 128,-1,32
 425 269 425 269 369 322 c 128,-1,33
 313 375 313 375 236 375 c 128,-1,34
 159 375 159 375 104 322.5 c 128,-1,35
 49 270 49 270 49 191 c 128,-1,36
 49 112 49 112 103 59.5 c 128,-1,37
 157 7 157 7 237.5 7 c 128,-1,30
 318 7 318 7 371.5 59.5 c 128,-1,31
EndSplineSet
EndChar

StartChar: nine
Encoding: 57 57 26
Width: 486
Flags: HMW
HStem: -12 75 241 75 634 75
VStem: 29 213 175 67 399 55
LayerCount: 2
Fore
SplineSet
436 488 m 1,0,-1
 436 496 l 2,1,2
 436 577 436 577 380 633.5 c 128,-1,3
 324 690 324 690 243 690 c 128,-1,4
 162 690 162 690 105.5 633.5 c 128,-1,5
 49 577 49 577 49 496 c 128,-1,6
 49 415 49 415 105.5 359 c 128,-1,7
 162 303 162 303 242 303 c 128,-1,8
 322 303 322 303 377.5 356.5 c 128,-1,9
 433 410 433 410 436 488 c 1,0,-1
211 0 m 2,10,-1
 176 0 l 1,11,-1
 176 20 l 1,12,-1
 215 20 l 2,13,14
 298.918367347 20 298.918367347 20 362.5 66.5 c 0,15,16
 396 91 396 91 416 137.5 c 128,-1,17
 436 184 436 184 436 248 c 2,18,-1
 436 410 l 1,19,20
 406 343 406 343 353.5 313.5 c 128,-1,21
 301 284 301 284 243 284 c 0,22,23
 154 284 154 284 92 346 c 128,-1,24
 30 408 30 408 30 496 c 128,-1,25
 30 584 30 584 92 646.5 c 128,-1,26
 154 709 154 709 242.5 709 c 128,-1,27
 331 709 331 709 393 647 c 128,-1,28
 455 585 455 585 455 496 c 2,29,-1
 455 236 l 2,30,31
 455 153.509433962 455 153.509433962 404.5 83 c 0,32,33
 378 46 378 46 328 23 c 128,-1,34
 278 0 278 0 211 0 c 2,10,-1
EndSplineSet
EndChar

StartChar: colon
Encoding: 58 58 27
Width: 91
Flags: HMW
HStem: 0 111 110 111 388 111 406 111
VStem: -4 21 30 30<121 129 399 407>
LayerCount: 2
Fore
SplineSet
45 388 m 128,-1,1
 39 388 39 388 34.5 392.5 c 128,-1,2
 30 397 30 397 30 403 c 128,-1,3
 30 409 30 409 34.5 413.5 c 128,-1,4
 39 418 39 418 45 418 c 128,-1,5
 51 418 51 418 55.5 413.5 c 128,-1,6
 60 409 60 409 60 403 c 128,-1,7
 60 397 60 397 55.5 392.5 c 128,-1,0
 51 388 51 388 45 388 c 128,-1,1
45 110 m 128,-1,9
 39 110 39 110 34.5 114.5 c 128,-1,10
 30 119 30 119 30 125 c 128,-1,11
 30 131 30 131 34.5 135.5 c 128,-1,12
 39 140 39 140 45 140 c 128,-1,13
 51 140 51 140 55.5 135.5 c 128,-1,14
 60 131 60 131 60 125 c 128,-1,15
 60 119 60 119 55.5 114.5 c 128,-1,8
 51 110 51 110 45 110 c 128,-1,9
EndSplineSet
EndChar

StartChar: semicolon
Encoding: 59 59 28
Width: 138
Flags: HMW
HStem: 0 111 268 111 406 111
VStem: 57 69 76 30<279 287> 77 30<13 21>
LayerCount: 2
Fore
SplineSet
46 -82 m 1,0,-1
 30 -71 l 1,1,2
 55 -57 55 -57 70.5 -39 c 128,-1,3
 86 -21 86 -21 89 -10 c 2,4,-1
 92 1 l 1,5,-1
 90 1 l 1,6,7
 77 4 77 4 77 17.5 c 0,8,9
 77 31 77 31 92 31 c 128,-1,10
 107 31 107 31 107 16 c 0,11,12
 107 -32 107 -32 46 -82 c 1,0,-1
91 268 m 128,-1,14
 85 268 85 268 80.5 272.5 c 128,-1,15
 76 277 76 277 76 283 c 128,-1,16
 76 289 76 289 80.5 293.5 c 128,-1,17
 85 298 85 298 91 298 c 128,-1,18
 97 298 97 298 101.5 293.5 c 128,-1,19
 106 289 106 289 106 283 c 128,-1,20
 106 277 106 277 101.5 272.5 c 128,-1,13
 97 268 97 268 91 268 c 128,-1,14
EndSplineSet
EndChar

StartChar: less
Encoding: 60 60 29
Width: 353
Flags: HMW
HStem: -8 21G
VStem: 30 292<94 359 94 359>
LayerCount: 2
Fore
SplineSet
308 80 m 1,0,-1
 30 358 l 1,1,-1
 30 359 l 1,2,-1
 308 637 l 1,3,-1
 322 624 l 1,4,-1
 54 358 l 1,5,-1
 322 94 l 1,6,-1
 308 80 l 1,0,-1
EndSplineSet
EndChar

StartChar: equal
Encoding: 61 61 30
Width: 381
Flags: HMW
HStem: 133 80 238 80
VStem: 30 320<289 308 289 308 394 413 289 413>
LayerCount: 2
Fore
SplineSet
350 289 m 1,0,-1
 30 289 l 1,1,-1
 30 308 l 1,2,-1
 350 308 l 1,3,-1
 350 289 l 1,0,-1
350 394 m 1,4,-1
 30 394 l 1,5,-1
 30 413 l 1,6,-1
 350 413 l 1,7,-1
 350 394 l 1,4,-1
EndSplineSet
EndChar

StartChar: greater
Encoding: 62 62 31
Width: 353
Flags: HMW
HStem: -8 21G
VStem: -49 313 30 292<94 358 358 624>
LayerCount: 2
Fore
SplineSet
322 358 m 1,0,-1
 44 80 l 1,1,-1
 30 94 l 1,2,-1
 298 358 l 1,3,-1
 30 624 l 1,4,-1
 44 637 l 1,5,-1
 322 359 l 1,6,-1
 322 358 l 1,0,-1
EndSplineSet
EndChar

StartChar: question
Encoding: 63 63 32
Width: 416
Flags: HMW
HStem: 33 86 656 75
VStem: 30 19<532 578.5> 186 19<119 177> 326 59
LayerCount: 2
Fore
SplineSet
196 0 m 128,-1,1
 190 0 190 0 185.5 4.5 c 128,-1,2
 181 9 181 9 181 15 c 128,-1,3
 181 21 181 21 185.5 25.5 c 128,-1,4
 190 30 190 30 196 30 c 128,-1,5
 202 30 202 30 206.5 25.5 c 128,-1,6
 211 21 211 21 211 15 c 128,-1,7
 211 9 211 9 206.5 4.5 c 128,-1,0
 202 0 202 0 196 0 c 128,-1,1
205 119 m 1,8,-1
 186 119 l 1,9,-1
 186 185 l 2,10,11
 186 230 186 230 202.5 268 c 128,-1,12
 219 306 219 306 239 327.5 c 128,-1,13
 259 349 259 349 288 378.5 c 128,-1,14
 317 408 317 408 338.5 438.5 c 0,15,16
 365.464285714 476.75166113 365.464285714 476.75166113 365.464285714 523.947259136 c 128,-1,17
 365.464285714 571.142857143 365.464285714 571.142857143 350.732142857 605.071428571 c 128,-1,18
 336 639 336 639 298 664.5 c 128,-1,19
 260 690 260 690 199.5 690 c 128,-1,20
 139 690 139 690 94 648 c 128,-1,21
 49 606 49 606 49 532 c 1,22,-1
 30 532 l 1,23,24
 30 607 30 607 76.5 658 c 128,-1,25
 123 709 123 709 208 709 c 0,26,27
 260 709 260 709 302 682.5 c 0,28,29
 383.99 630.768214286 383.99 630.768214286 383.99 536.595 c 0,30,31
 383.99 474.803636364 383.99 474.803636364 347 421 c 0,32,33
 328 393 328 393 298.5 362.5 c 128,-1,34
 269 332 269 332 251 313.5 c 128,-1,35
 233 295 233 295 219 259.5 c 128,-1,36
 205 224 205 224 205 177 c 2,37,-1
 205 119 l 1,8,-1
EndSplineSet
EndChar

StartChar: at
Encoding: 64 64 33
Width: 720
Flags: HMW
HStem: -17 55 131 68 190 112 505 68 676 55
VStem: 37 68 180 75 450 68 680 68
LayerCount: 2
Fore
SplineSet
518 108 m 1,0,-1
 518 383 l 1,1,2
 407.172413793 438.413793103 407.172413793 438.413793103 308.178953627 438.413793103 c 0,3,4
 283.74137931 438.413793103 283.74137931 438.413793103 262.5 434 c 0,5,6
 224 426 224 426 198 393 c 128,-1,7
 172 360 172 360 172 302 c 2,8,-1
 172 207 l 2,9,10
 172 150 172 150 201.5 117 c 0,11,12
 240.177777778 73.7333333333 240.177777778 73.7333333333 326.91010101 73.7333333333 c 128,-1,13
 413.642424242 73.7333333333 413.642424242 73.7333333333 518 108 c 1,0,-1
326.232638889 54.4583333333 m 0,14,15
 163.942073171 54.4583333333 163.942073171 54.4583333333 153 204 c 1,16,-1
 153 305 l 2,17,18
 153 416 153 416 241 449 c 0,19,20
 269.965517241 459.560344828 269.965517241 459.560344828 306.669218193 459.560344828 c 0,21,22
 391.612068966 459.560344828 391.612068966 459.560344828 518 403 c 1,23,24
 519 473 519 473 471 516 c 0,25,26
 420.6 561.15 420.6 561.15 308.4125 561.15 c 128,-1,27
 196.225 561.15 196.225 561.15 122.6125 505.575 c 128,-1,28
 49 450 49 450 49 342 c 2,29,-1
 49 190 l 2,30,31
 49 83 49 83 124.432835821 17.4925373134 c 128,-1,32
 199.865671642 -48.0149253731 199.865671642 -48.0149253731 326.16106037 -48.0149253731 c 0,33,34
 466.570646766 -48.0149253731 466.570646766 -48.0149253731 551.785323383 12.4925373134 c 128,-1,35
 637 73 637 73 637 162 c 2,36,-1
 637 372 l 2,37,38
 637 426 637 426 644.5 448 c 128,-1,39
 652 470 652 470 681 490 c 1,40,-1
 689 473 l 1,41,42
 656 458 656 458 656 403 c 2,43,-1
 656 171 l 2,44,45
 656 108 656 108 625.5 60 c 128,-1,46
 595 12 595 12 545 -14 c 0,47,48
 444.754500818 -66.1276595745 444.754500818 -66.1276595745 323.504909984 -66.1276595745 c 128,-1,49
 202.255319149 -66.1276595745 202.255319149 -66.1276595745 116.127659574 -0.063829787234 c 128,-1,50
 30 66 30 66 30 192 c 2,51,-1
 30 339 l 2,52,53
 30 462.173076923 30 462.173076923 119 525.5 c 0,54,55
 194.92 579.52 194.92 579.52 315.2992 579.52 c 0,56,57
 451.28744186 579.52 451.28744186 579.52 506 506 c 0,58,59
 538 463 538 463 538 396 c 1,60,-1
 575 380 l 1,61,-1
 575 359 l 1,62,-1
 538 375 l 1,63,-1
 538 91 l 1,64,65
 401.799242424 54.4583333333 401.799242424 54.4583333333 326.232638889 54.4583333333 c 0,14,15
EndSplineSet
EndChar

StartChar: A
Encoding: 65 65 34
Width: 527
Flags: HMW
HStem: 0 21G<12 31 12 12 496 517 496 496> 280 20G<137 391 391 391>
VStem: 31 465<0 0>
LayerCount: 2
Fore
SplineSet
391 300 m 1,0,-1
 264 660 l 1,1,-1
 137 300 l 1,2,-1
 391 300 l 1,0,-1
517 0 m 1,3,-1
 496 0 l 1,4,-1
 398 281 l 1,5,-1
 130 281 l 1,6,-1
 31 0 l 1,7,-1
 12 0 l 1,8,-1
 257 700 l 1,9,-1
 271 700 l 1,10,-1
 517 0 l 1,3,-1
EndSplineSet
EndChar

StartChar: B
Encoding: 66 66 35
Width: 550
Flags: HMW
HStem: 19 0<97 97 306 306> 413 0<97 97 335 335>
VStem: 78 19<19 19 19 394 413 681> 97 378 97 414<19 266 161.5 266 161.5 394 161.5 681 161.5 413>
LayerCount: 2
Fore
SplineSet
97 19 m 1,0,-1
 306 19 l 2,1,2
 396 19 396 19 444 69 c 128,-1,3
 492 119 492 119 492 205 c 128,-1,4
 492 291 492 291 443.5 342.5 c 128,-1,5
 395 394 395 394 309 394 c 2,6,-1
 97 394 l 1,7,-1
 97 19 l 1,0,-1
97 413 m 1,8,-1
 335 413 l 2,9,10
 380 413 380 413 416.5 445.5 c 0,11,12
 456.347826087 480.980941036 456.347826087 480.980941036 456.347826087 543.207861823 c 128,-1,13
 456.347826087 605.434782609 456.347826087 605.434782609 416.173913043 643.217391304 c 128,-1,14
 376 681 376 681 291 681 c 2,15,-1
 97 681 l 1,16,-1
 97 413 l 1,8,-1
308 0 m 2,17,-1
 78 0 l 1,18,-1
 78 700 l 1,19,-1
 299 700 l 2,20,21
 381 700 381 700 428.087378641 658.252427184 c 128,-1,22
 475.174757282 616.504854369 475.174757282 616.504854369 475.174757282 539.647280611 c 0,23,24
 475.174757282 496.498522583 475.174757282 496.498522583 451.087378641 457.749261292 c 128,-1,25
 427 419 427 419 388 404 c 0,26,27
 387 403 387 403 387 402 c 2,28,-1
 387 401 l 1,29,30
 511 352 511 352 511 209 c 0,31,32
 511 128.837209302 511 128.837209302 470.5 69.5 c 0,33,34
 449 38 449 38 407.5 19 c 128,-1,35
 366 0 366 0 308 0 c 2,17,-1
EndSplineSet
EndChar

StartChar: C
Encoding: 67 67 36
Width: 430
Flags: HMW
HStem: -12 52 659 51
VStem: 66 19<183 185 185 504 504 513>
LayerCount: 2
Fore
SplineSet
260.49540292 7.09302325581 m 0,0,1
 333.093023256 7.09302325581 333.093023256 7.09302325581 421 41 c 1,2,-1
 427 23 l 1,3,4
 341.745951417 -10.0576923077 341.745951417 -10.0576923077 265.350591716 -10.0576923077 c 0,5,6
 248.615384615 -10.0576923077 248.615384615 -10.0576923077 216.307692308 -7.02884615385 c 128,-1,7
 184 -4 184 -4 147.5 15.5 c 128,-1,8
 111 35 111 35 88.5 77.5 c 128,-1,9
 66 120 66 120 66 183 c 2,10,-1
 66 504 l 2,11,12
 66 580 66 580 87.5 619 c 128,-1,13
 109 658 109 658 153 685 c 1,14,15
 197.444444444 709.888888889 197.444444444 709.888888889 259.666666667 709.888888889 c 0,16,17
 340.75862069 709.888888889 340.75862069 709.888888889 402 677 c 1,18,-1
 394 660 l 1,19,20
 324 691 324 691 263 691 c 0,21,22
 218.142857143 691 218.142857143 691 184.071428571 677.5 c 128,-1,23
 150 664 150 664 131 645.5 c 128,-1,24
 112 627 112 627 98.5 593 c 128,-1,25
 85 559 85 559 85 513 c 2,26,-1
 85 185 l 2,27,28
 85 120 85 120 111.5 77.5 c 128,-1,29
 138 35 138 35 178.11627907 21.0465116279 c 128,-1,30
 218.23255814 7.09302325581 218.23255814 7.09302325581 260.49540292 7.09302325581 c 0,0,1
EndSplineSet
EndChar

StartChar: D
Encoding: 68 68 37
Width: 576
Flags: HMW
HStem: 0 680<97 276 97 286 78 276> 214 487<78 479>
VStem: 78 401<214 468 468 544 214 701 214 701> 276 222<20 200>
LayerCount: 2
Fore
SplineSet
479 214 m 2,0,-1
 479 468 l 2,1,2
 479 575 479 575 420.5 627.5 c 128,-1,3
 362 680 362 680 276 680 c 2,4,-1
 97 680 l 1,5,-1
 97 20 l 1,6,-1
 276 20 l 2,7,8
 305 20 305 20 326 22 c 128,-1,9
 347 24 347 24 378.5 34.5 c 128,-1,10
 410 45 410 45 429.5 64.5 c 128,-1,11
 449 84 449 84 464 122.5 c 128,-1,12
 479 161 479 161 479 214 c 2,0,-1
286 0 m 2,13,-1
 78 0 l 1,14,-1
 78 701 l 1,15,-1
 266 701 l 2,16,17
 379 701 379 701 438.5 639 c 128,-1,18
 498 577 498 577 498 474 c 2,19,-1
 498 200 l 2,20,21
 498 0 498 0 286 0 c 2,13,-1
EndSplineSet
EndChar

StartChar: E
Encoding: 69 69 38
Width: 465
Flags: HMW
HStem: 0 19<97 410 97 410> 681 19<97 412 97 97>
VStem: 78 19<19 394 413 681>
LayerCount: 2
Fore
SplineSet
410 0 m 1,0,-1
 78 0 l 1,1,-1
 78 700 l 1,2,-1
 412 700 l 1,3,-1
 412 681 l 1,4,-1
 97 681 l 1,5,-1
 97 413 l 1,6,-1
 325 413 l 1,7,-1
 318 394 l 1,8,-1
 97 394 l 1,9,-1
 97 19 l 1,10,-1
 410 19 l 1,11,-1
 410 0 l 1,0,-1
EndSplineSet
EndChar

StartChar: F
Encoding: 70 70 39
Width: 451
Flags: HMW
HStem: 680 20<98 412 98 98>
VStem: 78 20<0 394 413 680>
LayerCount: 2
Fore
SplineSet
98 0 m 1,0,-1
 78 0 l 1,1,-1
 78 700 l 1,2,-1
 412 700 l 1,3,-1
 412 680 l 1,4,-1
 98 680 l 1,5,-1
 98 413 l 1,6,-1
 305 413 l 1,7,-1
 297 394 l 1,8,-1
 98 394 l 1,9,-1
 98 0 l 1,0,-1
EndSplineSet
EndChar

StartChar: G
Encoding: 71 71 40
Width: 537
Flags: HMW
HStem: 0 21G<457 476 457 457> 68 20G<457 457> 659 51
VStem: 65 19<189 497> 457 19<0 88 88 88 182 281 281 281>
LayerCount: 2
Fore
SplineSet
394 659 m 1,0,1
 319.633333333 691.333333333 319.633333333 691.333333333 261.777777778 691.333333333 c 0,2,3
 180.008547009 691.333333333 180.008547009 691.333333333 133 645.5 c 0,4,5
 113 626 113 626 98.5 587.5 c 128,-1,6
 84 549 84 549 84 497 c 2,7,-1
 84 187 l 2,8,9
 84 109 84 109 136 59 c 128,-1,10
 188 9 188 9 280.5 9 c 128,-1,11
 373 9 373 9 415 59 c 128,-1,12
 457 109 457 109 457 182 c 2,13,-1
 457 281 l 1,14,-1
 346 281 l 1,15,-1
 338 300 l 1,16,-1
 476 300 l 1,17,-1
 476 0 l 1,18,-1
 457 0 l 1,19,-1
 457 88 l 1,20,21
 411 -10 411 -10 276 -10 c 0,22,23
 188 -10 188 -10 126.5 40 c 128,-1,24
 65 90 65 90 65 189 c 2,25,-1
 65 503 l 2,26,27
 65 631 65 631 152 684 c 1,28,29
 197.161290323 709.290322581 197.161290323 709.290322581 258.638917794 709.290322581 c 0,30,31
 335.529032258 709.290322581 335.529032258 709.290322581 401 676 c 1,32,-1
 394 659 l 1,0,1
EndSplineSet
EndChar

StartChar: H
Encoding: 72 72 41
Width: 588
Flags: HMW
VStem: 78 19<0 394 413 700> 79 21 489 19<0 394 394 394 413 700>
LayerCount: 2
Fore
SplineSet
508 0 m 1,0,-1
 489 0 l 1,1,-1
 489 394 l 1,2,-1
 97 394 l 1,3,-1
 97 0 l 1,4,-1
 78 0 l 1,5,-1
 78 700 l 1,6,-1
 97 700 l 1,7,-1
 97 413 l 1,8,-1
 489 413 l 1,9,-1
 489 700 l 1,10,-1
 508 700 l 1,11,-1
 508 0 l 1,0,-1
EndSplineSet
EndChar

StartChar: I
Encoding: 73 73 42
Width: 193
Flags: HMW
VStem: 116 19<0 679 679 679>
LayerCount: 2
Fore
SplineSet
135 0 m 1,0,-1
 116 0 l 1,1,-1
 116 679 l 1,2,-1
 30 681 l 1,3,-1
 30 700 l 1,4,-1
 135 700 l 1,5,-1
 135 0 l 1,0,-1
EndSplineSet
EndChar

StartChar: J
Encoding: 74 74 43
Width: 177
Flags: HMW
HStem: -17 80
VStem: 95 18<118 122 122 679 679 679>
LayerCount: 2
Fore
SplineSet
9 -37 m 1,0,-1
 3 -19 l 1,1,2
 95 -6 95 -6 95 118 c 2,3,-1
 95 679 l 1,4,-1
 11 681 l 1,5,-1
 11 700 l 1,6,-1
 113 700 l 1,7,-1
 113 122 l 2,8,9
 113 47 113 47 89 10 c 128,-1,10
 65 -27 65 -27 9 -37 c 1,0,-1
EndSplineSet
EndChar

StartChar: K
Encoding: 75 75 44
Width: 479
Flags: HMW
HStem: 694 20G
VStem: 79 19<0 280 308 701>
LayerCount: 2
Fore
SplineSet
476 0 m 1,0,-1
 455 0 l 1,1,-1
 195 403 l 1,2,-1
 98 280 l 1,3,-1
 98 0 l 1,4,-1
 79 0 l 1,5,-1
 79 701 l 1,6,-1
 98 701 l 1,7,-1
 98 308 l 1,8,-1
 402 701 l 1,9,-1
 424 701 l 1,10,-1
 207 418 l 1,11,-1
 476 0 l 1,0,-1
EndSplineSet
EndChar

StartChar: L
Encoding: 76 76 45
Width: 440
Flags: HMW
HStem: 0 80 694 20G
VStem: 79 18
LayerCount: 2
Fore
SplineSet
439 0 m 1,0,-1
 78 0 l 1,1,-1
 78 700 l 1,2,-1
 97 700 l 1,3,-1
 97 20 l 1,4,-1
 439 20 l 1,5,-1
 439 0 l 1,0,-1
EndSplineSet
EndChar

StartChar: M
Encoding: 77 77 46
Width: 694
Flags: HMW
HStem: 0 21G<78 96 78 78 336 354 336 336 596 614 596 596> 0 30<346 346 346 354 336 346> 648 52<78 96>
VStem: 78 18<0 648 0 700> 596 18<0 648 648 648>
LayerCount: 2
Fore
SplineSet
614 0 m 1,0,-1
 596 0 l 1,1,-1
 596 648 l 1,2,-1
 354 0 l 1,3,-1
 336 0 l 1,4,-1
 96 648 l 1,5,-1
 96 0 l 1,6,-1
 78 0 l 1,7,-1
 78 700 l 1,8,-1
 96 700 l 1,9,-1
 346 30 l 1,10,-1
 596 700 l 1,11,-1
 614 700 l 1,12,-1
 614 0 l 1,0,-1
EndSplineSet
EndChar

StartChar: N
Encoding: 78 78 47
Width: 650
Flags: HMW
HStem: 0 32<553 570 553 553> 670 30<78 96>
VStem: 78 18<0 670 0 700> 553 17<0 0 32 700>
LayerCount: 2
Fore
SplineSet
570 0 m 1,0,-1
 553 0 l 1,1,-1
 96 670 l 1,2,-1
 96 0 l 1,3,-1
 78 0 l 1,4,-1
 78 700 l 1,5,-1
 96 700 l 1,6,-1
 553 32 l 1,7,-1
 553 700 l 1,8,-1
 570 700 l 1,9,-1
 570 0 l 1,0,-1
EndSplineSet
EndChar

StartChar: O
Encoding: 79 79 48
Width: 549
Flags: HMW
HStem: 0 42 695 21<211 338>
VStem: 63 19<185 507 507 508> 463 21 464 19<184 185 185 506>
LayerCount: 2
Fore
SplineSet
464 184 m 2,0,-1
 464 510 l 2,1,2
 464 596 464 596 416 645.5 c 128,-1,3
 368 695 368 695 273 695 c 128,-1,4
 178 695 178 695 130 644.5 c 128,-1,5
 82 594 82 594 82 508 c 2,6,-1
 82 184 l 2,7,8
 82 97 82 97 138 52.5 c 128,-1,9
 194 8 194 8 274 8 c 0,10,11
 354 8 354 8 409 50 c 128,-1,12
 464 92 464 92 464 184 c 2,0,-1
483 506 m 2,13,-1
 483 185 l 2,14,15
 483 84 483 84 421.5 36.5 c 128,-1,16
 360 -11 360 -11 274 -11 c 128,-1,17
 188 -11 188 -11 125.5 36.5 c 128,-1,18
 63 84 63 84 63 185 c 2,19,-1
 63 507 l 2,20,21
 63 610 63 610 119.5 663 c 128,-1,22
 176 716 176 716 275 716 c 128,-1,23
 374 716 374 716 428.5 660 c 128,-1,24
 483 604 483 604 483 506 c 2,13,-1
EndSplineSet
EndChar

StartChar: P
Encoding: 80 80 49
Width: 551
Flags: HMW
HStem: 0 21G<78 97 78 78> 0 680<78 325 78 325>
VStem: 78 21<0 700 700 700> 97 0<0 0 281 281 300 300 680 680> 324 169<455.5 700>
LayerCount: 2
Fore
SplineSet
97 0 m 1,0,-1
 78 0 l 1,1,-1
 78 700 l 1,2,-1
 324 700 l 2,3,4
 419 700 419 700 465.5 642 c 128,-1,5
 512 584 512 584 512 486 c 0,6,7
 512 281 512 281 311 281 c 2,8,-1
 97 281 l 1,9,-1
 97 0 l 1,0,-1
97 300 m 1,10,-1
 309 300 l 2,11,12
 493 300 493 300 493 486 c 0,13,14
 493 575 493 575 452.5 627.5 c 128,-1,15
 412 680 412 680 325 680 c 2,16,-1
 97 680 l 1,17,-1
 97 300 l 1,10,-1
EndSplineSet
EndChar

StartChar: Q
Encoding: 81 81 50
Width: 549
Flags: HMW
HStem: -94 83 9 21G 696 20<226.5 324.5>
VStem: 63 21<185 507 507 516> 267 20 270 20<81 174 174 174> 463 20<186 506>
LayerCount: 2
Fore
SplineSet
463 186 m 2,0,-1
 463 516 l 2,1,2
 463 605 463 605 409.5 650.5 c 128,-1,3
 356 696 356 696 274.5 696 c 128,-1,4
 193 696 193 696 138.5 653 c 128,-1,5
 84 610 84 610 84 516 c 2,6,-1
 84 184 l 2,7,8
 84 136 84 136 102 99.5 c 0,9,10
 132.13667426 38.3895216401 132.13667426 38.3895216401 210.5 16 c 0,11,12
 238.85 7.9 238.85 7.9 254.825 7.9 c 128,-1,13
 270.8 7.9 270.8 7.9 274 8 c 1,14,15
 270 32 270 32 270 81 c 2,16,-1
 270 174 l 1,17,-1
 290 174 l 1,18,-1
 291 81 l 2,19,20
 291 37 291 37 296 9 c 1,21,22
 375 13 375 13 419 62.5 c 128,-1,23
 463 112 463 112 463 186 c 2,0,-1
428 -75 m 1,24,-1
 428 -94 l 1,25,26
 304 -94 304 -94 277 -11 c 1,27,28
 187 -11 187 -11 125 37 c 128,-1,29
 63 85 63 85 63 185 c 2,30,-1
 63 507 l 2,31,32
 63 610 63 610 119.5 663 c 128,-1,33
 176 716 176 716 275 716 c 128,-1,34
 374 716 374 716 428.5 660 c 128,-1,35
 483 604 483 604 483 506 c 2,36,-1
 483 185 l 2,37,38
 483 96 483 96 433.5 47.5 c 128,-1,39
 384 -1 384 -1 300 -11 c 1,40,41
 314 -74 314 -74 428 -75 c 1,24,-1
EndSplineSet
EndChar

StartChar: R
Encoding: 82 82 51
Width: 564
Flags: HMW
HStem: 300 400<98 316 316 317 317 382.5>
VStem: 78 20<0 281 0 300 300 680> 492 20<457 546>
LayerCount: 2
Fore
SplineSet
98 300 m 1,0,-1
 316 300 l 2,1,2
 407 300 407 300 449.5 355 c 128,-1,3
 492 410 492 410 492 494 c 128,-1,4
 492 578 492 578 447.5 629 c 128,-1,5
 403 680 403 680 316 680 c 2,6,-1
 98 680 l 1,7,-1
 98 300 l 1,0,-1
513 0 m 1,8,-1
 492 0 l 1,9,-1
 357 283 l 1,10,11
 339 281 339 281 332 281 c 2,12,-1
 98 281 l 1,13,-1
 98 0 l 1,14,-1
 78 0 l 1,15,-1
 78 700 l 1,16,-1
 317 700 l 2,17,18
 416 700 416 700 464 642 c 128,-1,19
 512 584 512 584 512 486 c 0,20,21
 512 433.807692308 512 433.807692308 488 377.5 c 0,22,23
 475 347 475 347 446 323 c 128,-1,24
 417 299 417 299 376 287 c 1,25,-1
 513 0 l 1,8,-1
EndSplineSet
EndChar

StartChar: S
Encoding: 83 83 52
Width: 561
Flags: HMW
HStem: -17 80 651 80
VStem: 37 22<142.5 178> 55 21<443.5 580> 418 8 491 21<129.5 292>
LayerCount: 2
Fore
SplineSet
37 178 m 1,0,-1
 59 178 l 1,1,2
 59 116 59 116 114.5 61.5 c 128,-1,3
 170 7 170 7 270 7 c 0,4,5
 370 7 370 7 430.5 50 c 128,-1,6
 491 93 491 93 491 187 c 0,7,8
 491 236 491 236 458.5 271.5 c 128,-1,9
 426 307 426 307 378 325 c 128,-1,10
 330 343 330 343 273 363 c 128,-1,11
 216 383 216 383 168 401 c 128,-1,12
 120 419 120 419 87.5 454 c 128,-1,13
 55 489 55 489 55 538 c 0,14,15
 55 608 55 608 113 659 c 128,-1,16
 171 710 171 710 280 710 c 0,17,18
 363 710 363 710 426 680 c 1,19,-1
 418 660 l 1,20,21
 358 691 358 691 276 691 c 0,22,23
 194 691 194 691 135 650 c 128,-1,24
 76 609 76 609 76 535 c 0,25,26
 76 485 76 485 121 451 c 128,-1,27
 166 417 166 417 230 397 c 128,-1,28
 294 377 294 377 358 354.5 c 128,-1,29
 422 332 422 332 467 290.5 c 128,-1,30
 512 249 512 249 512 187 c 0,31,32
 512 96 512 96 454 42.5 c 128,-1,33
 396 -11 396 -11 280 -11 c 0,34,35
 164 -11 164 -11 101.5 46.5 c 128,-1,36
 39 104 39 104 37 178 c 1,0,-1
EndSplineSet
EndChar

StartChar: T
Encoding: 84 84 53
Width: 402
Flags: HMW
HStem: 0 21G<190 208 190 190> 634 80
VStem: -171 21 189 19<680 680>
LayerCount: 2
Fore
SplineSet
208 0 m 1,0,-1
 190 0 l 1,1,-1
 189 680 l 1,2,-1
 0 680 l 1,3,-1
 0 700 l 1,4,-1
 402 700 l 1,5,-1
 402 680 l 1,6,-1
 208 680 l 1,7,-1
 208 0 l 1,0,-1
EndSplineSet
EndChar

StartChar: U
Encoding: 85 85 54
Width: 566
Flags: HMW
HStem: -17 80 694 20G
VStem: 74 19<186 701> 476 19<184 186 186 701>
LayerCount: 2
Fore
SplineSet
476 184 m 2,0,-1
 476 701 l 1,1,-1
 495 701 l 1,2,-1
 495 186 l 2,3,4
 495 133 495 133 476.5 94 c 128,-1,5
 458 55 458 55 426.5 34 c 128,-1,6
 395 13 395 13 360 3 c 128,-1,7
 325 -7 325 -7 285 -7 c 128,-1,8
 245 -7 245 -7 209.5 3 c 128,-1,9
 174 13 174 13 142.5 34 c 128,-1,10
 111 55 111 55 92.5 94 c 128,-1,11
 74 133 74 133 74 186 c 2,12,-1
 74 701 l 1,13,-1
 93 701 l 1,14,-1
 93 184 l 2,15,16
 93 136 93 136 111 101 c 128,-1,17
 129 66 129 66 159 47.5 c 128,-1,18
 189 29 189 29 221 20.5 c 128,-1,19
 253 12 253 12 287 12 c 128,-1,20
 321 12 321 12 352 20.5 c 128,-1,21
 383 29 383 29 412 47.5 c 128,-1,22
 441 66 441 66 458.5 101.5 c 128,-1,23
 476 137 476 137 476 184 c 2,0,-1
EndSplineSet
EndChar

StartChar: V
Encoding: 86 86 55
Width: 595
Flags: HMW
HStem: 0 95 694 20G
VStem: 97 440<700 700> 307 21<0 0>
LayerCount: 2
Fore
SplineSet
329 0 m 1,0,-1
 307 0 l 1,1,-1
 78 700 l 1,2,-1
 97 700 l 1,3,-1
 317 27 l 1,4,-1
 537 700 l 1,5,-1
 556 700 l 1,6,-1
 329 0 l 1,0,-1
EndSplineSet
EndChar

StartChar: W
Encoding: 87 87 56
Width: 813
Flags: HMW
HStem: 0 120 600 114
VStem: 78 696<700 700> 415 21
LayerCount: 2
Fore
SplineSet
593 0 m 1,0,-1
 572 0 l 1,1,-1
 427 653 l 1,2,-1
 282 0 l 1,3,-1
 261 0 l 1,4,-1
 78 700 l 1,5,-1
 99 700 l 1,6,-1
 271 36 l 1,7,-1
 417 700 l 1,8,-1
 437 700 l 1,9,-1
 583 35 l 1,10,-1
 752 700 l 1,11,-1
 774 700 l 1,12,-1
 593 0 l 1,0,-1
EndSplineSet
EndChar

StartChar: X
Encoding: 88 88 57
Width: 581
Flags: HMW
HStem: 0 21G<35 60 35 35 520 520> 694 20G
VStem: 54 472<700 700> 55 21
LayerCount: 2
Fore
SplineSet
542 3 m 1,0,-1
 520 0 l 1,1,-1
 289 346 l 1,2,-1
 60 0 l 1,3,-1
 35 0 l 1,4,-1
 278 364 l 1,5,-1
 54 700 l 1,6,-1
 76 700 l 1,7,-1
 289 382 l 1,8,-1
 502 700 l 1,9,-1
 526 700 l 1,10,-1
 302 364 l 1,11,-1
 542 3 l 1,0,-1
EndSplineSet
EndChar

StartChar: Y
Encoding: 89 89 58
Width: 548
Flags: HMW
HStem: 0 21G 694 20G
VStem: 60 19<453 458 458 700> 61 19 484 19<152 342 342 342 405 700>
LayerCount: 2
Fore
SplineSet
399 -7 m 1,0,-1
 393 11 l 1,1,2
 401.5 11 401.5 11 410.25 16 c 128,-1,3
 419 21 419 21 428 25.5 c 128,-1,4
 437 30 437 30 442 34.5 c 128,-1,5
 447 39 447 39 454.5 47 c 128,-1,6
 462 55 462 55 466.5 64.5 c 128,-1,7
 471 74 471 74 475.5 86.5 c 0,8,9
 484 110.111111111 484 110.111111111 484 152 c 2,10,-1
 484 342 l 1,11,12
 454 289 454 289 397 267 c 128,-1,13
 340 245 340 245 289 245 c 0,14,15
 183 245 183 245 121.5 297.5 c 128,-1,16
 60 350 60 350 60 453 c 2,17,-1
 60 700 l 1,18,-1
 79 700 l 1,19,-1
 79 458 l 2,20,21
 79 365 79 365 131 314.5 c 128,-1,22
 183 264 183 264 289 264 c 0,23,24
 369 264 369 264 422 304.5 c 128,-1,25
 475 345 475 345 484 405 c 1,26,-1
 484 700 l 1,27,-1
 503 700 l 1,28,-1
 503 146 l 2,29,30
 503 19 503 19 399 -7 c 1,0,-1
EndSplineSet
EndChar

StartChar: Z
Encoding: 90 90 59
Width: 550
Flags: HMW
HStem: 0 80 634 80
VStem: 31 487<0 19 0 19>
LayerCount: 2
Fore
SplineSet
518 0 m 1,0,-1
 31 0 l 1,1,-1
 31 19 l 1,2,-1
 488 681 l 1,3,-1
 45 681 l 1,4,-1
 44 700 l 1,5,-1
 512 700 l 1,6,-1
 512 681 l 1,7,-1
 55 19 l 1,8,-1
 518 19 l 1,9,-1
 518 0 l 1,0,-1
EndSplineSet
EndChar

StartChar: bracketleft
Encoding: 91 91 60
Width: 319
Flags: HMW
HStem: -198 68 663 68
VStem: 78 19<-95 799 -95 817 -95 817>
LayerCount: 2
Fore
SplineSet
239 -114 m 1,0,-1
 78 -114 l 1,1,-1
 78 817 l 1,2,-1
 239 817 l 1,3,-1
 239 800 l 1,4,-1
 97 799 l 1,5,-1
 97 -95 l 1,6,-1
 239 -96 l 1,7,-1
 239 -114 l 1,0,-1
EndSplineSet
EndChar

StartChar: backslash
Encoding: 92 92 61
Width: 461
Flags: HMW
HStem: -17 21G 711 20G
VStem: 6 456 21 274
LayerCount: 2
Fore
SplineSet
422 -114 m 1,0,-1
 402 -114 l 1,1,-1
 78 817 l 1,2,-1
 98 817 l 1,3,-1
 422 -114 l 1,0,-1
EndSplineSet
EndChar

StartChar: bracketright
Encoding: 93 93 62
Width: 319
Flags: HMW
HStem: -198 68 663 68
VStem: 191 56 220 19<-95 799 799 799>
LayerCount: 2
Fore
SplineSet
239 -114 m 1,0,-1
 78 -114 l 1,1,-1
 78 -96 l 1,2,-1
 220 -95 l 1,3,-1
 220 799 l 1,4,-1
 78 800 l 1,5,-1
 78 817 l 1,6,-1
 239 817 l 1,7,-1
 239 -114 l 1,0,-1
EndSplineSet
EndChar

StartChar: asciicircum
Encoding: 94 94 63
Width: 407
Flags: HMW
HStem: 264 433
VStem: 78 290<758 758>
LayerCount: 2
Fore
SplineSet
353 742 m 1,0,-1
 225 870 l 1,1,-1
 92 743 l 1,2,-1
 78 758 l 1,3,-1
 226 899 l 1,4,-1
 368 758 l 1,5,-1
 353 742 l 1,0,-1
EndSplineSet
EndChar

StartChar: underscore
Encoding: 95 95 64
Width: 514
Flags: HMW
HStem: -125 50
VStem: 76 320<-19 0 -19 0>
LayerCount: 2
Fore
SplineSet
396 -19 m 1,0,-1
 76 -19 l 1,1,-1
 76 0 l 1,2,-1
 396 0 l 1,3,-1
 396 -19 l 1,0,-1
EndSplineSet
EndChar

StartChar: quoteleft
Encoding: 8216 8216 65
Width: 309
Flags: HMW
HStem: 456 111 633 84
VStem: -9 104 -2 30<609 617 609 632.5>
LayerCount: 2
Fore
SplineSet
13 629 m 1,0,-1
 15 629 l 1,1,2
 28 626 28 626 28 612.5 c 0,3,4
 28 599 28 599 13 599 c 128,-1,5
 -2 599 -2 599 -2 614 c 0,6,7
 -2 662 -2 662 59 712 c 1,8,-1
 75 701 l 1,9,10
 50 687 50 687 34.5 669 c 128,-1,11
 19 651 19 651 16 640 c 2,12,-1
 13 629 l 1,0,-1
EndSplineSet
EndChar

StartChar: a
Encoding: 97 97 66
Width: 458
Flags: HMW
HStem: -12 51 490 19<212 318>
VStem: 37 366<169 252 252 288> 56 366<75.5 162 162 249>
LayerCount: 2
Fore
SplineSet
131 29.5 m 128,-1,1
 163 14 163 14 203.660714286 10.3035714286 c 128,-1,2
 244.321428571 6.60714285714 244.321428571 6.60714285714 283.785714286 6.60714285714 c 128,-1,3
 323.25 6.60714285714 323.25 6.60714285714 403 18 c 1,4,-1
 403 323 l 1,5,6
 338.620947631 368.985037406 338.620947631 368.985037406 241.5 381 c 0,7,8
 219.944444444 383.666666667 219.944444444 383.666666667 197.361111111 383.666666667 c 128,-1,9
 174.777777778 383.666666667 174.777777778 383.666666667 152 379.5 c 0,10,11
 111 372 111 372 83.5 338.5 c 128,-1,12
 56 305 56 305 56 249 c 2,13,-1
 56 162 l 2,14,15
 56 112 56 112 77.5 78.5 c 128,-1,0
 99 45 99 45 131 29.5 c 128,-1,1
200.318222222 402.026666667 m 0,16,17
 315.543739837 402.026666667 315.543739837 402.026666667 403 346 c 1,18,19
 403 490.162337662 403 490.162337662 224.201256536 490.162337662 c 0,20,21
 218.201298701 490.162337662 218.201298701 490.162337662 212 490 c 1,22,-1
 214 509 l 1,23,24
 295 509 295 509 334 489.5 c 0,25,26
 355 479 355 479 371 468 c 128,-1,27
 387 457 387 457 396 439 c 128,-1,28
 405 421 405 421 411 407.5 c 128,-1,29
 417 394 417 394 419 371 c 0,30,31
 422 336.5 422 336.5 422 298 c 2,32,-1
 422 0 l 1,33,34
 317.792170503 -9.83092731104 317.792170503 -9.83092731104 256.334339872 -9.83092731104 c 0,35,36
 37 -9.83092731104 37 -9.83092731104 37 169 c 2,37,-1
 37 252 l 2,38,39
 37 348 37 348 110 384 c 0,40,41
 146.746666667 402.026666667 146.746666667 402.026666667 200.318222222 402.026666667 c 0,16,17
EndSplineSet
EndChar

StartChar: b
Encoding: 98 98 67
Width: 486
Flags: HMW
HStem: 680 20G<78 97 97 97>
VStem: 78 19<21 457 477 700> 97 350<121 157 157 346 121 457 21 157 121 477 121 700>
LayerCount: 2
Fore
SplineSet
219.7712 6.92 m 0,0,1
 428 6.92 428 6.92 428 156 c 2,2,-1
 428 343 l 2,3,4
 428 410 428 410 390 447 c 128,-1,5
 352 484 352 484 296.5 489 c 0,6,7
 276.678571429 490.785714286 276.678571429 490.785714286 257.176020408 490.785714286 c 0,8,9
 164.571428571 490.785714286 164.571428571 490.785714286 97 457 c 1,10,-1
 97 21 l 1,11,12
 160.901538462 6.92 160.901538462 6.92 219.7712 6.92 c 0,0,1
97 477 m 1,13,14
 164.465659341 508.892857143 164.465659341 508.892857143 242.286401099 508.892857143 c 128,-1,15
 320.107142857 508.892857143 320.107142857 508.892857143 362 490 c 0,16,17
 447 451 447 451 447 346 c 2,18,-1
 447 157 l 2,19,20
 447 58 447 58 369 18 c 0,21,22
 310 -12 310 -12 237 -12 c 128,-1,23
 164 -12 164 -12 78 0 c 1,24,-1
 78 700 l 1,25,-1
 97 700 l 1,26,-1
 97 477 l 1,13,14
EndSplineSet
EndChar

StartChar: c
Encoding: 99 99 68
Width: 383
Flags: HMW
HStem: -12 51 460 69
VStem: 36 19<180 308 308 314 169 405.5>
LayerCount: 2
Fore
SplineSet
81 71 m 128,-1,1
 108 33 108 33 150.672413793 20.6724137931 c 128,-1,2
 193.344827586 8.34482758621 193.344827586 8.34482758621 243.193103448 8.34482758621 c 128,-1,3
 293.04137931 8.34482758621 293.04137931 8.34482758621 353 25 c 1,4,-1
 358 6 l 1,5,6
 294 -11.0666666667 294 -11.0666666667 242 -11.0666666667 c 128,-1,7
 190 -11.0666666667 190 -11.0666666667 139.5 5.46666666667 c 0,8,9
 36 39.3518151815 36 39.3518151815 36 180 c 2,10,-1
 36 308 l 2,11,12
 36 379 36 379 64 427 c 0,13,14
 112.239130435 509.695652174 112.239130435 509.695652174 221.506616257 509.695652174 c 0,15,16
 287.913043478 509.695652174 287.913043478 509.695652174 356 478 c 1,17,-1
 349 458 l 1,18,19
 288.278611632 490.219512195 288.278611632 490.219512195 223.169541939 490.219512195 c 0,20,21
 185.512195122 490.219512195 185.512195122 490.219512195 147.756097561 476.609756098 c 128,-1,22
 110 463 110 463 82.5 420 c 128,-1,23
 55 377 55 377 55 314 c 2,24,-1
 55 169 l 1,25,0
 54 109 54 109 81 71 c 128,-1,1
EndSplineSet
EndChar

StartChar: d
Encoding: 100 100 69
Width: 462
Flags: HMW
HStem: -11 50 0 63 459 50 694 20G
VStem: 53 55 366 56
LayerCount: 2
Fore
SplineSet
281.2288 6.92 m 0,0,1
 340.098461538 6.92 340.098461538 6.92 404 21 c 1,2,-1
 404 457 l 1,3,4
 336.428571429 490.785714286 336.428571429 490.785714286 243.823979592 490.785714286 c 0,5,6
 224.321428571 490.785714286 224.321428571 490.785714286 204.5 489 c 0,7,8
 149 484 149 484 111 447 c 128,-1,9
 73 410 73 410 73 343 c 2,10,-1
 73 156 l 2,11,12
 73 6.92 73 6.92 281.2288 6.92 c 0,0,1
139 490 m 0,13,14
 180.892857143 508.892857143 180.892857143 508.892857143 258.713598901 508.892857143 c 128,-1,15
 336.534340659 508.892857143 336.534340659 508.892857143 404 477 c 1,16,-1
 404 700 l 1,17,-1
 423 700 l 1,18,-1
 423 0 l 1,19,20
 337 -12 337 -12 264 -12 c 128,-1,21
 191 -12 191 -12 132 18 c 0,22,23
 54 58 54 58 54 157 c 2,24,-1
 54 346 l 2,25,26
 54 451 54 451 139 490 c 0,13,14
EndSplineSet
EndChar

StartChar: e
Encoding: 101 101 70
Width: 434
Flags: HMW
HStem: -12 51 230 261<54 254.5> 248 262<54 274.5>
VStem: 35 341<266 339 339 343 343 394> 376 19<266 342 247 343 247 401>
LayerCount: 2
Fore
SplineSet
376 266 m 1,0,-1
 376 343 l 2,1,2
 376 422 376 422 329.5 456.5 c 128,-1,3
 283 491 283 491 217 491 c 128,-1,4
 151 491 151 491 102.5 454.5 c 128,-1,5
 54 418 54 418 54 340 c 2,6,-1
 54 248 l 1,7,-1
 376 266 l 1,0,-1
196.636035892 4.08860759494 m 0,8,9
 275.694350108 4.08860759494 275.694350108 4.08860759494 361 52 c 1,10,-1
 370 35 l 1,11,12
 292.54025974 -12.1038961039 292.54025974 -12.1038961039 208.575324675 -12.1038961039 c 0,13,14
 35 -12.1038961039 35 -12.1038961039 35 134 c 2,15,-1
 35 339 l 2,16,17
 35 420 35 420 85.5 465 c 128,-1,18
 136 510 136 510 219 510 c 128,-1,19
 302 510 302 510 348.5 465.5 c 128,-1,20
 395 421 395 421 395 342 c 2,21,-1
 395 247 l 1,22,-1
 54 230 l 1,23,-1
 54 132 l 2,24,25
 54 66 54 66 96.9683544304 35.0443037975 c 128,-1,26
 139.936708861 4.08860759494 139.936708861 4.08860759494 196.636035892 4.08860759494 c 0,8,9
EndSplineSet
EndChar

StartChar: f
Encoding: 102 102 71
Width: 300
Flags: HMW
HStem: 0 21G<78 97 78 78> 482 19<97 240 97 248> 690 17<258 261>
VStem: 78 19<0 482 501 549>
LayerCount: 2
Fore
SplineSet
97 0 m 1,0,-1
 78 0 l 1,1,-1
 78 549 l 2,2,3
 78 599 78 599 95 635 c 128,-1,4
 112 671 112 671 138.5 686.5 c 0,5,6
 181.094549499 711.413793103 181.094549499 711.413793103 226.336504162 711.413793103 c 0,7,8
 243.896551724 711.413793103 243.896551724 711.413793103 261 707 c 1,9,-1
 258 690 l 1,10,11
 244.295454545 691.840909091 244.295454545 691.840909091 231.42768595 691.840909091 c 0,12,13
 181.386363636 691.840909091 181.386363636 691.840909091 144 664 c 0,14,15
 97 629 97 629 97 549 c 2,16,-1
 97 501 l 1,17,-1
 248 501 l 1,18,-1
 240 482 l 1,19,-1
 97 482 l 1,20,-1
 97 0 l 1,0,-1
EndSplineSet
EndChar

StartChar: g
Encoding: 103 103 72
Width: 448
Flags: HMW
HStem: -210 18<301 307> -12 503<200 258> 6 504<173 257.5>
VStem: 37 358<176 325 325 384.5> 395 19<-63 75 75 75 160 397 397 397 437 501>
LayerCount: 2
Fore
SplineSet
395 160 m 2,0,-1
 395 397 l 1,1,2
 358 491 358 491 230 491 c 0,3,4
 148.833333333 491 148.833333333 491 99.5 443 c 0,5,6
 81 425 81 425 68.5 393 c 128,-1,7
 56 361 56 361 56 320 c 2,8,-1
 56 167 l 2,9,10
 56 95 56 95 98.5 50.5 c 128,-1,11
 141 6 141 6 223 6 c 0,12,13
 314.178082192 6 314.178082192 6 365.5 69.5 c 0,14,15
 395 106 395 106 395 160 c 2,0,-1
307 -210 m 1,16,-1
 301 -192 l 1,17,18
 324 -183 324 -183 335.5 -177 c 128,-1,19
 347 -171 347 -171 363.5 -157 c 0,20,21
 395 -130.272727273 395 -130.272727273 395 -63 c 2,22,-1
 395 75 l 1,23,24
 337 -12 337 -12 223 -12 c 0,25,26
 135 -12 135 -12 86 36 c 128,-1,27
 37 84 37 84 37 176 c 2,28,-1
 37 325 l 2,29,30
 37 413 37 413 90 461.5 c 128,-1,31
 143 510 143 510 230 510 c 0,32,33
 343 510 343 510 395 437 c 1,34,-1
 395 501 l 1,35,-1
 414 501 l 1,36,-1
 414 -64 l 2,37,38
 414 -124 414 -124 389 -158 c 128,-1,39
 364 -192 364 -192 307 -210 c 1,16,-1
EndSplineSet
EndChar

StartChar: h
Encoding: 104 104 73
Width: 493
Flags: HMW
HStem: 0 21G<64 83 64 64 414 433 414 414> 454 21<83 83> 460 49 694 20G
VStem: 64 19<0 454 475 700> 414 19<0 346>
LayerCount: 2
Fore
SplineSet
83 475 m 1,0,1
 151.458333333 510.333333333 151.458333333 510.333333333 229.284722222 510.333333333 c 128,-1,2
 307.111111111 510.333333333 307.111111111 510.333333333 348 489 c 1,3,4
 433 450 433 450 433 346 c 2,5,-1
 433 0 l 1,6,-1
 414 0 l 1,7,-1
 414 347 l 2,8,9
 414 408 414 408 378.5 444.5 c 128,-1,10
 343 481 343 481 291 488 c 0,11,12
 268.25 491.0625 268.25 491.0625 244.734375 491.0625 c 0,13,14
 153.902173913 491.0625 153.902173913 491.0625 83 454 c 1,15,-1
 83 0 l 1,16,-1
 64 0 l 1,17,-1
 64 700 l 1,18,-1
 83 700 l 1,19,-1
 83 475 l 1,0,1
EndSplineSet
EndChar

StartChar: i
Encoding: 105 105 74
Width: 185
Flags: HMW
HStem: 0 21G<82 101 82 82> 610 104
VStem: 82 19<0 501>
LayerCount: 2
Fore
SplineSet
91.5 683 m 0,0,1
 78 683 78 683 78 696.5 c 0,2,3
 78 710 78 710 91.5 710 c 0,4,5
 105 710 105 710 105 696.5 c 0,6,7
 105 683 105 683 91.5 683 c 0,0,1
101 0 m 1,8,-1
 82 0 l 1,9,-1
 82 501 l 1,10,-1
 101 501 l 1,11,-1
 101 0 l 1,8,-1
EndSplineSet
EndChar

StartChar: j
Encoding: 106 106 75
Width: 196
Flags: HMW
HStem: -209 18 457 52 654 67
VStem: -139 21 86 19<-82 482 482 482>
LayerCount: 2
Fore
SplineSet
95.5 683 m 128,-1,1
 82 683 82 683 82 696.5 c 128,-1,2
 82 710 82 710 95.5 710 c 128,-1,3
 109 710 109 710 109 696.5 c 128,-1,0
 109 683 109 683 95.5 683 c 128,-1,1
86 -82 m 2,4,-1
 86 482 l 1,5,-1
 11 482 l 1,6,-1
 0 501 l 1,7,-1
 105 501 l 1,8,-1
 105 -83 l 2,9,10
 105 -193 105 -193 0 -209 c 1,11,-1
 -3 -191 l 1,12,13
 8.38461538462 -191 8.38461538462 -191 25.6923076923 -183.5 c 128,-1,14
 43 -176 43 -176 55 -165.5 c 128,-1,15
 67 -155 67 -155 76.5 -133 c 128,-1,16
 86 -111 86 -111 86 -82 c 2,4,-1
EndSplineSet
EndChar

StartChar: k
Encoding: 107 107 76
Width: 438
Flags: HMW
HStem: 0 21G<67 86 67 67 411 434 411 411> 500 20G<323 323> 694 20G
VStem: 67 19<0 277 301 700>
LayerCount: 2
Fore
SplineSet
434 0 m 1,0,-1
 411 0 l 1,1,-1
 185 366 l 1,2,-1
 86 277 l 1,3,-1
 86 0 l 1,4,-1
 67 0 l 1,5,-1
 67 700 l 1,6,-1
 86 700 l 1,7,-1
 86 301 l 1,8,-1
 323 520 l 1,9,-1
 337 507 l 1,10,-1
 199 380 l 1,11,12
 305 204 305 204 434 0 c 1,0,-1
EndSplineSet
EndChar

StartChar: l
Encoding: 108 108 77
Width: 177
Flags: HMW
HStem: 0 21G<78 97 78 78> 694 20G
VStem: 78 19<0 700>
LayerCount: 2
Fore
SplineSet
97 0 m 1,0,-1
 78 0 l 1,1,-1
 78 700 l 1,2,-1
 97 700 l 1,3,-1
 97 0 l 1,0,-1
EndSplineSet
EndChar

StartChar: m
Encoding: 109 109 78
Width: 741
Flags: HMW
HStem: 0 21G<78 97 78 78 384 403 384 384 683 702 683 683> 454 75
VStem: 78 19<0 454 476 501> 384 19<0 333 0 376> 683 19<0 344 344 346>
LayerCount: 2
Fore
SplineSet
702 0 m 1,0,-1
 683 0 l 1,1,-1
 683 344 l 2,2,3
 683 397 683 397 661.5 432 c 128,-1,4
 640 467 640 467 609.2734375 478.1328125 c 128,-1,5
 578.546875 489.265625 578.546875 489.265625 558.5625 489.265625 c 0,6,7
 496.9578125 489.265625 496.9578125 489.265625 446 465 c 1,8,-1
 392 438 l 1,9,10
 403 420 403 420 403 333 c 2,11,-1
 403 0 l 1,12,-1
 384 0 l 1,13,-1
 384 376 l 2,14,15
 384 429 384 429 351.5 457.5 c 0,16,17
 314.757894737 489.72 314.757894737 489.72 249.44 489.72 c 1,18,-1
 178 482.5 l 1,19,20
 131 473 131 473 97 454 c 1,21,-1
 97 0 l 1,22,-1
 78 0 l 1,23,-1
 78 501 l 1,24,-1
 97 501 l 1,25,-1
 97 476 l 1,26,27
 169.857142857 509.428571429 169.857142857 509.428571429 242.714285714 509.428571429 c 1,28,-1
 267 508.5 l 1,29,30
 352 502 352 502 384 454 c 1,31,32
 405 466 405 466 451.494382022 488.54494382 c 128,-1,33
 497.988764045 511.08988764 497.988764045 511.08988764 543.185393258 511.08988764 c 128,-1,34
 588.382022472 511.08988764 588.382022472 511.08988764 623 494 c 0,35,36
 702 455 702 455 702 346 c 2,37,-1
 702 0 l 1,0,-1
EndSplineSet
EndChar

StartChar: n
Encoding: 110 110 79
Width: 500
Flags: HMW
HStem: 0 21G<64 83 64 64 414 433 414 414> 472 55
VStem: 64 56 378 55
LayerCount: 2
Fore
SplineSet
83 475 m 1,0,1
 151.458333333 510.333333333 151.458333333 510.333333333 229.284722222 510.333333333 c 128,-1,2
 307.111111111 510.333333333 307.111111111 510.333333333 348 489 c 1,3,4
 433 450 433 450 433 346 c 2,5,-1
 433 0 l 1,6,-1
 414 0 l 1,7,-1
 414 347 l 2,8,9
 414 407 414 407 378.5 443 c 0,10,11
 331.39869281 490.764705882 331.39869281 490.764705882 242.365586814 490.764705882 c 128,-1,12
 153.332480818 490.764705882 153.332480818 490.764705882 83 454 c 1,13,-1
 83 0 l 1,14,-1
 64 0 l 1,15,-1
 64 501 l 1,16,-1
 83 501 l 1,17,-1
 83 475 l 1,0,1
EndSplineSet
EndChar

StartChar: o
Encoding: 111 111 80
Width: 461
Flags: HMW
HStem: -10 503<191.5 280.5 191.5 303> 8 504<176.5 295 176.5 297>
VStem: 49 354<184 316 316 320 320 379> 68 354<141 184 184 316 133 320>
LayerCount: 2
Fore
SplineSet
403 184 m 2,0,-1
 403 320 l 2,1,2
 403 406 403 406 355.5 449.5 c 128,-1,3
 308 493 308 493 236 493 c 0,4,5
 164 493 164 493 116 449.5 c 128,-1,6
 68 406 68 406 68 320 c 2,7,-1
 68 184 l 2,8,9
 68 111 68 111 109 59.5 c 128,-1,10
 150 8 150 8 235.5 8 c 0,11,12
 321 8 321 8 362 58.5 c 128,-1,13
 403 109 403 109 403 184 c 2,0,-1
422 316 m 2,14,-1
 422 184 l 2,15,16
 422 100 422 100 376 45 c 128,-1,17
 330 -10 330 -10 237 -10 c 128,-1,18
 144 -10 144 -10 96.5 45.5 c 128,-1,19
 49 101 49 101 49 184 c 2,20,-1
 49 316 l 2,21,22
 49 411 49 411 97.5 461.5 c 128,-1,23
 146 512 146 512 235 512 c 0,24,25
 324 512 324 512 373 459.5 c 128,-1,26
 422 407 422 407 422 316 c 2,14,-1
EndSplineSet
EndChar

StartChar: p
Encoding: 112 112 81
Width: 494
Flags: HMW
HStem: -198 21G -12 75 454 63 454 75
VStem: 78 56 167 21 399 56
LayerCount: 2
Fore
SplineSet
436 166 m 2,0,-1
 436 318 l 2,1,2
 436 368 436 368 418.5 404 c 128,-1,3
 401 440 401 440 372 457.5 c 0,4,5
 318.142857143 490 318.142857143 490 253 490 c 0,6,7
 172.666666667 490 172.666666667 490 126 444.5 c 0,8,9
 106 425 106 425 97 397 c 1,10,-1
 97 156 l 2,11,12
 97 87 97 87 143.5 47 c 128,-1,13
 190 7 190 7 269 7 c 0,14,15
 358.48 7 358.48 7 407.5 71.5 c 0,16,17
 436 109 436 109 436 166 c 2,0,-1
97 -210 m 1,18,-1
 78 -203 l 1,19,-1
 78 501 l 1,20,-1
 97 501 l 1,21,-1
 97 441 l 1,22,23
 123 477 123 477 166.5 493 c 128,-1,24
 210 509 210 509 252 509 c 0,25,26
 354 509 354 509 404.5 455 c 128,-1,27
 455 401 455 401 455 314 c 2,28,-1
 455 176 l 2,29,30
 455 85 455 85 402.5 36.5 c 128,-1,31
 350 -12 350 -12 266 -12 c 0,32,33
 142 -12 142 -12 97 77 c 1,34,-1
 97 -210 l 1,18,-1
EndSplineSet
EndChar

StartChar: q
Encoding: 113 113 82
Width: 448
Flags: HMW
HStem: -198 21G -12 75 454 63
VStem: -56 21 37 358<176 314 314 368.5> 395 19<-203 77 77 77 156 397 397 397 441 501>
LayerCount: 2
Fore
SplineSet
395 156 m 2,0,-1
 395 397 l 1,1,2
 386 425 386 425 366 444.5 c 128,-1,3
 346 464 346 464 322 473.5 c 0,4,5
 280.315789474 490 280.315789474 490 244.657894737 490 c 128,-1,6
 209 490 209 490 179.5 482 c 128,-1,7
 150 474 150 474 121 455.5 c 128,-1,8
 92 437 92 437 74 401.5 c 128,-1,9
 56 366 56 366 56 318 c 2,10,-1
 56 166 l 2,11,12
 56 109 56 109 84.5 71.5 c 0,13,14
 133.52 7 133.52 7 217.76 7 c 128,-1,15
 302 7 302 7 348.5 47 c 128,-1,16
 395 87 395 87 395 156 c 2,0,-1
414 -210 m 1,17,-1
 395 -203 l 1,18,-1
 395 77 l 1,19,20
 350 -12 350 -12 226 -12 c 0,21,22
 142 -12 142 -12 89.5 36.5 c 128,-1,23
 37 85 37 85 37 176 c 2,24,-1
 37 314 l 2,25,26
 37 401 37 401 87.5 455 c 128,-1,27
 138 509 138 509 240 509 c 0,28,29
 282 509 282 509 325.5 493 c 128,-1,30
 369 477 369 477 395 441 c 1,31,-1
 395 501 l 1,32,-1
 414 501 l 1,33,-1
 414 -210 l 1,17,-1
EndSplineSet
EndChar

StartChar: r
Encoding: 114 114 83
Width: 332
Flags: HMW
HStem: 0 21G<61 80 61 61> 439 90 497 20G
VStem: 61 19<0 399 448 501>
LayerCount: 2
Fore
SplineSet
80 0 m 1,0,-1
 61 0 l 1,1,-1
 61 501 l 1,2,-1
 80 501 l 1,3,-1
 80 448 l 1,4,5
 138.434782609 509.356521739 138.434782609 509.356521739 234.750548204 509.356521739 c 0,6,7
 270.295652174 509.356521739 270.295652174 509.356521739 311 501 c 1,8,-1
 305 480 l 1,9,10
 268.214953271 490.76635514 268.214953271 490.76635514 229.570093458 490.76635514 c 0,11,12
 190.925233645 490.76635514 190.925233645 490.76635514 151.5 474.5 c 0,13,14
 80 445 80 445 80 399 c 2,15,-1
 80 0 l 1,0,-1
EndSplineSet
EndChar

StartChar: s
Encoding: 115 115 84
Width: 431
Flags: HMW
HStem: 454 75
VStem: 36 19<127 127> 54 19 322 9 377 19<90 200.5>
LayerCount: 2
Fore
SplineSet
322 466 m 1,0,1
 274.269850746 493.119402985 274.269850746 493.119402985 215.261791045 493.119402985 c 128,-1,2
 156.253731343 493.119402985 156.253731343 493.119402985 114.280711825 464.377009185 c 128,-1,3
 72.3076923077 435.634615385 72.3076923077 435.634615385 72.3076923077 384.684171598 c 0,4,5
 72.3076923077 340.301003344 72.3076923077 340.301003344 108.653846154 317.650501672 c 128,-1,6
 145 295 145 295 192 281.5 c 128,-1,7
 239 268 239 268 285.5 252 c 128,-1,8
 332 236 332 236 364 204.5 c 128,-1,9
 396 173 396 173 396 119.5 c 128,-1,10
 396 66 396 66 351.5 25.5 c 128,-1,11
 307 -15 307 -15 221.5 -15 c 128,-1,12
 136 -15 136 -15 87 26 c 128,-1,13
 38 67 38 67 36 127 c 1,14,-1
 55 127 l 1,15,16
 59 76 59 76 101 40 c 128,-1,17
 143 4 143 4 217 4 c 128,-1,18
 291 4 291 4 334 38 c 128,-1,19
 377 72 377 72 377 119 c 128,-1,20
 377 166 377 166 345.5 194 c 128,-1,21
 314 222 314 222 268.5 236.5 c 128,-1,22
 223 251 223 251 176.5 265 c 0,23,24
 62.8912450772 299.204786428 62.8912450772 299.204786428 54 365 c 0,25,26
 52.693877551 373.979591837 52.693877551 373.979591837 52.693877551 382.732611412 c 0,27,28
 52.693877551 427.591836735 52.693877551 427.591836735 90.3469387755 470.295918367 c 128,-1,29
 128 513 128 513 219 513 c 0,30,31
 250 513 250 513 278 505.5 c 128,-1,32
 306 498 306 498 318.5 490.5 c 2,33,-1
 331 483 l 1,34,-1
 322 466 l 1,0,1
EndSplineSet
EndChar

StartChar: t
Encoding: 116 116 85
Width: 243
Flags: HMW
HStem: 0 75 442 75
VStem: -580 401 44 85
LayerCount: 2
Fore
SplineSet
156 5 m 1,0,-1
 150 -13 l 1,1,2
 94 3 94 3 69 38 c 128,-1,3
 44 73 44 73 44 132 c 2,4,-1
 44 700 l 1,5,-1
 63 700 l 1,6,-1
 63 501 l 1,7,-1
 220 501 l 1,8,-1
 211 482 l 1,9,-1
 63 482 l 1,10,-1
 63 132 l 2,11,12
 63 77 63 77 84.5 49 c 128,-1,13
 106 21 106 21 156 5 c 1,0,-1
EndSplineSet
EndChar

StartChar: u
Encoding: 117 117 86
Width: 447
Flags: HMW
HStem: -12 75 497 20G
VStem: 36 19<176 501> 390 19<0 78 78 78 160 501>
LayerCount: 2
Fore
SplineSet
409 0 m 1,0,-1
 390 0 l 1,1,-1
 390 78 l 1,2,3
 340 -11 340 -11 224 -11 c 0,4,5
 36 -11 36 -11 36 176 c 2,6,-1
 36 501 l 1,7,-1
 55 501 l 1,8,-1
 55 176 l 2,9,10
 55 95 55 95 94 52 c 128,-1,11
 133 9 133 9 214.5 9 c 0,12,13
 296 9 296 9 343 50 c 128,-1,14
 390 91 390 91 390 160 c 2,15,-1
 390 501 l 1,16,-1
 409 501 l 1,17,-1
 409 0 l 1,0,-1
EndSplineSet
EndChar

StartChar: v
Encoding: 118 118 87
Width: 430
Flags: HMW
HStem: 0 86 497 20G
VStem: 18 385<501 501> 205 21
LayerCount: 2
Fore
SplineSet
217 0 m 1,0,-1
 204 0 l 1,1,-1
 18 501 l 1,2,-1
 37 501 l 1,3,-1
 210 37 l 1,4,-1
 384 501 l 1,5,-1
 403 501 l 1,6,-1
 217 0 l 1,0,-1
EndSplineSet
EndChar

StartChar: w
Encoding: 119 119 88
Width: 697
Flags: HMW
HStem: 0 94 411 106 497 20G
VStem: 18 629<501 501>
LayerCount: 2
Fore
SplineSet
479 0 m 1,0,-1
 466 0 l 1,1,-1
 332 455 l 1,2,-1
 199 0 l 1,3,-1
 187 0 l 1,4,-1
 18 501 l 1,5,-1
 38 501 l 1,6,-1
 191 37 l 1,7,-1
 326 501 l 1,8,-1
 337 501 l 1,9,-1
 473 38 l 1,10,-1
 627 501 l 1,11,-1
 647 501 l 1,12,-1
 479 0 l 1,0,-1
EndSplineSet
EndChar

StartChar: x
Encoding: 120 120 89
Width: 443
Flags: HMW
HStem: 0 21G<55 77 55 55 365 386 365 365> 272 21G 279 21G 497 20G
VStem: 61 328<501 501>
LayerCount: 2
Fore
SplineSet
386 0 m 1,0,-1
 365 0 l 1,1,-1
 224 234 l 1,2,-1
 77 0 l 1,3,-1
 55 0 l 1,4,-1
 213 251 l 1,5,-1
 61 501 l 1,6,-1
 84 501 l 1,7,-1
 224 266 l 1,8,-1
 367 501 l 1,9,-1
 389 501 l 1,10,-1
 236 250 l 1,11,-1
 386 0 l 1,0,-1
EndSplineSet
EndChar

StartChar: y
Encoding: 121 121 90
Width: 473
Flags: HMW
HStem: -207 75 497 20G
VStem: 37 375<176 404> 126 21
LayerCount: 2
Fore
SplineSet
307 -210 m 1,0,-1
 301 -192 l 1,1,2
 394 -168 394 -168 394 -63 c 2,3,-1
 394 87 l 1,4,5
 367 33 367 33 318 10.5 c 128,-1,6
 269 -12 269 -12 220 -12 c 0,7,8
 132 -12 132 -12 84.5 35.5 c 128,-1,9
 37 83 37 83 37 176 c 2,10,-1
 37 501 l 1,11,-1
 56 501 l 1,12,-1
 56 166 l 2,13,14
 56 94 56 94 95.5 50.5 c 128,-1,15
 135 7 135 7 216 7 c 0,16,17
 297 7 297 7 345 52 c 128,-1,18
 393 97 393 97 393 166 c 2,19,-1
 393 373 l 2,20,21
 393 434 393 434 399.5 465 c 128,-1,22
 406 496 406 496 431 510 c 1,23,-1
 439 494 l 1,24,25
 412 474 412 474 412 404 c 2,26,-1
 412 -61 l 2,27,28
 412 -122 412 -122 388 -157 c 128,-1,29
 364 -192 364 -192 307 -210 c 1,0,-1
EndSplineSet
EndChar

StartChar: z
Encoding: 122 122 91
Width: 484
Flags: HMW
HStem: 0 75 442 75
VStem: 87 358
LayerCount: 2
Fore
SplineSet
445 0 m 1,0,-1
 78 0 l 1,1,-1
 78 19 l 1,2,-1
 401 482 l 1,3,-1
 87 482 l 1,4,-1
 87 501 l 1,5,-1
 424 501 l 1,6,-1
 424 482 l 1,7,-1
 101 19 l 1,8,-1
 445 19 l 1,9,-1
 445 0 l 1,0,-1
EndSplineSet
EndChar

StartChar: braceleft
Encoding: 123 123 92
Width: 305
Flags: HMW
HStem: -116 17<258 266> 232 68 802 20G<256 256>
VStem: 78 26<354 354> 152 19<101 247 247 253> 324 21
LayerCount: 2
Fore
SplineSet
266 -99 m 1,0,-1
 258 -116 l 1,1,2
 193 -79 193 -79 172.5 -36.5 c 128,-1,3
 152 6 152 6 152 101 c 2,4,-1
 152 247 l 2,5,6
 152 266 152 266 136 290.5 c 128,-1,7
 120 315 120 315 109.5 325 c 128,-1,8
 99 335 99 335 78 354 c 1,9,10
 102 373 102 373 126 404 c 128,-1,11
 150 435 150 435 150 462 c 2,12,-1
 150 620 l 2,13,14
 150 703 150 703 171 744 c 128,-1,15
 192 785 192 785 256 822 c 1,16,-1
 263 805 l 1,17,18
 243.285714286 795.142857143 243.285714286 795.142857143 233.642857143 786.571428571 c 128,-1,19
 224 778 224 778 211.5 767.5 c 128,-1,20
 199 757 199 757 194 746.5 c 128,-1,21
 189 736 189 736 182 720.5 c 0,22,23
 169 691.714285714 169 691.714285714 169 641 c 2,24,-1
 169 456 l 2,25,26
 169 419 169 419 104 354 c 1,27,28
 116.5 341.5 116.5 341.5 125.25 332.75 c 128,-1,29
 134 324 134 324 143.5 313 c 128,-1,30
 153 302 153 302 158 293.5 c 0,31,32
 171 271.4 171 271.4 171 253 c 2,33,-1
 171 76 l 2,34,35
 171 6 171 6 191.5 -32 c 128,-1,36
 212 -70 212 -70 266 -99 c 1,0,-1
EndSplineSet
EndChar

StartChar: bar
Encoding: 124 124 93
Width: 176
Flags: HMW
HStem: -214 1000
VStem: 78 18<-114 817>
LayerCount: 2
Fore
SplineSet
96 -114 m 1,0,-1
 78 -114 l 1,1,-1
 78 817 l 1,2,-1
 96 817 l 1,3,-1
 96 -114 l 1,0,-1
EndSplineSet
EndChar

StartChar: braceright
Encoding: 125 125 94
Width: 305
Flags: HMW
HStem: -116 17<78 86> -116 37 232 68 253 203<173 175> 785 37
VStem: -1 21 173 19<76 101 101 247> 198 60 240 26<354 354>
LayerCount: 2
Fore
SplineSet
86 -116 m 1,0,-1
 78 -99 l 1,1,2
 132 -70 132 -70 152.5 -32 c 128,-1,3
 173 6 173 6 173 76 c 2,4,-1
 173 253 l 2,5,6
 173 287 173 287 215 329 c 2,7,-1
 240 354 l 1,8,9
 175 419 175 419 175 456 c 2,10,-1
 175 641 l 2,11,12
 175 691.714285714 175 691.714285714 165 713.857142857 c 128,-1,13
 155 736 155 736 150 746.5 c 128,-1,14
 145 757 145 757 132.5 767.5 c 128,-1,15
 120 778 120 778 115.5 782 c 0,16,17
 100.714285714 795.142857143 100.714285714 795.142857143 81 805 c 1,18,-1
 88 822 l 1,19,20
 152 785 152 785 173 744 c 128,-1,21
 194 703 194 703 194 620 c 2,22,-1
 194 462 l 2,23,24
 194 435 194 435 218 404 c 128,-1,25
 242 373 242 373 266 354 c 1,26,27
 245 335 245 335 234.5 325 c 128,-1,28
 224 315 224 315 208 290.5 c 128,-1,29
 192 266 192 266 192 247 c 2,30,-1
 192 101 l 2,31,32
 192 6 192 6 171.5 -36.5 c 128,-1,33
 151 -79 151 -79 86 -116 c 1,0,-1
EndSplineSet
EndChar

StartChar: asciitilde
Encoding: 126 126 95
Width: 508
Flags: HMW
HStem: 183 98 297 81
VStem: 83 401
LayerCount: 2
Fore
SplineSet
189.027959548 375.12195122 m 0,0,1
 214.414634146 375.12195122 214.414634146 375.12195122 246.207317073 365.06097561 c 128,-1,2
 278 355 278 355 313.548387097 342.370967742 c 128,-1,3
 349.096774194 329.741935484 349.096774194 329.741935484 388.994623656 329.741935484 c 128,-1,4
 428.892473118 329.741935484 428.892473118 329.741935484 459 362 c 1,5,-1
 469 344 l 1,6,7
 432.08125 310.4375 432.08125 310.4375 379.712890625 310.4375 c 0,8,9
 346.78125 310.4375 346.78125 310.4375 311.890625 322.21875 c 128,-1,10
 277 334 277 334 246 343.789473684 c 128,-1,11
 215 353.578947368 215 353.578947368 190.40166205 353.578947368 c 0,12,13
 130.514619883 353.578947368 130.514619883 353.578947368 90 308 c 1,14,-1
 78 325 l 1,15,16
 122.981238274 375.12195122 122.981238274 375.12195122 189.027959548 375.12195122 c 0,0,1
EndSplineSet
EndChar

StartChar: exclamdown
Encoding: 161 161 96
Width: 190
Flags: HMW
HStem: -198 21G 0 127 406 111
VStem: 78 32<12 18 12 18> 87 15<590 590>
LayerCount: 2
Fore
SplineSet
94 680 m 128,-1,1
 88 680 88 680 83.5 684.5 c 128,-1,2
 79 689 79 689 79 695 c 128,-1,3
 79 701 79 701 83.5 705.5 c 128,-1,4
 88 710 88 710 94 710 c 128,-1,5
 100 710 100 710 104.5 705.5 c 128,-1,6
 109 701 109 701 109 695 c 128,-1,7
 109 689 109 689 104.5 684.5 c 128,-1,0
 100 680 100 680 94 680 c 128,-1,1
78 18 m 2,8,-1
 87 590 l 1,9,-1
 102 590 l 1,10,-1
 110 18 l 2,11,12
 110 0 110 0 95 0 c 0,13,14
 89 0 89 0 83.5 4.5 c 128,-1,15
 78 9 78 9 78 18 c 2,8,-1
EndSplineSet
EndChar

StartChar: cent
Encoding: 162 162 97
Width: 439
Flags: HMW
HStem: -12 75 454 75
VStem: 78 19<180 308 308 314 169 375> 88 90 256 17<-114 -10 8 490 510 623> 314 39
LayerCount: 2
Fore
SplineSet
256 8 m 1,0,-1
 256 490 l 1,1,2
 186 487 186 487 141.5 442.5 c 128,-1,3
 97 398 97 398 97 314 c 2,4,-1
 97 169 l 1,5,6
 96 90 96 90 139.5 51.5 c 128,-1,7
 183 13 183 13 256 8 c 1,0,-1
273 -114 m 1,8,-1
 256 -114 l 1,9,-1
 256 -9 l 1,10,11
 222 -8 222 -8 190 2 c 0,12,13
 131 22 131 22 104.5 63.5 c 128,-1,14
 78 105 78 105 78 180 c 2,15,-1
 78 308 l 2,16,17
 78 404 78 404 127.5 456 c 128,-1,18
 177 508 177 508 256 510 c 1,19,-1
 256 623 l 1,20,-1
 273 623 l 1,21,-1
 273 510 l 1,22,23
 334 507 334 507 398 478 c 1,24,-1
 391 458 l 1,25,26
 333 488 333 488 273 490 c 1,27,-1
 273 8 l 1,28,29
 275.894736842 7.94736842105 275.894736842 7.94736842105 278.822714681 7.94736842105 c 0,30,31
 331.526315789 7.94736842105 331.526315789 7.94736842105 395 25 c 1,32,-1
 400 6 l 1,33,34
 336.722222222 -10.0555555556 336.722222222 -10.0555555556 279.688271605 -10.0555555556 c 0,35,36
 276.333333333 -10.0555555556 276.333333333 -10.0555555556 273 -10 c 1,37,-1
 273 -114 l 1,8,-1
EndSplineSet
EndChar

StartChar: fraction
Encoding: 8260 8260 98
Width: 460
Flags: HMW
HStem: 705 20G
VStem: 20 499
LayerCount: 2
Fore
SplineSet
98 -114 m 1,0,-1
 78 -114 l 1,1,-1
 402 817 l 1,2,-1
 421 817 l 1,3,-1
 98 -114 l 1,0,-1
EndSplineSet
EndChar

StartChar: yen
Encoding: 165 165 99
Width: 559
Flags: HMW
HStem: 0 21G<274 292 274 274> 174 60 309 60 694 20G
VStem: -134 21 125 320<276 295 276 295 340 359 276 359> 232 95
LayerCount: 2
Fore
SplineSet
292 0 m 1,0,-1
 274 0 l 1,1,-1
 274 276 l 1,2,-1
 125 276 l 1,3,-1
 125 295 l 1,4,-1
 274 295 l 1,5,-1
 274 340 l 1,6,-1
 125 340 l 1,7,-1
 125 359 l 1,8,-1
 263 359 l 1,9,-1
 48 700 l 1,10,-1
 71 700 l 1,11,-1
 283 362 l 1,12,-1
 497 700 l 1,13,-1
 520 700 l 1,14,-1
 303 359 l 1,15,-1
 445 359 l 1,16,-1
 445 340 l 1,17,-1
 292 340 l 1,18,-1
 292 295 l 1,19,-1
 445 295 l 1,20,-1
 445 276 l 1,21,-1
 292 276 l 1,22,-1
 292 0 l 1,0,-1
EndSplineSet
EndChar

StartChar: section
Encoding: 167 167 100
Width: 592
Flags: HMW
HStem: -198 75 656 75
VStem: 76 82 124 85 137 88 421 85 424 88 475 82
LayerCount: 2
Fore
SplineSet
515 104 m 1,0,1
 516 108 516 108 521.5 120 c 0,2,3
 552.792924528 188.275471698 552.792924528 188.275471698 500.5 245 c 0,4,5
 471 277 471 277 424 298 c 128,-1,6
 377 319 377 319 327.5 336.5 c 0,7,8
 196.429164197 382.838174274 196.429164197 382.838174274 142 432 c 1,9,10
 114 404 114 404 117.5 361.5 c 128,-1,11
 121 319 121 319 153 290.5 c 128,-1,12
 185 262 185 262 233.5 244 c 128,-1,13
 282 226 282 226 333 209.5 c 0,14,15
 464.682539683 166.896825397 464.682539683 166.896825397 515 104 c 1,0,1
78 -8 m 1,16,-1
 97 -8 l 1,17,18
 101 -81 101 -81 160 -129.5 c 128,-1,19
 219 -178 219 -178 318 -178 c 128,-1,20
 417 -178 417 -178 476 -130 c 128,-1,21
 535 -82 535 -82 535 0 c 0,22,23
 535 62 535 62 492 104.5 c 128,-1,24
 449 147 449 147 386 170 c 128,-1,25
 323 193 323 193 260 214 c 128,-1,26
 197 235 197 235 150.5 269.5 c 0,27,28
 98.358974359 308.185277089 98.358974359 308.185277089 98.358974359 366.225509533 c 0,29,30
 98.358974359 407.512820513 98.358974359 407.512820513 128 445 c 1,31,32
 96 485 96 485 96 547.5 c 128,-1,33
 96 610 96 610 154 661 c 128,-1,34
 212 712 212 712 321 712 c 0,35,36
 404 712 404 712 467 682 c 1,37,-1
 460 665 l 1,38,39
 402 695 402 695 319.5 695 c 128,-1,40
 237 695 237 695 175.489130435 656.681753386 c 128,-1,41
 113.97826087 618.363506771 113.97826087 618.363506771 113.97826087 535.615784499 c 0,42,43
 113.97826087 482.130434783 113.97826087 482.130434783 158.489130435 442.565217391 c 128,-1,44
 203 403 203 403 267 379 c 128,-1,45
 331 355 331 355 395.5 330.5 c 128,-1,46
 460 306 460 306 505 266.5 c 128,-1,47
 550 227 550 227 551 171 c 0,48,49
 551 136 551 136 527 91 c 1,50,51
 553 51 553 51 553 6 c 0,52,53
 553 -85 553 -85 492 -141 c 128,-1,54
 431 -197 431 -197 318 -197 c 128,-1,55
 205 -197 205 -197 142.5 -139.5 c 128,-1,56
 80 -82 80 -82 78 -8 c 1,16,-1
EndSplineSet
EndChar

StartChar: currency
Encoding: 164 164 101
Width: 468
Flags: HMW
HStem: 101 75 524 75
VStem: 4 85 419 85
LayerCount: 2
Fore
SplineSet
363 213.5 m 128,-1,1
 408 258 408 258 408 322.5 c 128,-1,2
 408 387 408 387 362.5 432.5 c 128,-1,3
 317 478 317 478 252.5 478 c 128,-1,4
 188 478 188 478 142.5 432 c 128,-1,5
 97 386 97 386 97 322 c 128,-1,6
 97 258 97 258 142.5 213.5 c 128,-1,7
 188 169 188 169 253 169 c 128,-1,0
 318 169 318 169 363 213.5 c 128,-1,1
402 159 m 1,8,-1
 369 192 l 1,9,10
 325 148 325 148 253.5 148 c 128,-1,11
 182 148 182 148 135 192 c 1,12,-1
 105 158 l 1,13,-1
 90 173 l 1,14,-1
 121 206 l 1,15,16
 78 254 78 254 78 322.5 c 128,-1,17
 78 391 78 391 121 440 c 1,18,-1
 92 471 l 1,19,-1
 106 485 l 1,20,-1
 135 454 l 1,21,22
 157 474 157 474 189.5 486.5 c 128,-1,23
 222 499 222 499 253 499 c 0,24,25
 326 499 326 499 371 454 c 1,26,-1
 401 485 l 1,27,-1
 414 470 l 1,28,-1
 385 439 l 1,29,30
 429 392 429 392 429 323 c 128,-1,31
 429 254 429 254 384 207 c 1,32,-1
 417 174 l 1,33,-1
 402 159 l 1,8,-1
EndSplineSet
EndChar

StartChar: quotesingle
Encoding: 39 39 102
Width: 164
Flags: HMW
HStem: 456 258 694 20G
VStem: 46 29<713 727.5>
LayerCount: 2
Fore
SplineSet
68 589 m 1,0,-1
 52 589 l 1,1,-1
 46 713 l 2,2,3
 46 727 46 727 51.25 731.125 c 0,4,5
 56.5 735.25 56.5 735.25 60.125 735.25 c 128,-1,6
 63.75 735.25 63.75 735.25 69.375 731.125 c 0,7,8
 75 727 75 727 75 713 c 2,9,-1
 68 589 l 1,0,-1
EndSplineSet
EndChar

StartChar: quotedblleft
Encoding: 8220 8220 103
Width: 460
Flags: HMW
HStem: 456 111 664 50
VStem: -2 30<613 621 613 636.5> 14 69 149 77<613 705> 164 69
LayerCount: 2
Fore
SplineSet
164 633 m 1,0,-1
 166 633 l 1,1,2
 179 630 179 630 179 616.5 c 0,3,4
 179 603 179 603 164 603 c 128,-1,5
 149 603 149 603 149 618 c 0,6,7
 149 666 149 666 210 716 c 1,8,-1
 226 705 l 1,9,10
 201 691 201 691 185.5 673 c 128,-1,11
 170 655 170 655 167 644 c 2,12,-1
 164 633 l 1,0,-1
13 633 m 1,13,-1
 15 633 l 1,14,15
 28 630 28 630 28 616.5 c 0,16,17
 28 603 28 603 13 603 c 128,-1,18
 -2 603 -2 603 -2 618 c 0,19,20
 -2 666 -2 666 59 716 c 1,21,-1
 75 705 l 1,22,23
 50 691 50 691 34.5 673 c 128,-1,24
 19 655 19 655 16 644 c 2,25,-1
 13 633 l 1,13,-1
EndSplineSet
EndChar

StartChar: guillemotleft
Encoding: 171 171 104
Width: 523
Flags: HMW
HStem: 278 21G
VStem: 50 152 246 152
LayerCount: 2
Fore
SplineSet
449 80 m 1,0,-1
 262 267 l 1,1,-1
 262 268 l 1,2,-1
 449 455 l 1,3,-1
 462 441 l 1,4,-1
 288 268 l 1,5,-1
 463 96 l 1,6,-1
 449 80 l 1,0,-1
229 80 m 1,7,-1
 42 267 l 1,8,-1
 42 268 l 1,9,-1
 229 455 l 1,10,-1
 243 441 l 1,11,-1
 70 268 l 1,12,-1
 243 96 l 1,13,-1
 229 80 l 1,7,-1
EndSplineSet
EndChar

StartChar: guilsinglleft
Encoding: 8249 8249 105
Width: 305
Flags: HMW
HStem: 278 21G
VStem: 50 152
LayerCount: 2
Fore
SplineSet
229 80 m 1,0,-1
 42 267 l 1,1,-1
 42 268 l 1,2,-1
 229 455 l 1,3,-1
 245 441 l 1,4,-1
 71 267 l 1,5,-1
 244 96 l 1,6,-1
 229 80 l 1,0,-1
EndSplineSet
EndChar

StartChar: guilsinglright
Encoding: 8250 8250 106
Width: 301
Flags: HMW
HStem: 278 21G
VStem: 15 152 64 152
LayerCount: 2
Fore
SplineSet
224 267 m 1,0,-1
 37 80 l 1,1,-1
 22 96 l 1,2,-1
 195 267 l 1,3,-1
 21 441 l 1,4,-1
 37 455 l 1,5,-1
 224 268 l 1,6,-1
 224 267 l 1,0,-1
EndSplineSet
EndChar

StartChar: paragraph
Encoding: 182 182 107
Width: 675
Flags: HMW
HStem: 659 55
VStem: 319 68 512 106<-198 729 -198 -198> 618 19
LayerCount: 2
Fore
SplineSet
636 -199 m 1,0,-1
 618 -199 l 1,1,-1
 618 729 l 1,2,-1
 512 729 l 1,3,-1
 512 -198 l 1,4,-1
 494 -198 l 1,5,-1
 494 246 l 1,6,-1
 255 246 l 2,7,8
 188.333333333 246 188.333333333 246 153 272.5 c 0,9,10
 135 286 135 286 121.5 300.5 c 128,-1,11
 108 315 108 315 100.5 339 c 128,-1,12
 93 363 93 363 88 381 c 128,-1,13
 83 399 83 399 81 429 c 0,14,15
 78 474 78 474 78 524 c 0,16,17
 78 624 78 624 124 687 c 128,-1,18
 170 750 170 750 264 750 c 2,19,-1
 636 750 l 1,20,-1
 636 -199 l 1,0,-1
EndSplineSet
EndChar

StartChar: bullet
Encoding: 8226 8226 108
Width: 474
Flags: HMW
HStem: 178 357
VStem: 78 357<287.5 386.5>
LayerCount: 2
Fore
SplineSet
256 158 m 128,-1,1
 182 158 182 158 130 210.5 c 128,-1,2
 78 263 78 263 78 337 c 128,-1,3
 78 411 78 411 130 463 c 128,-1,4
 182 515 182 515 256 515 c 128,-1,5
 330 515 330 515 382.5 463 c 128,-1,6
 435 411 435 411 435 337 c 128,-1,7
 435 263 435 263 382.5 210.5 c 128,-1,0
 330 158 330 158 256 158 c 128,-1,1
EndSplineSet
EndChar

StartChar: quotesinglbase
Encoding: 8218 8218 109
Width: 178
Flags: HMW
HStem: -147 50 0 111
VStem: 44 69
LayerCount: 2
Fore
SplineSet
46 -84 m 1,0,-1
 30 -73 l 1,1,2
 55 -59 55 -59 70.5 -41 c 128,-1,3
 86 -23 86 -23 89 -12 c 2,4,-1
 92 -1 l 1,5,-1
 90 -1 l 1,6,7
 77 2 77 2 77 15.5 c 0,8,9
 77 29 77 29 92 29 c 128,-1,10
 107 29 107 29 107 14 c 0,11,12
 107 -34 107 -34 46 -84 c 1,0,-1
EndSplineSet
EndChar

StartChar: quotedblbase
Encoding: 8222 8222 110
Width: 329
Flags: HMW
HStem: -147 50 0 111
VStem: -44 69 77 30<13 21> 106 69 228 30<13 21>
LayerCount: 2
Fore
SplineSet
197 -82 m 1,0,-1
 181 -71 l 1,1,2
 206 -57 206 -57 221.5 -39 c 128,-1,3
 237 -21 237 -21 240 -10 c 2,4,-1
 243 1 l 1,5,-1
 241 1 l 1,6,7
 228 4 228 4 228 17.5 c 0,8,9
 228 31 228 31 243 31 c 128,-1,10
 258 31 258 31 258 16 c 0,11,12
 258 -32 258 -32 197 -82 c 1,0,-1
46 -82 m 1,13,-1
 30 -71 l 1,14,15
 55 -57 55 -57 70.5 -39 c 128,-1,16
 86 -21 86 -21 89 -10 c 2,17,-1
 92 1 l 1,18,-1
 90 1 l 1,19,20
 77 4 77 4 77 17.5 c 0,21,22
 77 31 77 31 92 31 c 128,-1,23
 107 31 107 31 107 16 c 0,24,25
 107 -32 107 -32 46 -82 c 1,13,-1
EndSplineSet
EndChar

StartChar: quotedblright
Encoding: 8221 8221 111
Width: 460
Flags: HMW
HStem: 456 50 603 111
VStem: 3 104 45 30<655 663> 188 69 196 30<655 663>
LayerCount: 2
Fore
SplineSet
165 560 m 1,0,-1
 149 571 l 1,1,2
 174 585 174 585 189.5 603 c 128,-1,3
 205 621 205 621 208 632 c 2,4,-1
 211 643 l 1,5,-1
 209 643 l 1,6,7
 196 646 196 646 196 659.5 c 0,8,9
 196 673 196 673 211 673 c 128,-1,10
 226 673 226 673 226 658 c 0,11,12
 226 610 226 610 165 560 c 1,0,-1
14 560 m 1,13,-1
 -2 571 l 1,14,15
 23 585 23 585 38.5 603 c 128,-1,16
 54 621 54 621 57 632 c 2,17,-1
 60 643 l 1,18,-1
 58 643 l 1,19,20
 45 646 45 646 45 659.5 c 0,21,22
 45 673 45 673 60 673 c 128,-1,23
 75 673 75 673 75 658 c 0,24,25
 75 610 75 610 14 560 c 1,13,-1
EndSplineSet
EndChar

StartChar: guillemotright
Encoding: 187 187 112
Width: 519
Flags: HMW
HStem: 278 21G
VStem: -11 152 86 152 185 152 282 152
LayerCount: 2
Fore
SplineSet
222 267 m 1,0,-1
 35 80 l 1,1,-1
 21 96 l 1,2,-1
 196 268 l 1,3,-1
 22 441 l 1,4,-1
 35 455 l 1,5,-1
 222 268 l 1,6,-1
 222 267 l 1,0,-1
442 267 m 1,7,-1
 255 80 l 1,8,-1
 241 96 l 1,9,-1
 414 268 l 1,10,-1
 241 441 l 1,11,-1
 255 455 l 1,12,-1
 442 268 l 1,13,-1
 442 267 l 1,7,-1
EndSplineSet
EndChar

StartChar: ellipsis
Encoding: 8230 8230 113
Width: 488
Flags: HMW
HStem: 0 111
VStem: 9 66 30 30<11 19> 189 66 207 30<11 19> 369 66 387 30<11 19>
LayerCount: 2
Fore
SplineSet
402 0 m 128,-1,1
 396 0 396 0 391.5 4.5 c 128,-1,2
 387 9 387 9 387 15 c 128,-1,3
 387 21 387 21 391.5 25.5 c 128,-1,4
 396 30 396 30 402 30 c 128,-1,5
 408 30 408 30 412.5 25.5 c 128,-1,6
 417 21 417 21 417 15 c 128,-1,7
 417 9 417 9 412.5 4.5 c 128,-1,0
 408 0 408 0 402 0 c 128,-1,1
222 0 m 128,-1,9
 216 0 216 0 211.5 4.5 c 128,-1,10
 207 9 207 9 207 15 c 128,-1,11
 207 21 207 21 211.5 25.5 c 128,-1,12
 216 30 216 30 222 30 c 128,-1,13
 228 30 228 30 232.5 25.5 c 128,-1,14
 237 21 237 21 237 15 c 128,-1,15
 237 9 237 9 232.5 4.5 c 128,-1,8
 228 0 228 0 222 0 c 128,-1,9
45 0 m 128,-1,17
 39 0 39 0 34.5 4.5 c 128,-1,18
 30 9 30 9 30 15 c 128,-1,19
 30 21 30 21 34.5 25.5 c 128,-1,20
 39 30 39 30 45 30 c 128,-1,21
 51 30 51 30 55.5 25.5 c 128,-1,22
 60 21 60 21 60 15 c 128,-1,23
 60 9 60 9 55.5 4.5 c 128,-1,16
 51 0 51 0 45 0 c 128,-1,17
EndSplineSet
EndChar

StartChar: perthousand
Encoding: 8240 8240 114
Width: 1047
Flags: HMW
HStem: -11 269<494 572 494 573 825 903> 8 125 17 116 274 55 368 55 459 124 583 124 654 55 711 20G
VStem: 72 56 98 124 222 124 316 50 376 106 389 50 408 125 533 125 627 50
LayerCount: 2
Fore
SplineSet
346 583 m 128,-1,1
 346 632 346 632 312 669.5 c 128,-1,2
 278 707 278 707 222 707 c 128,-1,3
 166 707 166 707 132 669.5 c 128,-1,4
 98 632 98 632 98 583 c 128,-1,5
 98 534 98 534 132 496.5 c 128,-1,6
 166 459 166 459 222 459 c 128,-1,7
 278 459 278 459 312 496.5 c 128,-1,0
 346 534 346 534 346 583 c 128,-1,1
222 439 m 128,-1,9
 162 439 162 439 120 481 c 128,-1,10
 78 523 78 523 78 583 c 128,-1,11
 78 643 78 643 120 685 c 128,-1,12
 162 727 162 727 222 727 c 128,-1,13
 282 727 282 727 324 685 c 128,-1,14
 366 643 366 643 366 583 c 128,-1,15
 366 523 366 523 324 481 c 128,-1,8
 282 439 282 439 222 439 c 128,-1,9
623.5 45.5 m 128,-1,17
 658 83 658 83 658 132.5 c 128,-1,18
 658 182 658 182 623.5 220 c 128,-1,19
 589 258 589 258 533 258 c 128,-1,20
 477 258 477 258 442.5 220 c 128,-1,21
 408 182 408 182 408 132.5 c 128,-1,22
 408 83 408 83 442.5 45.5 c 128,-1,23
 477 8 477 8 533 8 c 128,-1,16
 589 8 589 8 623.5 45.5 c 128,-1,17
533 -11 m 128,-1,25
 473 -11 473 -11 431 31 c 128,-1,26
 389 73 389 73 389 133 c 128,-1,27
 389 193 389 193 431 235 c 128,-1,28
 473 277 473 277 533 277 c 128,-1,29
 593 277 593 277 635 235 c 128,-1,30
 677 193 677 193 677 133 c 128,-1,31
 677 73 677 73 635 31 c 128,-1,24
 593 -11 593 -11 533 -11 c 128,-1,25
107 1 m 1,32,-1
 94 17 l 1,33,-1
 639 740 l 1,34,-1
 654 727 l 1,35,-1
 107 1 l 1,32,-1
954.5 45.5 m 128,-1,37
 989 83 989 83 989 132.5 c 128,-1,38
 989 182 989 182 954.5 220 c 128,-1,39
 920 258 920 258 864 258 c 128,-1,40
 808 258 808 258 773.5 220 c 128,-1,41
 739 182 739 182 739 132.5 c 128,-1,42
 739 83 739 83 773.5 45.5 c 128,-1,43
 808 8 808 8 864 8 c 128,-1,36
 920 8 920 8 954.5 45.5 c 128,-1,37
864 -11 m 128,-1,45
 804 -11 804 -11 762 31 c 128,-1,46
 720 73 720 73 720 133 c 128,-1,47
 720 193 720 193 762 235 c 128,-1,48
 804 277 804 277 864 277 c 128,-1,49
 924 277 924 277 966 235 c 128,-1,50
 1008 193 1008 193 1008 133 c 128,-1,51
 1008 73 1008 73 966 31 c 128,-1,44
 924 -11 924 -11 864 -11 c 128,-1,45
EndSplineSet
EndChar

StartChar: questiondown
Encoding: 191 191 115
Width: 472
Flags: HMW
HStem: -210 75 -22 75 406 111 590 86
VStem: -94 90 64 111 258 19<532 590> 277 85 414 19<130.5 177 130.5 177>
LayerCount: 2
Fore
SplineSet
267 679 m 128,-1,1
 261 679 261 679 256.5 683.5 c 128,-1,2
 252 688 252 688 252 694 c 128,-1,3
 252 700 252 700 256.5 704.5 c 128,-1,4
 261 709 261 709 267 709 c 128,-1,5
 273 709 273 709 277.5 704.5 c 128,-1,6
 282 700 282 700 282 694 c 128,-1,7
 282 688 282 688 277.5 683.5 c 128,-1,0
 273 679 273 679 267 679 c 128,-1,1
414 177 m 1,8,-1
 433 177 l 1,9,10
 433 102 433 102 386.5 51 c 128,-1,11
 340 0 340 0 255 0 c 0,12,13
 203 0 203 0 161 26.5 c 0,14,15
 79.01 78.2317857143 79.01 78.2317857143 79.01 172.405 c 0,16,17
 79.01 234.196363636 79.01 234.196363636 116 288 c 0,18,19
 135 316 135 316 164.5 346.5 c 128,-1,20
 194 377 194 377 212 395.5 c 128,-1,21
 230 414 230 414 244 449.5 c 128,-1,22
 258 485 258 485 258 532 c 2,23,-1
 258 590 l 1,24,-1
 277 590 l 1,25,-1
 277 524 l 2,26,27
 277 479 277 479 260.5 441 c 128,-1,28
 244 403 244 403 224 381.5 c 128,-1,29
 204 360 204 360 175 330.5 c 128,-1,30
 146 301 146 301 124.5 270.5 c 0,31,32
 97.5357142857 232.24833887 97.5357142857 232.24833887 97.5357142857 185.052740864 c 128,-1,33
 97.5357142857 137.857142857 97.5357142857 137.857142857 112.267857143 103.928571429 c 128,-1,34
 127 70 127 70 165 44.5 c 128,-1,35
 203 19 203 19 263.5 19 c 128,-1,36
 324 19 324 19 369 61 c 128,-1,37
 414 103 414 103 414 177 c 1,8,-1
EndSplineSet
EndChar

StartChar: grave
Encoding: 96 96 116
Width: 222
Flags: HMW
HStem: 588 139 730 143
VStem: 12 119 239 109
LayerCount: 2
Fore
SplineSet
133 588 m 1,0,-1
 114 588 l 1,1,-1
 51 701 l 2,2,3
 45.8571428571 709.142857143 45.8571428571 709.142857143 45.8571428571 716.071428571 c 0,4,5
 45.8571428571 723 45.8571428571 723 52.5155279503 725.782608696 c 0,6,7
 59.1739130435 728.565217391 59.1739130435 728.565217391 62.7353497164 728.565217391 c 0,8,9
 72.8260869565 728.565217391 72.8260869565 728.565217391 78 716 c 2,10,-1
 133 588 l 1,0,-1
EndSplineSet
EndChar

StartChar: acute
Encoding: 180 180 117
Width: 222
Flags: HMW
HStem: 588 143
VStem: 50 109
LayerCount: 2
Fore
SplineSet
65 588 m 1,0,-1
 46 588 l 1,1,-1
 101 716 l 2,2,3
 106.173913043 728.565217391 106.173913043 728.565217391 116.264650284 728.565217391 c 0,4,5
 133.142857143 728.565217391 133.142857143 728.565217391 133.142857143 715.081632653 c 0,6,7
 133.142857143 709.142857143 133.142857143 709.142857143 128 701 c 2,8,-1
 65 588 l 1,0,-1
EndSplineSet
EndChar

StartChar: circumflex
Encoding: 710 710 118
Width: 425
Flags: HMW
HStem: 588 142 683 47
VStem: 35 251
LayerCount: 2
Fore
SplineSet
336 630 m 1,0,-1
 319 614 l 1,1,-1
 193 741 l 1,2,-1
 62 614 l 1,3,-1
 46 630 l 1,4,-1
 194 771 l 1,5,-1
 336 630 l 1,0,-1
EndSplineSet
EndChar

StartChar: tilde
Encoding: 732 732 119
Width: 438
Flags: HMW
HStem: 620 36 673 17<389 399>
VStem: 78 321<653 673>
LayerCount: 2
Fore
SplineSet
176.86 702.2 m 0,0,1
 203.888888889 702.2 203.888888889 702.2 268.725806452 670.370967742 c 0,2,3
 294.451612903 657.741935484 294.451612903 657.741935484 326.134408602 657.741935484 c 128,-1,4
 357.817204301 657.741935484 357.817204301 657.741935484 389 690 c 1,5,-1
 399 673 l 1,6,7
 361.483870968 637.757575758 361.483870968 637.757575758 317.15610652 637.757575758 c 0,8,9
 291.060606061 637.757575758 291.060606061 637.757575758 266.03030303 649.378787879 c 128,-1,10
 241 661 241 661 217.25 671 c 128,-1,11
 193.5 681 193.5 681 172.944444444 681 c 0,12,13
 126.888888889 681 126.888888889 681 89 637 c 1,14,-1
 78 653 l 1,15,16
 124.610526316 702.2 124.610526316 702.2 176.86 702.2 c 0,0,1
EndSplineSet
EndChar

StartChar: macron
Encoding: 175 175 120
Width: 338
Flags: HMW
HStem: 658 19<78 299 78 299>
VStem: 18 341
LayerCount: 2
Fore
SplineSet
299 658 m 1,0,-1
 78 658 l 1,1,-1
 78 677 l 1,2,-1
 299 677 l 1,3,-1
 299 658 l 1,0,-1
EndSplineSet
EndChar

StartChar: breve
Encoding: 728 728 121
Width: 361
Flags: HMW
HStem: 582 20<128.5 188 128.5 190> 711 20G
VStem: 46 226<695 700 664 700>
LayerCount: 2
Fore
SplineSet
272 700 m 1,0,-1
 272 695 l 2,1,2
 272 648 272 648 239 615 c 128,-1,3
 206 582 206 582 159 582 c 128,-1,4
 112 582 112 582 79 615 c 128,-1,5
 46 648 46 648 46 695 c 2,6,-1
 46 700 l 1,7,-1
 67 700 l 1,8,-1
 67 695 l 2,9,10
 67 662 67 662 92 632 c 128,-1,11
 117 602 117 602 158 602 c 0,12,13
 199 602 199 602 225 632.5 c 128,-1,14
 251 663 251 663 251 695 c 2,15,-1
 251 700 l 1,16,-1
 272 700 l 1,0,-1
EndSplineSet
EndChar

StartChar: dotaccent
Encoding: 729 729 122
Width: 60
Flags: HMW
HStem: 592 104
VStem: -10 66
LayerCount: 2
Fore
SplineSet
30.5 683 m 0,0,1
 17 683 17 683 17 696.5 c 0,2,3
 17 710 17 710 30.5 710 c 0,4,5
 44 710 44 710 44 696.5 c 0,6,7
 44 683 44 683 30.5 683 c 0,0,1
EndSplineSet
EndChar

StartChar: ring
Encoding: 730 730 123
Width: 458
Flags: HMW
HStem: 570 92 662 91
VStem: 19 92 111 91
LayerCount: 2
Fore
SplineSet
111 549 m 128,-1,1
 64 549 64 549 31 582.5 c 128,-1,2
 -2 616 -2 616 -2 662 c 128,-1,3
 -2 708 -2 708 31 741.5 c 128,-1,4
 64 775 64 775 111 775 c 128,-1,5
 158 775 158 775 191 741.5 c 128,-1,6
 224 708 224 708 224 662 c 128,-1,7
 224 616 224 616 191 582.5 c 128,-1,0
 158 549 158 549 111 549 c 128,-1,1
111 570 m 128,-1,9
 149 570 149 570 175.5 597 c 128,-1,10
 202 624 202 624 202 662 c 128,-1,11
 202 700 202 700 175.5 726.5 c 128,-1,12
 149 753 149 753 111 753 c 128,-1,13
 73 753 73 753 46 726.5 c 128,-1,14
 19 700 19 700 19 662 c 128,-1,15
 19 624 19 624 46 597 c 128,-1,8
 73 570 73 570 111 570 c 128,-1,9
EndSplineSet
EndChar

StartChar: cedilla
Encoding: 184 184 124
Width: 410
Flags: HMW
HStem: -210 17<158.5 195 158.5 195.5> -210 21G<152 195.5> -98 50
VStem: 193 99<-156.5 0>
LayerCount: 2
Fore
SplineSet
151 -56 m 1,0,1
 170.488372093 -46.2558139535 170.488372093 -46.2558139535 202.674418605 -46.2558139535 c 128,-1,2
 234.860465116 -46.2558139535 234.860465116 -46.2558139535 263.430232558 -62.1279069767 c 128,-1,3
 292 -78 292 -78 292 -123.5 c 128,-1,4
 292 -169 292 -169 255 -189.5 c 128,-1,5
 218 -210 218 -210 173 -210 c 128,-1,6
 128 -210 128 -210 76 -191 c 1,7,-1
 86 -170 l 1,8,9
 122 -193 122 -193 167 -193 c 128,-1,10
 212 -193 212 -193 242.513513514 -174.691891892 c 128,-1,11
 273.027027027 -156.383783784 273.027027027 -156.383783784 273.027027027 -120.002702703 c 128,-1,12
 273.027027027 -83.6216216216 273.027027027 -83.6216216216 238 -70 c 0,13,14
 221.741935484 -63.6774193548 221.741935484 -63.6774193548 202.161290323 -63.6774193548 c 128,-1,15
 182.580645161 -63.6774193548 182.580645161 -63.6774193548 159 -73 c 2,16,-1
 118 -88 l 1,17,-1
 112 -78 l 1,18,-1
 173 0 l 1,19,-1
 193 0 l 1,20,-1
 151 -56 l 1,0,1
EndSplineSet
EndChar

StartChar: hungarumlaut
Encoding: 733 733 125
Width: 431
Flags: HMW
HStem: 568 143
VStem: -8 239 -2 109 118 109
LayerCount: 2
Fore
SplineSet
17 568 m 1,0,-1
 -2 568 l 1,1,-1
 53 696 l 2,2,3
 58.1739130435 708.565217391 58.1739130435 708.565217391 68.2646502836 708.565217391 c 0,4,5
 71.8260869565 708.565217391 71.8260869565 708.565217391 76 707 c 0,6,7
 92 700 92 700 80 681 c 1,8,-1
 17 568 l 1,0,-1
129 568 m 1,9,-1
 110 568 l 1,10,-1
 165 696 l 2,11,12
 170.173913043 708.565217391 170.173913043 708.565217391 180.264650284 708.565217391 c 0,13,14
 197.142857143 708.565217391 197.142857143 708.565217391 197.142857143 695.081632653 c 0,15,16
 197.142857143 689.142857143 197.142857143 689.142857143 192 681 c 2,17,-1
 129 568 l 1,9,-1
EndSplineSet
EndChar

StartChar: ogonek
Encoding: 731 731 126
Width: 383
Flags: HMW
HStem: -210 50
VStem: 76 68
LayerCount: 2
Fore
SplineSet
249 -144 m 1,0,-1
 265 -160 l 1,1,2
 233 -210 233 -210 169 -210 c 0,3,4
 143.75 -210 143.75 -210 120.375 -199 c 0,5,6
 76 -178.117647059 76 -178.117647059 76 -125 c 0,7,8
 76 -62 76 -62 172 3 c 1,9,-1
 196 3 l 1,10,11
 96 -65 96 -65 96 -127 c 0,12,13
 96 -154 96 -154 117.5 -172 c 128,-1,14
 139 -190 139 -190 169 -190 c 0,15,16
 220 -190 220 -190 249 -144 c 1,0,-1
EndSplineSet
EndChar

StartChar: caron
Encoding: 711 711 127
Width: 397
Flags: HMW
HStem: 537 142 633 47
VStem: 37 251 37 300
LayerCount: 2
Fore
SplineSet
336 732 m 1,0,-1
 194 591 l 1,1,-1
 46 732 l 1,2,-1
 61 747 l 1,3,-1
 193 621 l 1,4,-1
 321 747 l 1,5,-1
 336 732 l 1,0,-1
EndSplineSet
EndChar

StartChar: ordfeminine
Encoding: 170 170 128
Width: 386
Flags: HMW
HStem: 380 50 659 50
VStem: 76 68 308 60
LayerCount: 2
Fore
SplineSet
328 548 m 1,0,1
 241.987755102 612.84 241.987755102 612.84 177.7176 612.84 c 0,2,3
 146.56 612.84 146.56 612.84 126.5 595.5 c 0,4,5
 97 570 97 570 97 513 c 0,6,7
 97 480 97 480 107 456.5 c 128,-1,8
 117 433 117 433 143.5 415 c 0,9,10
 172.473333333 395.32 172.473333333 395.32 219.876666667 395.32 c 128,-1,11
 267.28 395.32 267.28 395.32 328 405 c 1,12,-1
 328 548 l 1,0,1
176.220703125 630.09375 m 0,13,14
 243.99609375 630.09375 243.99609375 630.09375 328 569 c 1,15,16
 328 638 328 638 293 664.5 c 128,-1,17
 258 691 258 691 179 693 c 1,18,-1
 181 709 l 1,19,20
 279 709 279 709 313 671.5 c 128,-1,21
 347 634 347 634 347 555 c 2,22,-1
 347 391 l 1,23,24
 278.230769231 379.538461538 278.230769231 379.538461538 247.307692308 379.538461538 c 128,-1,25
 216.384615385 379.538461538 216.384615385 379.538461538 185.692307692 382.769230769 c 128,-1,26
 155 386 155 386 132 400 c 128,-1,27
 109 414 109 414 93.5 444 c 128,-1,28
 78 474 78 474 78 516.5 c 128,-1,29
 78 559 78 559 96 587 c 0,30,31
 123.703125 630.09375 123.703125 630.09375 176.220703125 630.09375 c 0,13,14
EndSplineSet
EndChar

StartChar: Lslash
Encoding: 321 321 129
Width: 601
Flags: HMW
HStem: 0 80 694 20G
VStem: 201 95 202 18
LayerCount: 2
Fore
SplineSet
562 0 m 1,0,-1
 201 0 l 1,1,-1
 201 393 l 1,2,-1
 85 341 l 1,3,-1
 78 358 l 1,4,-1
 201 413 l 1,5,-1
 201 700 l 1,6,-1
 220 700 l 1,7,-1
 220 422 l 1,8,-1
 369 489 l 1,9,-1
 377 472 l 1,10,-1
 220 401 l 1,11,-1
 220 20 l 1,12,-1
 562 20 l 1,13,-1
 562 0 l 1,0,-1
EndSplineSet
EndChar

StartChar: lslash
Encoding: 322 322 130
Width: 416
Flags: HMW
HStem: 0 21G<219 238 219 219> 496 20G 694 20G
VStem: 178 85 219 19<0 401 401 401 430 679 679 679>
LayerCount: 2
Fore
SplineSet
238 0 m 1,0,-1
 219 0 l 1,1,-1
 219 401 l 1,2,-1
 85 341 l 1,3,-1
 78 358 l 1,4,-1
 219 421 l 1,5,-1
 219 679 l 1,6,-1
 133 681 l 1,7,-1
 133 700 l 1,8,-1
 238 700 l 1,9,-1
 238 430 l 1,10,-1
 369 489 l 1,11,-1
 377 472 l 1,12,-1
 238 409 l 1,13,-1
 238 0 l 1,0,-1
EndSplineSet
EndChar

StartChar: mu
Encoding: 181 181 131
Width: 476
Flags: HMW
HStem: -201 21G<37 37> -12 75 0 21G 497 20G
VStem: 37 85 380 85 398 19<41 510 136 506 506 506>
LayerCount: 2
Fore
SplineSet
442 13 m 1,0,-1
 429 -2 l 1,1,2
 424 -2 424 -2 417 5 c 128,-1,3
 410 12 410 12 404 27.5 c 128,-1,4
 398 43 398 43 398 60 c 1,5,6
 350 -11 350 -11 244 -11 c 128,-1,7
 138 -11 138 -11 56 65 c 1,8,-1
 56 -203 l 1,9,-1
 37 -201 l 1,10,-1
 37 501 l 1,11,-1
 56 501 l 1,12,-1
 56 91 l 1,13,14
 66.0869565217 75.8695652174 66.0869565217 75.8695652174 98.0434782609 52.4347826087 c 0,15,16
 161.363636364 6 161.363636364 6 232.181818182 6 c 128,-1,17
 303 6 303 6 350.5 36 c 128,-1,18
 398 66 398 66 398 136 c 2,19,-1
 398 506 l 1,20,-1
 417 510 l 1,21,-1
 417 63 l 2,22,23
 417 20 417 20 442 13 c 1,0,-1
EndSplineSet
EndChar

StartChar: trademark
Encoding: 8482 8482 132
Width: 650
Flags: HMW
HStem: 659 55
VStem: 138 78<512 700 512 700> 238 67 408 102<533 533>
LayerCount: 2
Fore
SplineSet
510 512 m 1,0,-1
 491 512 l 1,1,-1
 491 680 l 1,2,-1
 419 512 l 1,3,-1
 398 512 l 1,4,-1
 325 680 l 1,5,-1
 325 512 l 1,6,-1
 305 512 l 1,7,-1
 305 681 l 1,8,-1
 235 681 l 1,9,-1
 235 512 l 1,10,-1
 216 512 l 1,11,-1
 216 681 l 1,12,-1
 138 681 l 1,13,-1
 138 700 l 1,14,-1
 337 700 l 1,15,-1
 408 533 l 1,16,-1
 480 700 l 1,17,-1
 510 700 l 1,18,-1
 510 512 l 1,0,-1
EndSplineSet
EndChar

StartChar: plusminus
Encoding: 177 177 133
Width: 441
Flags: HMW
HStem: 0 68 271 68
VStem: 234 19<257 394 257 394 413 545> 299 68
LayerCount: 2
Fore
SplineSet
398 237 m 1,0,-1
 78 237 l 1,1,-1
 78 257 l 1,2,-1
 234 257 l 1,3,-1
 234 394 l 1,4,-1
 82 394 l 1,5,-1
 82 413 l 1,6,-1
 234 413 l 1,7,-1
 234 545 l 1,8,-1
 253 545 l 1,9,-1
 253 413 l 1,10,-1
 402 413 l 1,11,-1
 402 394 l 1,12,-1
 253 394 l 1,13,-1
 253 257 l 1,14,-1
 398 257 l 1,15,-1
 398 237 l 1,0,-1
EndSplineSet
EndChar

StartChar: divide
Encoding: 247 247 134
Width: 437
Flags: HMW
HStem: -17 21G 222 66 258 111 479 111 503 20G
VStem: 171 128 225 30<269 277 490 498>
LayerCount: 2
Fore
SplineSet
240 479 m 128,-1,1
 234 479 234 479 229.5 483.5 c 128,-1,2
 225 488 225 488 225 494 c 128,-1,3
 225 500 225 500 229.5 504.5 c 128,-1,4
 234 509 234 509 240 509 c 128,-1,5
 246 509 246 509 250.5 504.5 c 128,-1,6
 255 500 255 500 255 494 c 128,-1,7
 255 488 255 488 250.5 483.5 c 128,-1,0
 246 479 246 479 240 479 c 128,-1,1
240 258 m 128,-1,9
 234 258 234 258 229.5 262.5 c 128,-1,10
 225 267 225 267 225 273 c 128,-1,11
 225 279 225 279 229.5 283.5 c 128,-1,12
 234 288 234 288 240 288 c 128,-1,13
 246 288 246 288 250.5 283.5 c 128,-1,14
 255 279 255 279 255 273 c 128,-1,15
 255 267 255 267 250.5 262.5 c 128,-1,8
 246 258 246 258 240 258 c 128,-1,9
398 378 m 1,16,-1
 78 378 l 1,17,-1
 78 397 l 1,18,-1
 398 397 l 1,19,-1
 398 378 l 1,16,-1
EndSplineSet
EndChar

StartChar: degree
Encoding: 176 176 135
Width: 405
Flags: HMW
HStem: 421 269<183 261 183 262> 440 269<183 261>
VStem: 78 269<534 596 534 605> 97 269<534 596>
LayerCount: 2
Fore
SplineSet
347 565 m 128,-1,1
 347 614 347 614 312.5 652 c 128,-1,2
 278 690 278 690 222 690 c 128,-1,3
 166 690 166 690 131.5 652 c 128,-1,4
 97 614 97 614 97 565 c 128,-1,5
 97 516 97 516 131.5 478 c 128,-1,6
 166 440 166 440 222 440 c 128,-1,7
 278 440 278 440 312.5 478 c 128,-1,0
 347 516 347 516 347 565 c 128,-1,1
222 421 m 128,-1,9
 162 421 162 421 120 463 c 128,-1,10
 78 505 78 505 78 565 c 128,-1,11
 78 625 78 625 120 667 c 128,-1,12
 162 709 162 709 222 709 c 128,-1,13
 282 709 282 709 324 667 c 128,-1,14
 366 625 366 625 366 565 c 128,-1,15
 366 505 366 505 324 463 c 128,-1,8
 282 421 282 421 222 421 c 128,-1,9
EndSplineSet
EndChar

StartChar: registered
Encoding: 174 174 136
Width: 800
Flags: HMW
HStem: -17 55 327 55 521 55 676 55
VStem: 24 68 255 68 509 68 708 68
LayerCount: 2
Fore
SplineSet
150 -7 m 128,-1,1
 256 -108 256 -108 402 -108 c 128,-1,2
 548 -108 548 -108 651.5 -6.5 c 128,-1,3
 755 95 755 95 755 248.5 c 128,-1,4
 755 402 755 402 651.5 502 c 128,-1,5
 548 602 548 602 400.5 602 c 128,-1,6
 253 602 253 602 148.5 502 c 128,-1,7
 44 402 44 402 44 248 c 128,-1,0
 44 94 44 94 150 -7 c 128,-1,1
665 -19 m 128,-1,9
 556 -127 556 -127 400.5 -127 c 128,-1,10
 245 -127 245 -127 135 -19 c 128,-1,11
 25 89 25 89 25 248 c 128,-1,12
 25 407 25 407 134 514 c 128,-1,13
 243 621 243 621 400.5 621 c 128,-1,14
 558 621 558 621 666 514 c 128,-1,15
 774 407 774 407 774 248 c 128,-1,8
 774 89 774 89 665 -19 c 128,-1,9
283 248 m 1,16,-1
 441 248 l 2,17,18
 477.3 248 477.3 248 505.65 261.5 c 0,19,20
 559 286.904761905 559 286.904761905 559 347.452380952 c 128,-1,21
 559 408 559 408 521 432.5 c 128,-1,22
 483 457 483 457 435 457 c 2,23,-1
 283 457 l 1,24,-1
 283 248 l 1,16,-1
587 39 m 1,25,-1
 564 39 l 1,26,-1
 442 229 l 1,27,-1
 283 229 l 1,28,-1
 283 39 l 1,29,-1
 264 39 l 1,30,-1
 264 476 l 1,31,-1
 437 476 l 2,32,33
 499 476 499 476 538 441 c 128,-1,34
 577 406 577 406 577 352.5 c 128,-1,35
 577 299 577 299 545.5 268 c 128,-1,36
 514 237 514 237 464 231 c 1,37,-1
 587 39 l 1,25,-1
EndSplineSet
EndChar

StartChar: multiply
Encoding: 215 215 137
Width: 377
Flags: HMW
HStem: 24 458
VStem: 80 256<191 193>
LayerCount: 2
Fore
SplineSet
336 193 m 1,0,-1
 320 180 l 1,1,-1
 208 315 l 1,2,-1
 94 179 l 1,3,-1
 80 191 l 1,4,-1
 196 329 l 1,5,-1
 78 473 l 1,6,-1
 91 485 l 1,7,-1
 209 344 l 1,8,-1
 324 484 l 1,9,-1
 338 471 l 1,10,-1
 221 331 l 1,11,-1
 336 193 l 1,0,-1
EndSplineSet
EndChar

StartChar: copyright
Encoding: 169 169 138
Width: 800
Flags: HMW
HStem: -17 55 128 55 530 55 676 55
VStem: 24 68 191 68 708 68
LayerCount: 2
Fore
SplineSet
580 175 m 1,0,-1
 599 175 l 1,1,2
 583 103 583 103 529 59.5 c 128,-1,3
 475 16 475 16 405 16 c 0,4,5
 306 16 306 16 248.5 81 c 128,-1,6
 191 146 191 146 191 244.5 c 128,-1,7
 191 343 191 343 248 410.5 c 128,-1,8
 305 478 305 478 403 478 c 0,9,10
 476 478 476 478 531 435 c 128,-1,11
 586 392 586 392 598 323 c 1,12,-1
 580 323 l 1,13,14
 570 373 570 373 525.5 416 c 128,-1,15
 481 459 481 459 404 459 c 0,16,17
 311 459 311 459 260.5 395 c 128,-1,18
 210 331 210 331 210 249 c 0,19,20
 210 197 210 197 227 151 c 128,-1,21
 244 105 244 105 290 70 c 128,-1,22
 336 35 336 35 406.5 35 c 128,-1,23
 477 35 477 35 524.5 79.5 c 128,-1,24
 572 124 572 124 580 175 c 1,0,-1
152 -7 m 128,-1,26
 259 -108 259 -108 399.5 -108 c 128,-1,27
 540 -108 540 -108 647.5 -6 c 128,-1,28
 755 96 755 96 755 246.5 c 128,-1,29
 755 397 755 397 651 500 c 128,-1,30
 547 603 547 603 402 603 c 128,-1,31
 257 603 257 603 151 502.5 c 128,-1,32
 45 402 45 402 45 248 c 128,-1,25
 45 94 45 94 152 -7 c 128,-1,26
665 -19 m 128,-1,34
 556 -127 556 -127 400.5 -127 c 128,-1,35
 245 -127 245 -127 135 -19 c 128,-1,36
 25 89 25 89 25 248 c 128,-1,37
 25 407 25 407 134 514 c 128,-1,38
 243 621 243 621 400.5 621 c 128,-1,39
 558 621 558 621 666 514 c 128,-1,40
 774 407 774 407 774 248 c 128,-1,33
 774 89 774 89 665 -19 c 128,-1,34
EndSplineSet
EndChar

StartChar: Delta
Encoding: 8710 8710 139
Width: 622
Flags: HMW
HStem: 0 65 622 91
VStem: 97 586 317 21
LayerCount: 2
Fore
SplineSet
556 19 m 1,0,-1
 328 674 l 1,1,-1
 105 19 l 1,2,-1
 556 19 l 1,0,-1
583 0 m 1,3,-1
 78 0 l 1,4,-1
 318 700 l 1,5,-1
 337 700 l 1,6,-1
 583 0 l 1,3,-1
EndSplineSet
EndChar

StartChar: Omega
Encoding: 8486 8486 140
Width: 631
Flags: HMW
HStem: 0 66 639 67
VStem: 91 18<196 503> 306 58<0 20 0 20> 628 81
LayerCount: 2
Fore
SplineSet
592 0 m 1,0,-1
 364 0 l 1,1,-1
 364 20 l 1,2,3
 431 20 431 20 497 67 c 128,-1,4
 563 114 563 114 563 196 c 2,5,-1
 563 502 l 2,6,7
 563 597 563 597 516 642.5 c 128,-1,8
 469 688 469 688 391 688 c 2,9,-1
 279 688 l 2,10,11
 201 688 201 688 155 642 c 128,-1,12
 109 596 109 596 109 503 c 2,13,-1
 109 196 l 2,14,15
 109 113 109 113 174 66.5 c 128,-1,16
 239 20 239 20 306 20 c 1,17,-1
 306 0 l 1,18,-1
 78 0 l 1,19,-1
 85 20 l 1,20,-1
 215 20 l 1,21,22
 146 53 146 53 118.5 95.5 c 128,-1,23
 91 138 91 138 91 196 c 2,24,-1
 91 503 l 2,25,26
 91 595 91 595 138 651 c 128,-1,27
 185 707 185 707 279 707 c 2,28,-1
 391 707 l 2,29,30
 485 707 485 707 532 651 c 128,-1,31
 579 595 579 595 579 503 c 2,32,-1
 579 196 l 2,33,34
 579 134 579 134 551 94.5 c 128,-1,35
 523 55 523 55 455 20 c 1,36,-1
 583 20 l 1,37,-1
 592 0 l 1,0,-1
EndSplineSet
EndChar

StartChar: pi
Encoding: 960 960 141
Width: 530
Flags: HMW
HStem: 0 21G 449 68 482 19<85 427 85 85>
VStem: 131 79 387 80 426 19<77 79>
LayerCount: 2
Fore
SplineSet
469 21 m 1,0,-1
 456 5 l 1,1,2
 426 27 426 27 426 79 c 2,3,-1
 427 482 l 1,4,-1
 85 482 l 1,5,-1
 85 0 l 1,6,-1
 66 0 l 1,7,-1
 66 501 l 1,8,-1
 445 501 l 1,9,-1
 445 77 l 2,10,11
 445 39 445 39 469 21 c 1,0,-1
EndSplineSet
EndChar

StartChar: uni00AD
Encoding: 173 173 142
Width: 410
Flags: HMW
HStem: 238 80
VStem: 50 289
LayerCount: 2
Fore
SplineSet
365 394 m 1,0,-1
 45 394 l 1,1,-1
 45 413 l 1,2,-1
 365 413 l 1,3,-1
 365 394 l 1,0,-1
EndSplineSet
EndChar

StartChar: f_l
Encoding: 64258 64258 143
Width: 382
Flags: HMW
HStem: 0 21G<78 96 78 78 326 343 326 326> 442 75 647 75 694 20G
VStem: 141 85 345 18 407 85
LayerCount: 2
Fore
SplineSet
78 561 m 2,0,1
 78 631 78 631 121.647727273 668.480113636 c 128,-1,2
 165.295454545 705.960227273 165.295454545 705.960227273 227.998514979 705.960227273 c 128,-1,3
 290.701575413 705.960227273 290.701575413 705.960227273 343 657 c 1,4,-1
 343 0 l 1,5,-1
 326 0 l 1,6,-1
 326 648 l 1,7,8
 280.967789708 687.671232877 280.967789708 687.671232877 226.631155128 687.671232877 c 128,-1,9
 172.294520548 687.671232877 172.294520548 687.671232877 134.147260274 654.835616438 c 128,-1,10
 96 622 96 622 96 565 c 2,11,-1
 96 501 l 1,12,-1
 248 501 l 1,13,-1
 240 482 l 1,14,-1
 96 482 l 1,15,-1
 96 0 l 1,16,-1
 78 0 l 1,17,-1
 78 561 l 2,0,1
EndSplineSet
EndChar

StartChar: Epsilontonos
Encoding: 904 904 144
Width: 618
Flags: HMW
HStem: 0 19<264 577 264 577> 0 50 568 143 569 143 681 19<264 579 264 264>
VStem: 88 109 245 19<19 394 413 681> 245 56
LayerCount: 2
Fore
SplineSet
577 0 m 1,0,-1
 245 0 l 1,1,-1
 245 700 l 1,2,-1
 579 700 l 1,3,-1
 579 681 l 1,4,-1
 264 681 l 1,5,-1
 264 413 l 1,6,-1
 492 413 l 1,7,-1
 485 394 l 1,8,-1
 264 394 l 1,9,-1
 264 19 l 1,10,-1
 577 19 l 1,11,-1
 577 0 l 1,0,-1
97 568 m 1,12,-1
 78 568 l 1,13,-1
 133 696 l 2,14,15
 138.173913043 708.565217391 138.173913043 708.565217391 148.264650284 708.565217391 c 0,16,17
 165.142857143 708.565217391 165.142857143 708.565217391 165.142857143 695.081632653 c 0,18,19
 165.142857143 689.142857143 165.142857143 689.142857143 160 681 c 2,20,-1
 97 568 l 1,12,-1
EndSplineSet
EndChar

StartChar: Etatonos
Encoding: 905 905 145
Width: 716
Flags: HMW
HStem: 568 143 569 143
VStem: 80 109 239 56 247 19<0 394 413 700> 613 56 658 19<0 394 394 394 413 700>
LayerCount: 2
Fore
SplineSet
677 0 m 1,0,-1
 658 0 l 1,1,-1
 658 394 l 1,2,-1
 266 394 l 1,3,-1
 266 0 l 1,4,-1
 247 0 l 1,5,-1
 247 700 l 1,6,-1
 266 700 l 1,7,-1
 266 413 l 1,8,-1
 658 413 l 1,9,-1
 658 700 l 1,10,-1
 677 700 l 1,11,-1
 677 0 l 1,0,-1
97 568 m 1,12,-1
 78 568 l 1,13,-1
 133 696 l 2,14,15
 138.173913043 708.565217391 138.173913043 708.565217391 148.264650284 708.565217391 c 0,16,17
 165.142857143 708.565217391 165.142857143 708.565217391 165.142857143 695.081632653 c 0,18,19
 165.142857143 689.142857143 165.142857143 689.142857143 160 681 c 2,20,-1
 97 568 l 1,12,-1
EndSplineSet
EndChar

StartChar: Iotatonos
Encoding: 906 906 146
Width: 378
Flags: HMW
HStem: 568 143 569 143
VStem: 82 109 90 109 304 56 320 19<0 679 679 679>
LayerCount: 2
Fore
SplineSet
97 568 m 1,0,-1
 78 568 l 1,1,-1
 133 696 l 2,2,3
 138.173913043 708.565217391 138.173913043 708.565217391 148.264650284 708.565217391 c 0,4,5
 151.826086957 708.565217391 151.826086957 708.565217391 156 707 c 0,6,7
 172 700 172 700 160 681 c 1,8,-1
 97 568 l 1,0,-1
339 0 m 1,9,-1
 320 0 l 1,10,-1
 320 679 l 1,11,-1
 234 681 l 1,12,-1
 234 700 l 1,13,-1
 339 700 l 1,14,-1
 339 0 l 1,9,-1
EndSplineSet
EndChar

StartChar: Omicrontonos
Encoding: 908 908 147
Width: 654
Flags: HMW
HStem: 0 42 568 143 569 143 663 53 695 21<343 470>
VStem: 82 109 87 109 195 19<185 507 507 508> 195 56 560 55 595 21 596 19<184 185 185 506>
LayerCount: 2
Fore
SplineSet
97 568 m 1,0,-1
 78 568 l 1,1,-1
 133 696 l 2,2,3
 140 713 140 713 156 706.5 c 0,4,5
 172 700 172 700 160 681 c 1,6,-1
 97 568 l 1,0,-1
596 184 m 2,7,-1
 596 510 l 2,8,9
 596 596 596 596 548 645.5 c 128,-1,10
 500 695 500 695 405 695 c 128,-1,11
 310 695 310 695 262 644.5 c 128,-1,12
 214 594 214 594 214 508 c 2,13,-1
 214 184 l 2,14,15
 214 97 214 97 270 52.5 c 128,-1,16
 326 8 326 8 406 8 c 0,17,18
 486 8 486 8 541 50 c 128,-1,19
 596 92 596 92 596 184 c 2,7,-1
615 506 m 2,20,-1
 615 185 l 2,21,22
 615 84 615 84 553.5 36.5 c 128,-1,23
 492 -11 492 -11 406 -11 c 128,-1,24
 320 -11 320 -11 257.5 36.5 c 128,-1,25
 195 84 195 84 195 185 c 2,26,-1
 195 507 l 2,27,28
 195 610 195 610 251.5 663 c 128,-1,29
 308 716 308 716 407 716 c 128,-1,30
 506 716 506 716 560.5 660 c 128,-1,31
 615 604 615 604 615 506 c 2,20,-1
EndSplineSet
EndChar

StartChar: Upsilontonos
Encoding: 910 910 148
Width: 731
Flags: HMW
HStem: 0 21G 568 143 694 20G
VStem: 87 109 237 56 249 19<453 458 458 700> 624 57 673 19<152 342 342 342 405 700>
LayerCount: 2
Fore
SplineSet
588 -7 m 1,0,-1
 582 11 l 1,1,2
 590.5 11 590.5 11 599.25 16 c 128,-1,3
 608 21 608 21 617 25.5 c 128,-1,4
 626 30 626 30 631 34.5 c 128,-1,5
 636 39 636 39 643.5 47 c 128,-1,6
 651 55 651 55 655.5 64.5 c 128,-1,7
 660 74 660 74 664.5 86.5 c 0,8,9
 673 110.111111111 673 110.111111111 673 152 c 2,10,-1
 673 342 l 1,11,12
 643 289 643 289 586 267 c 128,-1,13
 529 245 529 245 478 245 c 0,14,15
 372 245 372 245 310.5 297.5 c 128,-1,16
 249 350 249 350 249 453 c 2,17,-1
 249 700 l 1,18,-1
 268 700 l 1,19,-1
 268 458 l 2,20,21
 268 365 268 365 320 314.5 c 128,-1,22
 372 264 372 264 478 264 c 0,23,24
 558 264 558 264 611 304.5 c 128,-1,25
 664 345 664 345 673 405 c 1,26,-1
 673 700 l 1,27,-1
 692 700 l 1,28,-1
 692 146 l 2,29,30
 692 19 692 19 588 -7 c 1,0,-1
97 568 m 1,31,-1
 78 568 l 1,32,-1
 133 696 l 2,33,34
 138.173913043 708.565217391 138.173913043 708.565217391 148.264650284 708.565217391 c 0,35,36
 165.142857143 708.565217391 165.142857143 708.565217391 165.142857143 695.081632653 c 0,37,38
 165.142857143 689.142857143 165.142857143 689.142857143 160 681 c 2,39,-1
 97 568 l 1,31,-1
EndSplineSet
EndChar

StartChar: Omegatonos
Encoding: 911 911 149
Width: 725
Flags: HMW
HStem: 0 66 568 143 639 67
VStem: 80 109 185 18<196 503> 209 81 400 58<0 20 0 20> 722 81
LayerCount: 2
Fore
SplineSet
97 568 m 1,0,-1
 78 568 l 1,1,-1
 133 696 l 2,2,3
 138.173913043 708.565217391 138.173913043 708.565217391 148.264650284 708.565217391 c 0,4,5
 151.826086957 708.565217391 151.826086957 708.565217391 156 707 c 0,6,7
 172 700 172 700 160 681 c 1,8,-1
 97 568 l 1,0,-1
686 0 m 1,9,-1
 458 0 l 1,10,-1
 458 20 l 1,11,12
 525 20 525 20 591 67 c 128,-1,13
 657 114 657 114 657 196 c 2,14,-1
 657 502 l 2,15,16
 657 597 657 597 610 642.5 c 128,-1,17
 563 688 563 688 485 688 c 2,18,-1
 373 688 l 2,19,20
 295 688 295 688 249 642 c 128,-1,21
 203 596 203 596 203 503 c 2,22,-1
 203 196 l 2,23,24
 203 113 203 113 268 66.5 c 128,-1,25
 333 20 333 20 400 20 c 1,26,-1
 400 0 l 1,27,-1
 172 0 l 1,28,-1
 179 20 l 1,29,-1
 309 20 l 1,30,31
 240 53 240 53 212.5 95.5 c 128,-1,32
 185 138 185 138 185 196 c 2,33,-1
 185 503 l 2,34,35
 185 595 185 595 232 651 c 128,-1,36
 279 707 279 707 373 707 c 2,37,-1
 485 707 l 2,38,39
 579 707 579 707 626 651 c 128,-1,40
 673 595 673 595 673 503 c 2,41,-1
 673 196 l 2,42,43
 673 134 673 134 645 94.5 c 128,-1,44
 617 55 617 55 549 20 c 1,45,-1
 677 20 l 1,46,-1
 686 0 l 1,9,-1
EndSplineSet
EndChar

StartChar: iotatonos
Encoding: 943 943 150
Width: 204
Flags: HMW
HStem: 0 21G<87 106 87 87> 497 20G 538 143 610 104
VStem: 87 19<0 501> 88 85
LayerCount: 2
Fore
SplineSet
106 0 m 1,0,-1
 87 0 l 1,1,-1
 87 501 l 1,2,-1
 106 501 l 1,3,-1
 106 0 l 1,0,-1
97 538 m 1,4,-1
 78 538 l 1,5,-1
 133 666 l 2,6,7
 138.173913043 678.565217391 138.173913043 678.565217391 148.264650284 678.565217391 c 0,8,9
 165.142857143 678.565217391 165.142857143 678.565217391 165.142857143 665.081632653 c 0,10,11
 165.142857143 659.142857143 165.142857143 659.142857143 160 651 c 2,12,-1
 97 538 l 1,4,-1
EndSplineSet
EndChar

StartChar: etatonos
Encoding: 942 942 151
Width: 486
Flags: HMW
HStem: 0 21G<78 97 78 78> 454 75 497 20G 538 143
VStem: 78 85 87 85 244 109 253 109 480 85
LayerCount: 2
Fore
SplineSet
97 475 m 1,0,1
 165.458333333 510.333333333 165.458333333 510.333333333 243.284722222 510.333333333 c 128,-1,2
 321.111111111 510.333333333 321.111111111 510.333333333 362 489 c 1,3,4
 447 450 447 450 447 346 c 2,5,-1
 447 -212 l 1,6,-1
 428 -203 l 1,7,-1
 428 347 l 2,8,9
 428 407 428 407 392.5 443 c 0,10,11
 345.39869281 490.764705882 345.39869281 490.764705882 256.365586814 490.764705882 c 128,-1,12
 167.332480818 490.764705882 167.332480818 490.764705882 97 454 c 1,13,-1
 97 0 l 1,14,-1
 78 0 l 1,15,-1
 78 501 l 1,16,-1
 97 501 l 1,17,-1
 97 475 l 1,0,1
268 538 m 1,18,-1
 249 538 l 1,19,-1
 304 666 l 2,20,21
 309.173913043 678.565217391 309.173913043 678.565217391 319.264650284 678.565217391 c 0,22,23
 336.142857143 678.565217391 336.142857143 678.565217391 336.142857143 665.081632653 c 0,24,25
 336.142857143 659.142857143 336.142857143 659.142857143 331 651 c 2,26,-1
 268 538 l 1,18,-1
EndSplineSet
EndChar

StartChar: epsilontonos
Encoding: 941 941 152
Width: 462
Flags: HMW
HStem: -12 75 336 68 538 143 634 75
VStem: 58 85 229 109 418 90
LayerCount: 2
Fore
SplineSet
353 475 m 1,0,1
 312.230769231 492.666666667 312.230769231 492.666666667 273.532051282 492.666666667 c 128,-1,2
 234.833333333 492.666666667 234.833333333 492.666666667 204.416666667 486.833333333 c 128,-1,3
 174 481 174 481 147.5 456.5 c 0,4,5
 117.632653061 428.886792453 117.632653061 428.886792453 117.632653061 392.167886022 c 128,-1,6
 117.632653061 355.448979592 117.632653061 355.448979592 137.816326531 328.224489796 c 128,-1,7
 158 301 158 301 205 301 c 2,8,-1
 352 301 l 1,9,-1
 346 282 l 1,10,-1
 240 282 l 2,11,12
 185 282 185 282 141 249 c 128,-1,13
 97 216 97 216 97 149.5 c 128,-1,14
 97 83 97 83 142 46 c 128,-1,15
 187 9 187 9 256 9 c 0,16,17
 295 9 295 9 335.5 17.5 c 128,-1,18
 376 26 376 26 396.5 34.5 c 2,19,-1
 417 43 l 1,20,-1
 423 23 l 1,21,22
 345 -11 345 -11 260.5 -11 c 128,-1,23
 176 -11 176 -11 130 30 c 0,24,25
 78.2831858407 76.0954213159 78.2831858407 76.0954213159 78.2831858407 150.869057875 c 0,26,27
 78.2831858407 256.628318584 78.2831858407 256.628318584 174 287 c 1,28,29
 138 291 138 291 118.169491525 322.728813559 c 128,-1,30
 98.3389830508 354.457627119 98.3389830508 354.457627119 98.3389830508 385.987359954 c 0,31,32
 98.3389830508 450.892460549 98.3389830508 450.892460549 151.5 484.5 c 0,33,34
 193.473684211 511.035087719 193.473684211 511.035087719 245.314536341 511.035087719 c 128,-1,35
 297.155388471 511.035087719 297.155388471 511.035087719 353 496 c 1,36,-1
 353 475 l 1,0,1
244 538 m 1,37,-1
 225 538 l 1,38,-1
 280 666 l 2,39,40
 285.173913043 678.565217391 285.173913043 678.565217391 295.264650284 678.565217391 c 0,41,42
 312.142857143 678.565217391 312.142857143 678.565217391 312.142857143 665.081632653 c 0,43,44
 312.142857143 659.142857143 312.142857143 659.142857143 307 651 c 2,45,-1
 244 538 l 1,37,-1
EndSplineSet
EndChar

StartChar: omegatonos
Encoding: 974 974 153
Width: 649
Flags: HMW
HStem: 538 143
VStem: -150 21 327 109 328 109
LayerCount: 2
Fore
SplineSet
591 181 m 2,0,-1
 591 317 l 2,1,2
 591 384 591 384 562.5 428.5 c 128,-1,3
 534 473 534 473 489 481 c 1,4,-1
 503 500 l 1,5,6
 610 460 610 460 610 317 c 2,7,-1
 610 188 l 2,8,9
 610 -12 610 -12 449 -12 c 0,10,11
 418 -12 418 -12 387.5 4.5 c 128,-1,12
 357 21 357 21 344 51 c 1,13,14
 331 21 331 21 300.5 4.5 c 128,-1,15
 270 -12 270 -12 239 -12 c 0,16,17
 78 -12 78 -12 78 188 c 2,18,-1
 78 317 l 2,19,20
 78 460 78 460 185 500 c 1,21,-1
 196 482 l 1,22,23
 153 473 153 473 125 427.5 c 128,-1,24
 97 382 97 382 97 317 c 2,25,-1
 97 180 l 2,26,27
 97 127 97 127 111 90 c 128,-1,28
 125 53 125 53 148 36.5 c 0,29,30
 189.121212121 7 189.121212121 7 236 7 c 0,31,32
 332 7 332 7 335 111 c 1,33,-1
 335 299 l 1,34,-1
 354 299 l 1,35,-1
 354 111 l 1,36,37
 355 7 355 7 452 7 c 0,38,39
 591 7 591 7 591 181 c 2,0,-1
342 538 m 1,40,-1
 323 538 l 1,41,-1
 378 666 l 2,42,43
 383.173913043 678.565217391 383.173913043 678.565217391 393.264650284 678.565217391 c 0,44,45
 410.142857143 678.565217391 410.142857143 678.565217391 410.142857143 665.081632653 c 0,46,47
 410.142857143 659.142857143 410.142857143 659.142857143 405 651 c 2,48,-1
 342 538 l 1,40,-1
EndSplineSet
EndChar

StartChar: upsilontonos
Encoding: 973 973 154
Width: 497
Flags: HMW
HStem: -12 75 0 21G 497 20G 538 143
VStem: 86 85 241 85 253 109 256 109 419 85 429 85
LayerCount: 2
Fore
SplineSet
439 165 m 2,0,-1
 439 501 l 1,1,-1
 458 501 l 1,2,-1
 458 172 l 2,3,4
 458 -10 458 -10 268 -10 c 128,-1,5
 78 -10 78 -10 78 172 c 2,6,-1
 78 501 l 1,7,-1
 97 501 l 1,8,-1
 97 165 l 2,9,10
 97 9 97 9 268 9 c 128,-1,11
 439 9 439 9 439 165 c 2,0,-1
268 538 m 1,12,-1
 249 538 l 1,13,-1
 304 666 l 2,14,15
 309.173913043 678.565217391 309.173913043 678.565217391 319.264650284 678.565217391 c 0,16,17
 336.142857143 678.565217391 336.142857143 678.565217391 336.142857143 665.081632653 c 0,18,19
 336.142857143 659.142857143 336.142857143 659.142857143 331 651 c 2,20,-1
 268 538 l 1,12,-1
EndSplineSet
EndChar

StartChar: omicrontonos
Encoding: 972 972 155
Width: 490
Flags: HMW
HStem: -12 75 -10 503<220.5 309.5 220.5 332> 8 504<205.5 324 205.5 326> 454 75 538 143
VStem: 58 90 78 354<184 316 316 320 320 379> 97 354<141 184 184 316 133 320> 248 109 470 90
LayerCount: 2
Fore
SplineSet
432 184 m 2,0,-1
 432 320 l 2,1,2
 432 406 432 406 384.5 449.5 c 128,-1,3
 337 493 337 493 265 493 c 128,-1,4
 193 493 193 493 145 449.5 c 128,-1,5
 97 406 97 406 97 320 c 2,6,-1
 97 184 l 2,7,8
 97 111 97 111 138 59.5 c 128,-1,9
 179 8 179 8 264.5 8 c 128,-1,10
 350 8 350 8 391 58.5 c 128,-1,11
 432 109 432 109 432 184 c 2,0,-1
451 316 m 2,12,-1
 451 184 l 2,13,14
 451 100 451 100 405 45 c 128,-1,15
 359 -10 359 -10 266 -10 c 128,-1,16
 173 -10 173 -10 125.5 45.5 c 128,-1,17
 78 101 78 101 78 184 c 2,18,-1
 78 316 l 2,19,20
 78 411 78 411 126.5 461.5 c 128,-1,21
 175 512 175 512 264 512 c 128,-1,22
 353 512 353 512 402 459.5 c 128,-1,23
 451 407 451 407 451 316 c 2,12,-1
258 538 m 1,24,-1
 239 538 l 1,25,-1
 294 666 l 2,26,27
 299.173913043 678.565217391 299.173913043 678.565217391 309.264650284 678.565217391 c 0,28,29
 326.142857143 678.565217391 326.142857143 678.565217391 326.142857143 665.081632653 c 0,30,31
 326.142857143 659.142857143 326.142857143 659.142857143 321 651 c 2,32,-1
 258 538 l 1,24,-1
EndSplineSet
EndChar

StartChar: alphatonos
Encoding: 940 940 156
Width: 502
Flags: HMW
HStem: -198 21G -12 75 454 63 454 75 538 143
VStem: 76 90 86 90 241 109 271 109 481 85 491 85
LayerCount: 2
Fore
SplineSet
256 538 m 1,0,-1
 237 538 l 1,1,-1
 292 666 l 2,2,3
 297.173913043 678.565217391 297.173913043 678.565217391 307.264650284 678.565217391 c 0,4,5
 310.826086957 678.565217391 310.826086957 678.565217391 315 677 c 0,6,7
 331 670 331 670 319 651 c 1,8,-1
 256 538 l 1,0,-1
424 434 m 1,9,10
 322.8 489.2 322.8 489.2 228.54 489.2 c 0,11,12
 162.773913043 489.2 162.773913043 489.2 129.886956522 452.6 c 128,-1,13
 97 416 97 416 97 351 c 2,14,-1
 97 162 l 2,15,16
 97 89 97 89 139 53 c 128,-1,17
 181 17 181 17 253.5 14.5 c 0,18,19
 268 14 268 14 306.8 14 c 128,-1,20
 345.6 14 345.6 14 424 22 c 1,21,-1
 424 434 l 1,9,10
233.584423306 507.655172414 m 0,22,23
 324.688155922 507.655172414 324.688155922 507.655172414 425 454 c 1,24,-1
 433 493 l 1,25,-1
 450 486 l 1,26,27
 443 455 443 455 443 423 c 2,28,-1
 443 22 l 1,29,30
 450 20 450 20 463 13 c 1,31,-1
 457 1 l 1,32,33
 453.428571429 4.57142857143 453.428571429 4.57142857143 443.071428571 4.57142857143 c 128,-1,34
 432.714285714 4.57142857143 432.714285714 4.57142857143 409.857142857 2.28571428571 c 0,35,36
 334.5 -5.25 334.5 -5.25 301.5 -5.25 c 128,-1,37
 268.5 -5.25 268.5 -5.25 254.25 -4.125 c 128,-1,38
 240 -3 240 -3 211 1 c 128,-1,39
 182 5 182 5 166 13.5 c 128,-1,40
 150 22 150 22 130.5 35 c 128,-1,41
 111 48 111 48 101.5 66.5 c 0,42,43
 78 112.263157895 78 112.263157895 78 169 c 2,44,-1
 78 354 l 2,45,46
 78 411 78 411 101 447 c 128,-1,47
 124 483 124 483 158.612068966 495.327586207 c 128,-1,48
 193.224137931 507.655172414 193.224137931 507.655172414 233.584423306 507.655172414 c 0,22,23
EndSplineSet
EndChar

StartChar: Upsilondieresis
Encoding: 65539 -1 157
Width: 560
Flags: HMW
HStem: 0 21G 694 20G
VStem: 78 19<453 458 458 700> 79 19 465 57 502 19<152 342 342 342 405 700>
LayerCount: 2
Fore
SplineSet
377 765 m 128,-1,1
 371 765 371 765 366.5 769.5 c 128,-1,2
 362 774 362 774 362 780 c 128,-1,3
 362 786 362 786 366.5 790.5 c 128,-1,4
 371 795 371 795 377 795 c 128,-1,5
 383 795 383 795 387.5 790.5 c 128,-1,6
 392 786 392 786 392 780 c 128,-1,7
 392 774 392 774 387.5 769.5 c 128,-1,0
 383 765 383 765 377 765 c 128,-1,1
218 764 m 128,-1,9
 212 764 212 764 207.5 768.5 c 128,-1,10
 203 773 203 773 203 779 c 128,-1,11
 203 785 203 785 207.5 789.5 c 128,-1,12
 212 794 212 794 218 794 c 128,-1,13
 224 794 224 794 228.5 789.5 c 128,-1,14
 233 785 233 785 233 779 c 128,-1,15
 233 773 233 773 228.5 768.5 c 128,-1,8
 224 764 224 764 218 764 c 128,-1,9
417 -7 m 1,16,-1
 411 11 l 1,17,18
 419.5 11 419.5 11 428.25 16 c 128,-1,19
 437 21 437 21 446 25.5 c 128,-1,20
 455 30 455 30 460 34.5 c 128,-1,21
 465 39 465 39 472.5 47 c 128,-1,22
 480 55 480 55 484.5 64.5 c 128,-1,23
 489 74 489 74 493.5 86.5 c 0,24,25
 502 110.111111111 502 110.111111111 502 152 c 2,26,-1
 502 342 l 1,27,28
 472 289 472 289 415 267 c 128,-1,29
 358 245 358 245 307 245 c 0,30,31
 201 245 201 245 139.5 297.5 c 128,-1,32
 78 350 78 350 78 453 c 2,33,-1
 78 700 l 1,34,-1
 97 700 l 1,35,-1
 97 458 l 2,36,37
 97 365 97 365 149 314.5 c 128,-1,38
 201 264 201 264 307 264 c 0,39,40
 387 264 387 264 440 304.5 c 128,-1,41
 493 345 493 345 502 405 c 1,42,-1
 502 700 l 1,43,-1
 521 700 l 1,44,-1
 521 146 l 2,45,46
 521 19 521 19 417 -7 c 1,16,-1
EndSplineSet
EndChar

StartChar: iotadieresis
Encoding: 970 970 158
Width: 129
Flags: HMW
HStem: 0 21G<63 82 63 63> 497 20G 574 111 575 111 610 104
VStem: -22 30<585 593> 63 19<0 501> 64 85 137 30<586 594>
LayerCount: 2
Fore
SplineSet
152 575 m 128,-1,1
 146 575 146 575 141.5 579.5 c 128,-1,2
 137 584 137 584 137 590 c 128,-1,3
 137 596 137 596 141.5 600.5 c 128,-1,4
 146 605 146 605 152 605 c 128,-1,5
 158 605 158 605 162.5 600.5 c 128,-1,6
 167 596 167 596 167 590 c 128,-1,7
 167 584 167 584 162.5 579.5 c 128,-1,0
 158 575 158 575 152 575 c 128,-1,1
-7 574 m 128,-1,9
 -13 574 -13 574 -17.5 578.5 c 128,-1,10
 -22 583 -22 583 -22 589 c 128,-1,11
 -22 595 -22 595 -17.5 599.5 c 128,-1,12
 -13 604 -13 604 -7 604 c 128,-1,13
 -1 604 -1 604 3.5 599.5 c 128,-1,14
 8 595 8 595 8 589 c 128,-1,15
 8 583 8 583 3.5 578.5 c 128,-1,8
 -1 574 -1 574 -7 574 c 128,-1,9
82 0 m 1,16,-1
 63 0 l 1,17,-1
 63 501 l 1,18,-1
 82 501 l 1,19,-1
 82 0 l 1,16,-1
EndSplineSet
EndChar

StartChar: upsilondieresis
Encoding: 971 971 159
Width: 497
Flags: HMW
HStem: -12 75 497 20G 574 111 575 111
VStem: 102 80 180 30<585 593> 241 85 339 30<586 594> 443 85
LayerCount: 2
Fore
SplineSet
354 575 m 128,-1,1
 348 575 348 575 343.5 579.5 c 128,-1,2
 339 584 339 584 339 590 c 128,-1,3
 339 596 339 596 343.5 600.5 c 128,-1,4
 348 605 348 605 354 605 c 128,-1,5
 360 605 360 605 364.5 600.5 c 128,-1,6
 369 596 369 596 369 590 c 128,-1,7
 369 584 369 584 364.5 579.5 c 128,-1,0
 360 575 360 575 354 575 c 128,-1,1
195 574 m 128,-1,9
 189 574 189 574 184.5 578.5 c 128,-1,10
 180 583 180 583 180 589 c 128,-1,11
 180 595 180 595 184.5 599.5 c 128,-1,12
 189 604 189 604 195 604 c 128,-1,13
 201 604 201 604 205.5 599.5 c 128,-1,14
 210 595 210 595 210 589 c 128,-1,15
 210 583 210 583 205.5 578.5 c 128,-1,8
 201 574 201 574 195 574 c 128,-1,9
439 165 m 2,16,-1
 439 501 l 1,17,-1
 458 501 l 1,18,-1
 458 172 l 2,19,20
 458 -10 458 -10 268 -10 c 0,21,22
 78 -10 78 -10 78 172 c 2,23,-1
 78 501 l 1,24,-1
 97 501 l 1,25,-1
 97 165 l 2,26,27
 97 9 97 9 268 9 c 0,28,29
 439 9 439 9 439 165 c 2,16,-1
EndSplineSet
EndChar

StartChar: Iotadieresis
Encoding: 938 938 160
Width: 228
Flags: HMW
HStem: 766 111 767 111
VStem: 60 30<777 785> 120 56 142 19<0 679 679 679> 219 30<778 786>
LayerCount: 2
Fore
SplineSet
234 767 m 128,-1,1
 228 767 228 767 223.5 771.5 c 128,-1,2
 219 776 219 776 219 782 c 128,-1,3
 219 788 219 788 223.5 792.5 c 128,-1,4
 228 797 228 797 234 797 c 128,-1,5
 240 797 240 797 244.5 792.5 c 128,-1,6
 249 788 249 788 249 782 c 128,-1,7
 249 776 249 776 244.5 771.5 c 128,-1,0
 240 767 240 767 234 767 c 128,-1,1
75 766 m 128,-1,9
 69 766 69 766 64.5 770.5 c 128,-1,10
 60 775 60 775 60 781 c 128,-1,11
 60 787 60 787 64.5 791.5 c 128,-1,12
 69 796 69 796 75 796 c 128,-1,13
 81 796 81 796 85.5 791.5 c 128,-1,14
 90 787 90 787 90 781 c 128,-1,15
 90 775 90 775 85.5 770.5 c 128,-1,8
 81 766 81 766 75 766 c 128,-1,9
161 0 m 1,16,-1
 142 0 l 1,17,-1
 142 679 l 1,18,-1
 56 681 l 1,19,-1
 56 700 l 1,20,-1
 161 700 l 1,21,-1
 161 0 l 1,16,-1
EndSplineSet
EndChar

StartChar: Psi
Encoding: 936 936 161
Width: 627
Flags: HMW
VStem: -118 21
LayerCount: 2
Fore
SplineSet
314 0 m 1,0,-1
 295 0 l 1,1,-1
 295 212 l 1,2,-1
 232 212 l 2,3,4
 137 212 137 212 90.5 263.5 c 128,-1,5
 44 315 44 315 44 406 c 2,6,-1
 44 700 l 1,7,-1
 63 700 l 1,8,-1
 63 406 l 2,9,10
 63 315 63 315 109 273 c 128,-1,11
 155 231 155 231 232 231 c 2,12,-1
 295 231 l 1,13,-1
 295 700 l 1,14,-1
 314 700 l 1,15,-1
 314 231 l 1,16,-1
 383 231 l 2,17,18
 467 231 467 231 509.5 276.5 c 128,-1,19
 552 322 552 322 552 406 c 2,20,-1
 552 564 l 2,21,22
 552 644.307692308 552 644.307692308 529.5 672 c 0,23,24
 520.4 683.2 520.4 683.2 510.2 691.6 c 128,-1,25
 500 700 500 700 498 702 c 1,26,-1
 515 709 l 1,27,28
 542 692 542 692 555 662.5 c 128,-1,29
 568 633 568 633 569.5 612 c 128,-1,30
 571 591 571 591 571 549 c 2,31,-1
 571 406 l 2,32,33
 571 315 571 315 524.5 263.5 c 128,-1,34
 478 212 478 212 383 212 c 2,35,-1
 314 212 l 1,36,-1
 314 0 l 1,0,-1
EndSplineSet
EndChar

StartChar: psi
Encoding: 968 968 162
Width: 645
Flags: HMW
VStem: -140 21
LayerCount: 2
Fore
SplineSet
348 -218 m 1,0,-1
 329 -213 l 1,1,-1
 329 -5 l 1,2,-1
 266 -5 l 2,3,4
 171 -5 171 -5 124.5 46.5 c 128,-1,5
 78 98 78 98 78 189 c 2,6,-1
 78 500 l 1,7,-1
 97 500 l 1,8,-1
 97 190 l 2,9,10
 97 92 97 92 145.5 53 c 128,-1,11
 194 14 194 14 266 14 c 2,12,-1
 329 14 l 1,13,-1
 329 500 l 1,14,-1
 348 500 l 1,15,-1
 348 14 l 1,16,-1
 417 14 l 2,17,18
 586 14 586 14 586 193 c 2,19,-1
 586 361 l 2,20,21
 586 422 586 422 574 450 c 128,-1,22
 562 478 562 478 533 498 c 1,23,-1
 549 506 l 1,24,25
 576 489 576 489 589 459.5 c 128,-1,26
 602 430 602 430 603.5 409 c 128,-1,27
 605 388 605 388 605 346 c 2,28,-1
 605 189 l 2,29,30
 605 98 605 98 558.5 46.5 c 128,-1,31
 512 -5 512 -5 417 -5 c 2,32,-1
 348 -5 l 1,33,-1
 348 -218 l 1,0,-1
EndSplineSet
EndChar

StartChar: omega
Encoding: 969 969 163
Width: 676
Flags: HMW
VStem: -162 21
LayerCount: 2
Fore
SplineSet
579 181 m 2,0,-1
 579 317 l 2,1,2
 579 384 579 384 550.5 428.5 c 128,-1,3
 522 473 522 473 477 481 c 1,4,-1
 491 500 l 1,5,6
 598 460 598 460 598 317 c 2,7,-1
 598 188 l 2,8,9
 598 -12 598 -12 437 -12 c 0,10,11
 406 -12 406 -12 375.5 4.5 c 128,-1,12
 345 21 345 21 332 51 c 1,13,14
 319 21 319 21 288.5 4.5 c 128,-1,15
 258 -12 258 -12 227 -12 c 0,16,17
 66 -12 66 -12 66 188 c 2,18,-1
 66 317 l 2,19,20
 66 460 66 460 173 500 c 1,21,-1
 184 482 l 1,22,23
 141 473 141 473 113 427.5 c 128,-1,24
 85 382 85 382 85 317 c 2,25,-1
 85 180 l 2,26,27
 85 127 85 127 99 90 c 128,-1,28
 113 53 113 53 136 36.5 c 0,29,30
 177.121212121 7 177.121212121 7 224 7 c 0,31,32
 320 7 320 7 323 111 c 1,33,-1
 323 299 l 1,34,-1
 342 299 l 1,35,-1
 342 111 l 1,36,37
 343 7 343 7 440 7 c 0,38,39
 579 7 579 7 579 181 c 2,0,-1
EndSplineSet
EndChar

StartChar: chi
Encoding: 967 967 164
Width: 547
Flags: HMW
HStem: 0 21G 272 21G 279 21G 497 20G
VStem: 91 500
LayerCount: 2
Fore
SplineSet
508 -196 m 1,0,-1
 497 -212 l 1,1,2
 457 -212 457 -212 432.5 -185.5 c 128,-1,3
 408 -159 408 -159 382 -107 c 2,4,-1
 265 131 l 1,5,-1
 95 -199 l 1,6,-1
 78 -191 l 1,7,-1
 255 149 l 1,8,-1
 79 501 l 1,9,-1
 99 501 l 1,10,-1
 264 168 l 1,11,-1
 438 501 l 1,12,-1
 458 501 l 1,13,-1
 275 149 l 1,14,-1
 401 -107 l 2,15,16
 424 -154 424 -154 449 -174 c 128,-1,17
 474 -194 474 -194 508 -196 c 1,0,-1
EndSplineSet
EndChar

StartChar: Chi
Encoding: 935 935 165
Width: 624
Flags: HMW
HStem: 0 21G<78 103 78 78 563 563> 694 20G
VStem: 97 472<700 700> 98 21
LayerCount: 2
Fore
SplineSet
585 3 m 1,0,-1
 563 0 l 1,1,-1
 332 346 l 1,2,-1
 103 0 l 1,3,-1
 78 0 l 1,4,-1
 321 364 l 1,5,-1
 97 700 l 1,6,-1
 119 700 l 1,7,-1
 332 382 l 1,8,-1
 545 700 l 1,9,-1
 569 700 l 1,10,-1
 345 364 l 1,11,-1
 585 3 l 1,0,-1
EndSplineSet
EndChar

StartChar: phi
Encoding: 966 966 166
Width: 644
Flags: HMW
VStem: -156 21 329 18<-205 -5 12 398>
LayerCount: 2
Fore
SplineSet
587 185 m 2,0,-1
 587 317 l 2,1,2
 587 367 587 367 569.5 403 c 128,-1,3
 552 439 552 439 525 456.5 c 0,4,5
 473.314285714 490 473.314285714 490 429.657142857 490 c 0,6,7
 347 490 347 490 347 398 c 2,8,-1
 347 11 l 1,9,-1
 417 11 l 2,10,11
 502 11 502 11 544.5 57 c 128,-1,12
 587 103 587 103 587 185 c 2,0,-1
347 -212 m 1,13,-1
 329 -205 l 1,14,-1
 329 -5 l 1,15,-1
 266 -5 l 2,16,17
 171 -5 171 -5 124.5 46.5 c 128,-1,18
 78 98 78 98 78 189 c 2,19,-1
 78 314 l 2,20,21
 78 466 78 466 194 503 c 1,22,-1
 203 487 l 1,23,24
 157 475 157 475 126.5 433 c 128,-1,25
 96 391 96 391 96 316 c 2,26,-1
 96 179 l 2,27,28
 96 96 96 96 143.5 54 c 128,-1,29
 191 12 191 12 266 12 c 2,30,-1
 329 12 l 1,31,-1
 329 403 l 2,32,33
 329 446 329 446 352 476.5 c 128,-1,34
 375 507 375 507 423 507 c 0,35,36
 506 507 506 507 555.5 452.5 c 128,-1,37
 605 398 605 398 605 307 c 2,38,-1
 605 189 l 2,39,40
 605 98 605 98 558.5 46.5 c 128,-1,41
 512 -5 512 -5 417 -5 c 2,42,-1
 347 -5 l 1,43,-1
 347 -212 l 1,13,-1
EndSplineSet
EndChar

StartChar: upsilon
Encoding: 965 965 167
Width: 513
Flags: HMW
HStem: -12 75 0 21G 497 20G
VStem: 229 85 407 85
LayerCount: 2
Fore
SplineSet
427 165 m 2,0,-1
 427 501 l 1,1,-1
 446 501 l 1,2,-1
 446 172 l 2,3,4
 446 -10 446 -10 256 -10 c 0,5,6
 66 -10 66 -10 66 172 c 2,7,-1
 66 501 l 1,8,-1
 85 501 l 1,9,-1
 85 165 l 2,10,11
 85 9 85 9 256 9 c 0,12,13
 427 9 427 9 427 165 c 2,0,-1
EndSplineSet
EndChar

StartChar: Upsilon
Encoding: 933 933 168
Width: 554
Flags: HMW
HStem: 0 21G 694 20G
VStem: 60 19<453 458 458 700> 61 19 447 57 484 19<152 342 342 342 405 700> 711 95
LayerCount: 2
Fore
SplineSet
399 -7 m 1,0,-1
 393 11 l 1,1,2
 401.5 11 401.5 11 410.25 16 c 128,-1,3
 419 21 419 21 428 25.5 c 128,-1,4
 437 30 437 30 442 34.5 c 128,-1,5
 447 39 447 39 454.5 47 c 128,-1,6
 462 55 462 55 466.5 64.5 c 128,-1,7
 471 74 471 74 475.5 86.5 c 0,8,9
 484 110.111111111 484 110.111111111 484 152 c 2,10,-1
 484 342 l 1,11,12
 454 289 454 289 397 267 c 128,-1,13
 340 245 340 245 289 245 c 0,14,15
 183 245 183 245 121.5 297.5 c 128,-1,16
 60 350 60 350 60 453 c 2,17,-1
 60 700 l 1,18,-1
 79 700 l 1,19,-1
 79 458 l 2,20,21
 79 365 79 365 131 314.5 c 128,-1,22
 183 264 183 264 289 264 c 0,23,24
 369 264 369 264 422 304.5 c 128,-1,25
 475 345 475 345 484 405 c 1,26,-1
 484 700 l 1,27,-1
 503 700 l 1,28,-1
 503 146 l 2,29,30
 503 19 503 19 399 -7 c 1,0,-1
EndSplineSet
EndChar

StartChar: Tau
Encoding: 932 932 169
Width: 519
Flags: HMW
HStem: 0 21G<268 286 268 268> 634 80
VStem: -93 21 248 56 267 19<680 680> 318 95
LayerCount: 2
Fore
SplineSet
286 0 m 1,0,-1
 268 0 l 1,1,-1
 267 680 l 1,2,-1
 78 680 l 1,3,-1
 78 700 l 1,4,-1
 480 700 l 1,5,-1
 480 680 l 1,6,-1
 286 680 l 1,7,-1
 286 0 l 1,0,-1
EndSplineSet
EndChar

StartChar: tau
Encoding: 964 964 170
Width: 418
Flags: HMW
HStem: 0 21G 497 20G 620 55
VStem: -8 341 120 85
LayerCount: 2
Fore
SplineSet
310 4 m 1,0,-1
 304 -13 l 1,1,2
 251 3 251 3 234 35.5 c 128,-1,3
 217 68 217 68 217 132 c 2,4,-1
 217 480 l 1,5,-1
 78 480 l 1,6,-1
 78 500 l 1,7,-1
 379 500 l 1,8,-1
 379 480 l 1,9,-1
 236 480 l 1,10,-1
 236 132 l 2,11,12
 236 83 236 83 246 56.5 c 128,-1,13
 256 30 256 30 268.5 22 c 128,-1,14
 281 14 281 14 310 4 c 1,0,-1
EndSplineSet
EndChar

StartChar: Sigma
Encoding: 931 931 171
Width: 585
Flags: HMW
HStem: 0 80 634 80
VStem: 109 568 118 487
LayerCount: 2
Fore
SplineSet
526 113 m 1,0,-1
 546 106 l 1,1,2
 530 50 530 50 495 25 c 128,-1,3
 460 0 460 0 401 0 c 2,4,-1
 78 0 l 1,5,-1
 304 384 l 1,6,-1
 94 700 l 1,7,-1
 522 700 l 1,8,-1
 514 678 l 1,9,-1
 132 678 l 1,10,-1
 327 384 l 1,11,-1
 112 20 l 1,12,-1
 385 20 l 2,13,14
 444 20 444 20 477 38.5 c 128,-1,15
 510 57 510 57 526 113 c 1,0,-1
EndSplineSet
EndChar

StartChar: sigma
Encoding: 963 963 172
Width: 513
Flags: HMW
HStem: -12 75 483 52 620 55
VStem: 47 90 208 341 433 18 459 90
LayerCount: 2
Fore
SplineSet
434 174 m 2,0,-1
 434 310 l 2,1,2
 434 356.5 434 356.5 424.5 380.25 c 128,-1,3
 415 404 415 404 407 417 c 128,-1,4
 399 430 399 430 391 438.5 c 128,-1,5
 383 447 383 447 374 455 c 0,6,7
 361.926829268 465.731707317 361.926829268 465.731707317 341 477 c 1,8,9
 298.217391304 489.52173913 298.217391304 489.52173913 257.793478261 489.52173913 c 128,-1,10
 217.369565217 489.52173913 217.369565217 489.52173913 180.684782609 478.760869565 c 128,-1,11
 144 468 144 468 120.5 435 c 128,-1,12
 97 402 97 402 97 351 c 2,13,-1
 97 174 l 2,14,15
 97 85 97 85 141.5 42.5 c 128,-1,16
 186 0 186 0 266 0 c 0,17,18
 434 0 434 0 434 174 c 2,0,-1
451 310 m 2,19,-1
 451 175 l 2,20,21
 451 -19 451 -19 266 -19 c 0,22,23
 171 -19 171 -19 124.5 32.5 c 128,-1,24
 78 84 78 84 78 175 c 2,25,-1
 78 354 l 2,26,27
 78 402 78 402 96.5 435.5 c 128,-1,28
 115 469 115 469 145 484 c 0,29,30
 194.259259259 508.62962963 194.259259259 508.62962963 247.62962963 508.62962963 c 1,31,-1
 286 505 l 1,32,33
 318.625 499.9375 318.625 499.9375 342.28125 499.9375 c 128,-1,34
 365.9375 499.9375 365.9375 499.9375 383 503 c 0,35,36
 422 510 422 510 458 543 c 1,37,-1
 474 535 l 1,38,39
 460 513 460 513 427 498 c 128,-1,40
 394 483 394 483 366 483 c 1,41,42
 451 433 451 433 451 310 c 2,19,-1
EndSplineSet
EndChar

StartChar: sigma1
Encoding: 962 962 173
Width: 410
Flags: HMW
HStem: -12 75 454 75
VStem: 88 90
LayerCount: 2
Fore
SplineSet
357 -147 m 1,0,-1
 340 -136 l 1,1,2
 350.666666667 -122.666666667 350.666666667 -122.666666667 350.666666667 -107.5 c 0,3,4
 350.666666667 -51.4646464646 350.666666667 -51.4646464646 307 -25 c 0,5,6
 294 -17 294 -17 264.5 0.5 c 128,-1,7
 235 18 235 18 221.5 26.5 c 128,-1,8
 208 35 208 35 184 52 c 128,-1,9
 160 69 160 69 148.5 80 c 128,-1,10
 137 91 137 91 120.5 109 c 128,-1,11
 104 127 104 127 96.5 143.5 c 0,12,13
 78 184.2 78 184.2 78 227 c 2,14,-1
 78 367 l 2,15,16
 78 420 78 420 119.5 462.5 c 128,-1,17
 161 505 161 505 250 505 c 0,18,19
 282 505 282 505 310 498.5 c 128,-1,20
 338 492 338 492 350 485 c 2,21,-1
 362 478 l 1,22,-1
 354 461 l 1,23,24
 318 486 318 486 252 486 c 0,25,26
 214 486 214 486 182 476.5 c 128,-1,27
 150 467 150 467 123.5 437 c 128,-1,28
 97 407 97 407 97 360 c 2,29,-1
 97 227 l 2,30,31
 97 158 97 158 143.5 111.5 c 128,-1,32
 190 65 190 65 311 -6 c 0,33,34
 369.970588235 -40.5193687231 369.970588235 -40.5193687231 369.970588235 -96.1712802768 c 0,35,36
 369.970588235 -120.441176471 369.970588235 -120.441176471 357 -147 c 1,0,-1
EndSplineSet
EndChar

StartChar: Rho
Encoding: 929 929 174
Width: 551
Flags: HMW
HStem: 0 21G<78 97 78 78> 0 680<78 325 78 325> 292 80 634 80 647 53
VStem: 70 56 78 95 97 0<0 0 281 281 300 300 680 680> 324 169<455.5 700> 448 56 515 95
LayerCount: 2
Fore
SplineSet
97 0 m 1,0,-1
 78 0 l 1,1,-1
 78 700 l 1,2,-1
 324 700 l 2,3,4
 419 700 419 700 465.5 642 c 128,-1,5
 512 584 512 584 512 486 c 0,6,7
 512 281 512 281 311 281 c 2,8,-1
 97 281 l 1,9,-1
 97 0 l 1,0,-1
97 300 m 1,10,-1
 309 300 l 2,11,12
 493 300 493 300 493 486 c 0,13,14
 493 575 493 575 452.5 627.5 c 128,-1,15
 412 680 412 680 325 680 c 2,16,-1
 97 680 l 1,17,-1
 97 300 l 1,10,-1
EndSplineSet
EndChar

StartChar: rho
Encoding: 961 961 175
Width: 490
Flags: HMW
HStem: -206 21G<97 97> -12 75 454 63 454 75
VStem: 510 90
LayerCount: 2
Fore
SplineSet
432 172 m 2,0,-1
 432 304 l 2,1,2
 432 353 432 353 419.5 389 c 128,-1,3
 407 425 407 425 389.5 443.5 c 128,-1,4
 372 462 372 462 345.5 472.5 c 0,5,6
 306.380952381 488 306.380952381 488 255 488 c 0,7,8
 185 488 185 488 140.5 445 c 128,-1,9
 96 402 96 402 96 314 c 2,10,-1
 96 168 l 2,11,12
 96 90 96 90 143.5 49 c 128,-1,13
 191 8 191 8 258 8 c 0,14,15
 432 8 432 8 432 172 c 2,0,-1
97 -206 m 1,16,-1
 78 -211 l 1,17,-1
 78 315 l 2,18,19
 78 404 78 404 125.5 455.5 c 128,-1,20
 173 507 173 507 256 507 c 0,21,22
 451 507 451 507 451 304 c 2,23,-1
 451 172 l 2,24,25
 451 -10 451 -10 258 -10 c 0,26,27
 149 -10 149 -10 96 82 c 1,28,-1
 97 -206 l 1,16,-1
EndSplineSet
EndChar

StartChar: Pi
Encoding: 928 928 176
Width: 590
Flags: HMW
HStem: 0 21G<80 99 80 80 491 510 491 491> 327 80 634 80
VStem: 80 19<0 680 0 700> 88 95 249 95 491 19<0 680 680 680>
LayerCount: 2
Fore
SplineSet
510 0 m 1,0,-1
 491 0 l 1,1,-1
 491 680 l 1,2,-1
 99 680 l 1,3,-1
 99 0 l 1,4,-1
 80 0 l 1,5,-1
 80 700 l 1,6,-1
 510 700 l 1,7,-1
 510 0 l 1,0,-1
EndSplineSet
EndChar

StartChar: Omicron
Encoding: 927 927 177
Width: 519
Flags: HMW
HStem: -17 80 651 80 663 53 695 21<210 337>
VStem: 54 56 62 19<185 507 507 508> 62 95 419 55 463 19<184 185 185 506> 651 95
LayerCount: 2
Fore
SplineSet
463 184 m 2,0,-1
 463 510 l 2,1,2
 463 596 463 596 415 645.5 c 128,-1,3
 367 695 367 695 272 695 c 128,-1,4
 177 695 177 695 129 644.5 c 128,-1,5
 81 594 81 594 81 508 c 2,6,-1
 81 184 l 2,7,8
 81 97 81 97 137 52.5 c 128,-1,9
 193 8 193 8 273 8 c 0,10,11
 353 8 353 8 408 50 c 128,-1,12
 463 92 463 92 463 184 c 2,0,-1
482 506 m 2,13,-1
 482 185 l 2,14,15
 482 84 482 84 420.5 36.5 c 128,-1,16
 359 -11 359 -11 273 -11 c 128,-1,17
 187 -11 187 -11 124.5 36.5 c 128,-1,18
 62 84 62 84 62 185 c 2,19,-1
 62 507 l 2,20,21
 62 610 62 610 118.5 663 c 128,-1,22
 175 716 175 716 274 716 c 128,-1,23
 373 716 373 716 427.5 660 c 128,-1,24
 482 604 482 604 482 506 c 2,13,-1
EndSplineSet
EndChar

StartChar: omicron
Encoding: 959 959 178
Width: 490
Flags: HMW
HStem: -12 75 -10 503<220.5 309.5 220.5 332> 8 504<205.5 324 205.5 326> 454 75
VStem: 78 90 78 354<184 316 316 320 320 379> 97 354<141 184 184 316 133 320> 490 90
LayerCount: 2
Fore
SplineSet
432 184 m 2,0,-1
 432 320 l 2,1,2
 432 406 432 406 384.5 449.5 c 128,-1,3
 337 493 337 493 265 493 c 0,4,5
 193 493 193 493 145 449.5 c 128,-1,6
 97 406 97 406 97 320 c 2,7,-1
 97 184 l 2,8,9
 97 111 97 111 138 59.5 c 128,-1,10
 179 8 179 8 264.5 8 c 0,11,12
 350 8 350 8 391 58.5 c 128,-1,13
 432 109 432 109 432 184 c 2,0,-1
451 316 m 2,14,-1
 451 184 l 2,15,16
 451 100 451 100 405 45 c 128,-1,17
 359 -10 359 -10 266 -10 c 128,-1,18
 173 -10 173 -10 125.5 45.5 c 128,-1,19
 78 101 78 101 78 184 c 2,20,-1
 78 316 l 2,21,22
 78 411 78 411 126.5 461.5 c 128,-1,23
 175 512 175 512 264 512 c 0,24,25
 353 512 353 512 402 459.5 c 128,-1,26
 451 407 451 407 451 316 c 2,14,-1
EndSplineSet
EndChar

StartChar: xi
Encoding: 958 958 179
Width: 419
Flags: HMW
VStem: 78 21<164 348 348 397.5>
LayerCount: 2
Fore
SplineSet
266.00295858 16.6923076923 m 0,0,1
 318.769230769 16.6923076923 318.769230769 16.6923076923 380 32 c 1,2,-1
 380 -207 l 1,3,-1
 361 -218 l 1,4,-1
 361 7 l 1,5,6
 308.222222222 -2.92063492063 308.222222222 -2.92063492063 264.577727387 -2.92063492063 c 0,7,8
 78 -2.92063492063 78 -2.92063492063 78 164 c 2,9,-1
 78 348 l 2,10,11
 78 420 78 420 124 466 c 128,-1,12
 170 512 170 512 234 514 c 1,13,14
 183.4 548.556097561 183.4 548.556097561 183.4 606.7 c 0,15,16
 183.4 642.3 183.4 642.3 212.2 675.15 c 128,-1,17
 241 708 241 708 303 708 c 2,18,-1
 345 708 l 1,19,-1
 334 689 l 1,20,-1
 299 689 l 2,21,22
 254 689 254 689 229 664.5 c 128,-1,23
 204 640 204 640 204 609 c 128,-1,24
 204 578 204 578 224.5 549.5 c 128,-1,25
 245 521 245 521 278.5 515 c 128,-1,26
 312 509 312 509 358 494 c 1,27,-1
 351 475 l 1,28,29
 309.933823529 494.946428571 309.933823529 494.946428571 266.395483193 494.946428571 c 128,-1,30
 222.857142857 494.946428571 222.857142857 494.946428571 186.428571429 484.473214286 c 128,-1,31
 150 474 150 474 123.5 437.5 c 128,-1,32
 97 401 97 401 97 345 c 2,33,-1
 97 160 l 2,34,35
 97 16.6923076923 97 16.6923076923 266.00295858 16.6923076923 c 0,0,1
EndSplineSet
EndChar

StartChar: Xi
Encoding: 926 926 180
Width: 626
Flags: HMW
HStem: 0 80 113 0<568 568> 595 105 634 80 817 55
VStem: 109 568 165 56 442 121
LayerCount: 2
Fore
SplineSet
568 113 m 1,0,-1
 587 106 l 1,1,2
 571 50 571 50 536 25 c 128,-1,3
 501 0 501 0 442 0 c 2,4,-1
 117 0 l 1,5,-1
 125 19 l 1,6,-1
 442 19 l 2,7,8
 502 19 502 19 527.5 43.5 c 128,-1,9
 553 68 553 68 568 113 c 1,0,-1
539 680 m 1,10,-1
 223 680 l 2,11,12
 163 680 163 680 137 656 c 128,-1,13
 111 632 111 632 96 588 c 1,14,-1
 78 595 l 1,15,16
 94 651 94 651 129 675.5 c 128,-1,17
 164 700 164 700 223 700 c 2,18,-1
 548 700 l 1,19,-1
 539 680 l 1,10,-1
469 394 m 1,20,-1
 205 394 l 1,21,-1
 205 413 l 1,22,-1
 469 413 l 1,23,-1
 469 394 l 1,20,-1
EndSplineSet
EndChar

StartChar: Nu
Encoding: 925 925 181
Width: 642
Flags: HMW
HStem: 0 32<555 572 555 555> 0 135 573 141 597 103 670 30<80 98>
VStem: 80 18<0 670 0 700> 81 90 555 17<0 0 32 700> 560 90
LayerCount: 2
Fore
SplineSet
572 0 m 1,0,-1
 555 0 l 1,1,-1
 98 670 l 1,2,-1
 98 0 l 1,3,-1
 80 0 l 1,4,-1
 80 700 l 1,5,-1
 98 700 l 1,6,-1
 555 32 l 1,7,-1
 555 700 l 1,8,-1
 572 700 l 1,9,-1
 572 0 l 1,0,-1
EndSplineSet
EndChar

StartChar: nu
Encoding: 957 957 182
Width: 502
Flags: HMW
HStem: 0 86 497 20G
VStem: 74 472 78 385<501 501>
LayerCount: 2
Fore
SplineSet
277 0 m 1,0,-1
 264 0 l 1,1,-1
 78 501 l 1,2,-1
 97 501 l 1,3,-1
 270 37 l 1,4,-1
 444 501 l 1,5,-1
 463 501 l 1,6,-1
 277 0 l 1,0,-1
EndSplineSet
EndChar

StartChar: Mu
Encoding: 924 924 183
Width: 701
Flags: HMW
HStem: 0 30<348 348 348 356 338 348> 0 114 535 165 594 120 648 52<80 98>
VStem: 72 56 80 18<0 648 0 700> 552 56 598 18<0 648 648 648> 679 90
LayerCount: 2
Fore
SplineSet
616 0 m 1,0,-1
 598 0 l 1,1,-1
 598 648 l 1,2,-1
 356 0 l 1,3,-1
 338 0 l 1,4,-1
 98 648 l 1,5,-1
 98 0 l 1,6,-1
 80 0 l 1,7,-1
 80 700 l 1,8,-1
 98 700 l 1,9,-1
 348 30 l 1,10,-1
 598 700 l 1,11,-1
 616 700 l 1,12,-1
 616 0 l 1,0,-1
EndSplineSet
EndChar

StartChar: Lambda
Encoding: 923 923 184
Width: 533
Flags: HMW
HStem: 0 95 694 20G
VStem: -1 614 31 466<0 0>
LayerCount: 2
Fore
SplineSet
517 0 m 1,0,-1
 497 0 l 1,1,-1
 262 670 l 1,2,-1
 31 0 l 1,3,-1
 12 0 l 1,4,-1
 253 700 l 1,5,-1
 272 700 l 1,6,-1
 517 0 l 1,0,-1
EndSplineSet
EndChar

StartChar: lambda
Encoding: 955 955 185
Width: 581
Flags: HMW
HStem: -207 75 -198 21G 497 20G
VStem: 79 484
LayerCount: 2
Fore
SplineSet
542 3 m 1,0,-1
 526 -11 l 1,1,2
 487 10 487 10 468.5 39 c 128,-1,3
 450 68 450 68 436 115 c 2,4,-1
 324 486 l 1,5,6
 266 457 266 457 241 429.5 c 128,-1,7
 216 402 216 402 204 361 c 2,8,-1
 98 0 l 1,9,-1
 78 0 l 1,10,-1
 186 372 l 2,11,12
 196 403 196 403 214.5 427.5 c 128,-1,13
 233 452 233 452 246.5 462.5 c 128,-1,14
 260 473 260 473 284.5 488.5 c 128,-1,15
 309 504 309 504 316 509 c 1,16,-1
 294 580 l 2,17,18
 272.377494014 650.764565044 272.377494014 650.764565044 233 667.5 c 0,19,20
 203.588235294 680 203.588235294 680 164 680 c 1,21,-1
 164 700 l 1,22,23
 166.392156863 700.039215686 166.392156863 700.039215686 168.741253364 700.039215686 c 0,24,25
 226.294117647 700.039215686 226.294117647 700.039215686 258.647058824 676.019607843 c 128,-1,26
 291 652 291 652 311 593 c 1,27,-1
 454 121 l 2,28,29
 470 68 470 68 491.5 43 c 128,-1,30
 513 18 513 18 542 3 c 1,0,-1
EndSplineSet
EndChar

StartChar: kappa
Encoding: 954 954 186
Width: 486
Flags: HMW
HStem: 497 20G 694 20G
VStem: 83 85
LayerCount: 2
Fore
SplineSet
447 19 m 1,0,-1
 447 -1 l 1,1,2
 391 -1 391 -1 320 98 c 2,3,-1
 191 278 l 1,4,-1
 97 179 l 1,5,-1
 97 0 l 1,6,-1
 78 0 l 1,7,-1
 78 512 l 1,8,-1
 97 507 l 1,9,-1
 97 205 l 1,10,-1
 369 501 l 1,11,-1
 396 501 l 1,12,-1
 204 292 l 1,13,-1
 331 113 l 1,14,15
 401 19 401 19 447 19 c 1,0,-1
EndSplineSet
EndChar

StartChar: Kappa
Encoding: 922 922 187
Width: 514
Flags: HMW
HStem: 0 21G<78 97 78 78 454 475 454 454> 694 20G
VStem: 77 95 78 19<0 280 308 701>
LayerCount: 2
Fore
SplineSet
475 0 m 1,0,-1
 454 0 l 1,1,-1
 194 403 l 1,2,-1
 97 280 l 1,3,-1
 97 0 l 1,4,-1
 78 0 l 1,5,-1
 78 701 l 1,6,-1
 97 701 l 1,7,-1
 97 308 l 1,8,-1
 401 701 l 1,9,-1
 423 701 l 1,10,-1
 206 418 l 1,11,-1
 475 0 l 1,0,-1
EndSplineSet
EndChar

StartChar: Iota
Encoding: 921 921 188
Width: 300
Flags: HMW
HStem: 0 21G<166 185 166 166> 694 20G
VStem: 150 56 162 95 166 19<0 679 679 679>
LayerCount: 2
Fore
SplineSet
185 0 m 1,0,-1
 166 0 l 1,1,-1
 166 679 l 1,2,-1
 80 681 l 1,3,-1
 80 700 l 1,4,-1
 185 700 l 1,5,-1
 185 0 l 1,0,-1
EndSplineSet
EndChar

StartChar: iota
Encoding: 953 953 189
Width: 136
Flags: HMW
HStem: 0 21G<66 85 66 66> 497 20G 610 104
VStem: 57 85 66 19<0 501>
LayerCount: 2
Fore
SplineSet
85 0 m 1,0,-1
 66 0 l 1,1,-1
 66 501 l 1,2,-1
 85 501 l 1,3,-1
 85 0 l 1,0,-1
EndSplineSet
EndChar

StartChar: theta
Encoding: 952 952 190
Width: 479
Flags: HMW
HStem: -12 75 620 55 634 75
VStem: 42 90 107 341 424 90
LayerCount: 2
Fore
SplineSet
135 447 m 1,0,1
 219.539154539 506.945945946 219.539154539 506.945945946 379.330168006 506.945945946 c 0,2,3
 402.243243243 506.945945946 402.243243243 506.945945946 423 505 c 1,4,5
 423 594 423 594 378 643 c 128,-1,6
 333 692 333 692 250 692 c 0,7,8
 150 692 150 692 114.5 619 c 0,9,10
 100.726775956 590.677595628 100.726775956 590.677595628 100.726775956 549.133879781 c 128,-1,11
 100.726775956 507.590163934 100.726775956 507.590163934 135 447 c 1,0,1
423 185 m 2,12,-1
 423 487 l 1,13,14
 404.777777778 488.777777778 404.777777778 488.777777778 381.833333333 488.777777778 c 128,-1,15
 358.888888889 488.777777778 358.888888889 488.777777778 318.444444444 484.888888889 c 128,-1,16
 278 481 278 481 219 466 c 128,-1,17
 160 451 160 451 120.5 412.5 c 128,-1,18
 81 374 81 374 81 318 c 2,19,-1
 81 195 l 2,20,21
 81 111 81 111 125 61.5 c 128,-1,22
 169 12 169 12 250.5 12 c 128,-1,23
 332 12 332 12 377.5 62 c 128,-1,24
 423 112 423 112 423 185 c 2,12,-1
442 505 m 2,25,-1
 442 191 l 2,26,27
 442 102 442 102 392.5 48 c 128,-1,28
 343 -6 343 -6 251.5 -5.5 c 128,-1,29
 160 -5 160 -5 111 48.5 c 128,-1,30
 62 102 62 102 62 191 c 2,31,-1
 62 317 l 1,32,33
 64 392 64 392 118 436 c 1,34,35
 83.44 503.2 83.44 503.2 83.44 564.380666667 c 128,-1,36
 83.44 625.561333333 83.44 625.561333333 129.22 667.780666667 c 128,-1,37
 175 710 175 710 250 710 c 1,38,39
 345 708 345 708 393.5 654 c 128,-1,40
 442 600 442 600 442 505 c 2,25,-1
EndSplineSet
EndChar

StartChar: Theta
Encoding: 920 920 191
Width: 537
Flags: HMW
HStem: -17 80 185 80 238 80 651 80 695 21<226 353>
VStem: 77 379 78 19<185 341 360 507 507 508> 78 95 435 55 478 21 479 19<184 185 185 341 341 341 360 506> 667 95
LayerCount: 2
Fore
SplineSet
498 506 m 2,0,-1
 498 185 l 2,1,2
 498 84 498 84 436.5 36.5 c 128,-1,3
 375 -11 375 -11 289 -11 c 128,-1,4
 203 -11 203 -11 140.5 36.5 c 128,-1,5
 78 84 78 84 78 185 c 2,6,-1
 78 507 l 2,7,8
 78 610 78 610 134.5 663 c 128,-1,9
 191 716 191 716 290 716 c 128,-1,10
 389 716 389 716 443.5 660 c 128,-1,11
 498 604 498 604 498 506 c 2,0,-1
479 360 m 1,12,-1
 479 510 l 2,13,14
 479 596 479 596 431 645.5 c 128,-1,15
 383 695 383 695 288 695 c 128,-1,16
 193 695 193 695 145 644.5 c 128,-1,17
 97 594 97 594 97 508 c 2,18,-1
 97 360 l 1,19,-1
 479 360 l 1,12,-1
479 184 m 2,20,-1
 479 341 l 1,21,-1
 97 341 l 1,22,-1
 97 184 l 2,23,24
 97 97 97 97 153 52.5 c 128,-1,25
 209 8 209 8 289 8 c 0,26,27
 369 8 369 8 424 50 c 128,-1,28
 479 92 479 92 479 184 c 2,20,-1
EndSplineSet
EndChar

StartChar: Eta
Encoding: 919 919 192
Width: 574
Flags: HMW
HStem: 0 21G<80 99 80 80 491 510 491 491> 327 80 694 20G
VStem: 72 56 80 19<0 394 413 700> 446 56 491 19<0 394 394 394 413 700> 551 95
LayerCount: 2
Fore
SplineSet
510 0 m 1,0,-1
 491 0 l 1,1,-1
 491 394 l 1,2,-1
 99 394 l 1,3,-1
 99 0 l 1,4,-1
 80 0 l 1,5,-1
 80 700 l 1,6,-1
 99 700 l 1,7,-1
 99 413 l 1,8,-1
 491 413 l 1,9,-1
 491 700 l 1,10,-1
 510 700 l 1,11,-1
 510 0 l 1,0,-1
EndSplineSet
EndChar

StartChar: eta
Encoding: 951 951 193
Width: 486
Flags: HMW
HStem: 0 21G<78 97 78 78> 454 75 497 20G
VStem: 78 85 421 85
LayerCount: 2
Fore
SplineSet
97 475 m 1,0,1
 165.458333333 510.333333333 165.458333333 510.333333333 243.284722222 510.333333333 c 128,-1,2
 321.111111111 510.333333333 321.111111111 510.333333333 362 489 c 1,3,4
 447 450 447 450 447 346 c 2,5,-1
 447 -212 l 1,6,-1
 428 -203 l 1,7,-1
 428 347 l 2,8,9
 428 407 428 407 392.5 443 c 0,10,11
 345.39869281 490.764705882 345.39869281 490.764705882 256.365586814 490.764705882 c 128,-1,12
 167.332480818 490.764705882 167.332480818 490.764705882 97 454 c 1,13,-1
 97 0 l 1,14,-1
 78 0 l 1,15,-1
 78 501 l 1,16,-1
 97 501 l 1,17,-1
 97 475 l 1,0,1
EndSplineSet
EndChar

StartChar: zeta
Encoding: 950 950 194
Width: 464
Flags: HMW
VStem: -158 21
LayerCount: 2
Fore
SplineSet
407 -200 m 1,0,-1
 388 -209 l 1,1,-1
 388 13 l 1,2,3
 327.132867133 -1.32167832168 327.132867133 -1.32167832168 271.888111888 -1.32167832168 c 128,-1,4
 216.643356643 -1.32167832168 216.643356643 -1.32167832168 173 20.5 c 0,5,6
 78.0303030303 67.9848484848 78.0303030303 67.9848484848 78.0303030303 178.223140496 c 0,7,8
 78.0303030303 260.634920635 78.0303030303 260.634920635 114 336 c 0,9,10
 186 485 186 485 389 680 c 1,11,-1
 146 680 l 1,12,-1
 146 700 l 1,13,-1
 419 700 l 1,14,-1
 425 680 l 1,15,16
 363 632 363 632 278 537 c 0,17,18
 97.756097561 335.550932568 97.756097561 335.550932568 97.756097561 187.981558596 c 0,19,20
 97.756097561 106.923780488 97.756097561 106.923780488 143.238951036 62.401739868 c 128,-1,21
 188.721804511 17.8796992481 188.721804511 17.8796992481 275.433320142 17.8796992481 c 0,22,23
 332.879699248 17.8796992481 332.879699248 17.8796992481 407 39 c 1,24,-1
 407 -200 l 1,0,-1
EndSplineSet
EndChar

StartChar: Zeta
Encoding: 918 918 195
Width: 604
Flags: HMW
HStem: 0 80 634 80
VStem: 69 568 78 487<0 19 0 19>
LayerCount: 2
Fore
SplineSet
565 0 m 1,0,-1
 78 0 l 1,1,-1
 78 19 l 1,2,-1
 535 681 l 1,3,-1
 92 681 l 1,4,-1
 91 700 l 1,5,-1
 559 700 l 1,6,-1
 559 681 l 1,7,-1
 102 19 l 1,8,-1
 565 19 l 1,9,-1
 565 0 l 1,0,-1
EndSplineSet
EndChar

StartChar: Epsilon
Encoding: 917 917 196
Width: 451
Flags: HMW
HStem: 0 19<97 410 97 410> 327 80 634 80 681 19<97 412 97 97>
VStem: 78 19<19 394 413 681>
LayerCount: 2
Fore
SplineSet
410 0 m 1,0,-1
 78 0 l 1,1,-1
 78 700 l 1,2,-1
 412 700 l 1,3,-1
 412 681 l 1,4,-1
 97 681 l 1,5,-1
 97 413 l 1,6,-1
 325 413 l 1,7,-1
 318 394 l 1,8,-1
 97 394 l 1,9,-1
 97 19 l 1,10,-1
 410 19 l 1,11,-1
 410 0 l 1,0,-1
EndSplineSet
EndChar

StartChar: epsilon
Encoding: 949 949 197
Width: 462
Flags: HMW
HStem: -12 75 336 68 634 75
VStem: 68 85 83 85 428 90
LayerCount: 2
Fore
SplineSet
353 475 m 1,0,1
 312.230769231 492.666666667 312.230769231 492.666666667 273.532051282 492.666666667 c 128,-1,2
 234.833333333 492.666666667 234.833333333 492.666666667 204.416666667 486.833333333 c 128,-1,3
 174 481 174 481 147.5 456.5 c 0,4,5
 117.632653061 428.886792453 117.632653061 428.886792453 117.632653061 392.167886022 c 128,-1,6
 117.632653061 355.448979592 117.632653061 355.448979592 137.816326531 328.224489796 c 128,-1,7
 158 301 158 301 205 301 c 2,8,-1
 352 301 l 1,9,-1
 346 282 l 1,10,-1
 240 282 l 2,11,12
 185 282 185 282 141 249 c 128,-1,13
 97 216 97 216 97 149.5 c 128,-1,14
 97 83 97 83 142 46 c 128,-1,15
 187 9 187 9 256 9 c 0,16,17
 295 9 295 9 335.5 17.5 c 128,-1,18
 376 26 376 26 396.5 34.5 c 2,19,-1
 417 43 l 1,20,-1
 423 23 l 1,21,22
 345 -11 345 -11 260.5 -11 c 128,-1,23
 176 -11 176 -11 130 30 c 0,24,25
 78.2831858407 76.0954213159 78.2831858407 76.0954213159 78.2831858407 150.869057875 c 0,26,27
 78.2831858407 256.628318584 78.2831858407 256.628318584 174 287 c 1,28,29
 138 291 138 291 118.169491525 322.728813559 c 128,-1,30
 98.3389830508 354.457627119 98.3389830508 354.457627119 98.3389830508 385.987359954 c 0,31,32
 98.3389830508 450.892460549 98.3389830508 450.892460549 151.5 484.5 c 0,33,34
 193.473684211 511.035087719 193.473684211 511.035087719 245.314536341 511.035087719 c 128,-1,35
 297.155388471 511.035087719 297.155388471 511.035087719 353 496 c 1,36,-1
 353 475 l 1,0,1
EndSplineSet
EndChar

StartChar: delta
Encoding: 948 948 198
Width: 490
Flags: HMW
HStem: -12 75 817 55
VStem: 47 90 127 341 459 90
LayerCount: 2
Fore
SplineSet
432 184 m 2,0,-1
 432 301 l 2,1,2
 432 357 432 357 388.5 401.5 c 128,-1,3
 345 446 345 446 256 491 c 1,4,5
 191 485 191 485 144 435.5 c 128,-1,6
 97 386 97 386 97 310 c 2,7,-1
 97 184 l 2,8,9
 97 82.9433962264 97 82.9433962264 153.5 43.5 c 0,10,11
 202.918918919 9 202.918918919 9 266 9 c 0,12,13
 329.333333333 9 329.333333333 9 377 42 c 0,14,15
 432 80.0769230769 432 80.0769230769 432 184 c 2,0,-1
231 506 m 1,16,17
 176.111111111 542.990338164 176.111111111 542.990338164 176.111111111 602.366255144 c 0,18,19
 176.111111111 639.666666667 176.111111111 639.666666667 206.055555556 672.333333333 c 128,-1,20
 236 705 236 705 296 705 c 2,21,-1
 338 705 l 1,22,-1
 328 686 l 1,23,-1
 295 686 l 2,24,25
 241 686 241 686 214 654 c 0,26,27
 195.307692308 631.846153846 195.307692308 631.846153846 195.307692308 612.557692308 c 0,28,29
 195.307692308 547.717948718 195.307692308 547.717948718 252.653846154 516.358974359 c 128,-1,30
 310 485 310 485 337.5 467 c 128,-1,31
 365 449 365 449 395.5 421.5 c 0,32,33
 451 371.459016393 451 371.459016393 451 285 c 2,34,-1
 451 184 l 2,35,36
 451 -10 451 -10 266 -10 c 0,37,38
 171 -10 171 -10 124.5 41.5 c 128,-1,39
 78 93 78 93 78 184 c 2,40,-1
 78 310 l 2,41,42
 78 388 78 388 120 440 c 128,-1,43
 162 492 162 492 231 506 c 1,16,17
EndSplineSet
EndChar

StartChar: _196
Encoding: 65540 -1 199
Width: 622
Flags: HMW
HStem: 0 21G<78 583 78 78> 0 65 245 55 622 91
VStem: 97 586 137 386 317 21
LayerCount: 2
Fore
SplineSet
556 19 m 1,0,-1
 328 674 l 1,1,-1
 105 19 l 1,2,-1
 556 19 l 1,0,-1
583 0 m 1,3,-1
 78 0 l 1,4,-1
 318 700 l 1,5,-1
 337 700 l 1,6,-1
 583 0 l 1,3,-1
EndSplineSet
EndChar

StartChar: Gamma
Encoding: 915 915 200
Width: 451
Flags: HMW
HStem: 0 21G<78 97 78 78> 327 80 634 80
VStem: 79 95
LayerCount: 2
Fore
SplineSet
97 0 m 1,0,-1
 78 0 l 1,1,-1
 78 700 l 1,2,-1
 412 700 l 1,3,-1
 412 680 l 1,4,-1
 97 680 l 1,5,-1
 97 0 l 1,0,-1
EndSplineSet
EndChar

StartChar: gamma
Encoding: 947 947 201
Width: 514
Flags: HMW
HStem: 0 21G 0 86 497 20G
VStem: 14 472 207 85
LayerCount: 2
Fore
SplineSet
264 -180 m 1,0,-1
 249 -197 l 1,1,2
 226.919354839 -169.548387097 226.919354839 -169.548387097 226.919354839 -138.491935484 c 0,3,4
 226.919354839 -107.435483871 226.919354839 -107.435483871 237 -78 c 1,5,-1
 259 -5 l 1,6,7
 233 -2 233 -2 212.5 7 c 128,-1,8
 192 16 192 16 167 47 c 128,-1,9
 142 78 142 78 129 129 c 1,10,-1
 21 501 l 1,11,-1
 40 501 l 1,12,-1
 146 140 l 2,13,14
 182.421875 15.96875 182.421875 15.96875 264.386474609 15.96875 c 0,15,16
 265.6875 15.96875 265.6875 15.96875 267 16 c 1,17,-1
 380 388 l 2,18,19
 395 436 395 436 413 464 c 128,-1,20
 431 492 431 492 465 510 c 1,21,-1
 482 494 l 1,22,23
 452 481 452 481 434 457.5 c 128,-1,24
 416 434 416 434 396 376 c 1,25,-1
 271 -42 l 1,26,27
 249.371428571 -106.885714286 249.371428571 -106.885714286 249.371428571 -133.842857143 c 0,28,29
 249.371428571 -160.8 249.371428571 -160.8 264 -180 c 1,0,-1
EndSplineSet
EndChar

StartChar: beta
Encoding: 946 946 202
Width: 487
Flags: HMW
HStem: -12 75 -9 21G<97 97> 359 68 656 75
VStem: 101 85 416 90 448 90
LayerCount: 2
Fore
SplineSet
97 531 m 2,0,-1
 97 463 l 1,1,2
 125.523316062 478.212435233 125.523316062 478.212435233 184.261658031 491.106217617 c 128,-1,3
 243 504 243 504 246 505 c 0,4,5
 273 512 273 512 290.5 532.5 c 0,6,7
 311.125 556.660714286 311.125 556.660714286 311.125 582.767857143 c 128,-1,8
 311.125 608.875 311.125 608.875 304.5625 629.4375 c 128,-1,9
 298 650 298 650 275 666 c 128,-1,10
 252 682 252 682 218 682 c 0,11,12
 97 682 97 682 97 531 c 2,0,-1
97 12 m 1,13,14
 154.670454545 -0.6875 154.670454545 -0.6875 213.875 -0.6875 c 1,15,-1
 307.5 8.5 l 1,16,17
 361 19 361 19 395 55 c 128,-1,18
 429 91 429 91 429 149 c 2,19,-1
 429 327 l 2,20,21
 429 385 429 385 402.5 421 c 128,-1,22
 376 457 376 457 338.08 468.04 c 128,-1,23
 300.16 479.08 300.16 479.08 257.472 479.08 c 0,24,25
 166.582857143 479.08 166.582857143 479.08 97 443 c 1,26,-1
 97 12 l 1,13,14
362.5 8.5 m 128,-1,28
 326 -8 326 -8 283.805555556 -13.5972222222 c 128,-1,29
 241.611111111 -19.1944444444 241.611111111 -19.1944444444 201.345238095 -19.1944444444 c 128,-1,30
 161.079365079 -19.1944444444 161.079365079 -19.1944444444 97 -9 c 1,31,-1
 97 -161 l 1,32,-1
 78 -161 l 1,33,-1
 78 537 l 2,34,35
 78 614 78 614 112.5 657 c 128,-1,36
 147 700 147 700 218 701 c 0,37,38
 262 701 262 701 292 676.5 c 0,39,40
 332.976744186 643.035658915 332.976744186 643.035658915 332.976744186 594.164954029 c 0,41,42
 332.976744186 572.976744186 332.976744186 572.976744186 321.988372093 544.488372093 c 128,-1,43
 311 516 311 516 277 498 c 1,44,45
 354 496 354 496 401 448.5 c 128,-1,46
 448 401 448 401 448 330 c 2,47,-1
 448 146 l 2,48,49
 448 95 448 95 423.5 60 c 128,-1,27
 399 25 399 25 362.5 8.5 c 128,-1,28
EndSplineSet
EndChar

StartChar: Beta
Encoding: 914 914 203
Width: 550
Flags: HMW
HStem: 0 80 19 0<97 97 306 306> 327 80 413 0<97 97 335 335> 413 234 634 80
VStem: 78 19<19 19 19 394 413 681> 78 95 417 58 451 60 515 95
LayerCount: 2
Fore
SplineSet
97 19 m 1,0,-1
 306 19 l 2,1,2
 396 19 396 19 444 69 c 128,-1,3
 492 119 492 119 492 205 c 128,-1,4
 492 291 492 291 443.5 342.5 c 128,-1,5
 395 394 395 394 309 394 c 2,6,-1
 97 394 l 1,7,-1
 97 19 l 1,0,-1
97 413 m 1,8,-1
 335 413 l 2,9,10
 380 413 380 413 416.5 445.5 c 0,11,12
 456.347826087 480.980941036 456.347826087 480.980941036 456.347826087 543.207861823 c 128,-1,13
 456.347826087 605.434782609 456.347826087 605.434782609 416.173913043 643.217391304 c 128,-1,14
 376 681 376 681 291 681 c 2,15,-1
 97 681 l 1,16,-1
 97 413 l 1,8,-1
308 0 m 2,17,-1
 78 0 l 1,18,-1
 78 700 l 1,19,-1
 299 700 l 2,20,21
 381 700 381 700 428.087378641 658.252427184 c 128,-1,22
 475.174757282 616.504854369 475.174757282 616.504854369 475.174757282 539.647280611 c 0,23,24
 475.174757282 496.498522583 475.174757282 496.498522583 451.087378641 457.749261292 c 128,-1,25
 427 419 427 419 388 404 c 0,26,27
 387 403 387 403 387 402 c 2,28,-1
 387 401 l 1,29,30
 511 352 511 352 511 209 c 0,31,32
 511 128.837209302 511 128.837209302 470.5 69.5 c 0,33,34
 449 38 449 38 407.5 19 c 128,-1,35
 366 0 366 0 308 0 c 2,17,-1
EndSplineSet
EndChar

StartChar: Alpha
Encoding: 913 913 204
Width: 539
Flags: HMW
HStem: 0 21G<12 31 12 12 496 517 496 496> 215 80 245 55 628 86
VStem: -7 663 31 465<0 0>
LayerCount: 2
Fore
SplineSet
391 300 m 1,0,-1
 264 660 l 1,1,-1
 137 300 l 1,2,-1
 391 300 l 1,0,-1
517 0 m 1,3,-1
 496 0 l 1,4,-1
 398 281 l 1,5,-1
 130 281 l 1,6,-1
 31 0 l 1,7,-1
 12 0 l 1,8,-1
 257 700 l 1,9,-1
 271 700 l 1,10,-1
 517 0 l 1,3,-1
EndSplineSet
EndChar

StartChar: alpha
Encoding: 945 945 205
Width: 502
Flags: HMW
HStem: -198 21G -12 75 454 63 454 75
VStem: 76 90 481 85
LayerCount: 2
Fore
SplineSet
424 434 m 1,0,1
 322.8 489.2 322.8 489.2 228.54 489.2 c 0,2,3
 162.773913043 489.2 162.773913043 489.2 129.886956522 452.6 c 128,-1,4
 97 416 97 416 97 351 c 2,5,-1
 97 162 l 2,6,7
 97 89 97 89 139 53 c 128,-1,8
 181 17 181 17 253.5 14.5 c 0,9,10
 268 14 268 14 306.8 14 c 128,-1,11
 345.6 14 345.6 14 424 22 c 1,12,-1
 424 434 l 1,0,1
233.584423306 507.655172414 m 0,13,14
 324.688155922 507.655172414 324.688155922 507.655172414 425 454 c 1,15,-1
 433 493 l 1,16,-1
 450 486 l 1,17,18
 443 455 443 455 443 423 c 2,19,-1
 443 22 l 1,20,21
 450 20 450 20 463 13 c 1,22,-1
 457 1 l 1,23,24
 453.428571429 4.57142857143 453.428571429 4.57142857143 443.071428571 4.57142857143 c 128,-1,25
 432.714285714 4.57142857143 432.714285714 4.57142857143 409.857142857 2.28571428571 c 0,26,27
 334.5 -5.25 334.5 -5.25 301.5 -5.25 c 128,-1,28
 268.5 -5.25 268.5 -5.25 254.25 -4.125 c 128,-1,29
 240 -3 240 -3 211 1 c 128,-1,30
 182 5 182 5 166 13.5 c 128,-1,31
 150 22 150 22 130.5 35 c 128,-1,32
 111 48 111 48 101.5 66.5 c 0,33,34
 78 112.263157895 78 112.263157895 78 169 c 2,35,-1
 78 354 l 2,36,37
 78 411 78 411 101 447 c 128,-1,38
 124 483 124 483 158.612068966 495.327586207 c 128,-1,39
 193.224137931 507.655172414 193.224137931 507.655172414 233.584423306 507.655172414 c 0,13,14
EndSplineSet
EndChar

StartChar: upsilondieresistonos
Encoding: 944 944 206
Width: 497
Flags: HMW
HStem: -12 75 497 20G 579 111 580 111 611 143
VStem: 64 82 178 30<590 598> 241 85 337 30<591 599> 405 85
LayerCount: 2
Fore
SplineSet
352 580 m 128,-1,1
 346 580 346 580 341.5 584.5 c 128,-1,2
 337 589 337 589 337 595 c 128,-1,3
 337 601 337 601 341.5 605.5 c 128,-1,4
 346 610 346 610 352 610 c 128,-1,5
 358 610 358 610 362.5 605.5 c 128,-1,6
 367 601 367 601 367 595 c 128,-1,7
 367 589 367 589 362.5 584.5 c 128,-1,0
 358 580 358 580 352 580 c 128,-1,1
193 579 m 128,-1,9
 187 579 187 579 182.5 583.5 c 128,-1,10
 178 588 178 588 178 594 c 128,-1,11
 178 600 178 600 182.5 604.5 c 128,-1,12
 187 609 187 609 193 609 c 128,-1,13
 199 609 199 609 203.5 604.5 c 128,-1,14
 208 600 208 600 208 594 c 128,-1,15
 208 588 208 588 203.5 583.5 c 128,-1,8
 199 579 199 579 193 579 c 128,-1,9
277 611 m 1,16,-1
 258 611 l 1,17,-1
 313 739 l 2,18,19
 318.173913043 751.565217391 318.173913043 751.565217391 328.264650284 751.565217391 c 0,20,21
 331.826086957 751.565217391 331.826086957 751.565217391 336 750 c 0,22,23
 352 743 352 743 340 724 c 1,24,-1
 277 611 l 1,16,-1
439 165 m 2,25,-1
 439 501 l 1,26,-1
 458 501 l 1,27,-1
 458 172 l 2,28,29
 458 -10 458 -10 268 -10 c 0,30,31
 78 -10 78 -10 78 172 c 2,32,-1
 78 501 l 1,33,-1
 97 501 l 1,34,-1
 97 165 l 2,35,36
 97 9 97 9 268 9 c 0,37,38
 439 9 439 9 439 165 c 2,25,-1
EndSplineSet
EndChar

StartChar: iotadieresistonos
Encoding: 912 912 207
Width: 197
Flags: HMW
HStem: 0 21G<91 110 91 91> 497 20G 579 143 580 111 610 104 611 143
VStem: 8 30<590 598> 64 85 91 19<0 501> 167 30<591 599>
LayerCount: 2
Fore
SplineSet
182 580 m 128,-1,1
 176 580 176 580 171.5 584.5 c 128,-1,2
 167 589 167 589 167 595 c 128,-1,3
 167 601 167 601 171.5 605.5 c 128,-1,4
 176 610 176 610 182 610 c 128,-1,5
 188 610 188 610 192.5 605.5 c 128,-1,6
 197 601 197 601 197 595 c 128,-1,7
 197 589 197 589 192.5 584.5 c 128,-1,0
 188 580 188 580 182 580 c 128,-1,1
23 579 m 128,-1,9
 17 579 17 579 12.5 583.5 c 128,-1,10
 8 588 8 588 8 594 c 128,-1,11
 8 600 8 600 12.5 604.5 c 128,-1,12
 17 609 17 609 23 609 c 128,-1,13
 29 609 29 609 33.5 604.5 c 128,-1,14
 38 600 38 600 38 594 c 128,-1,15
 38 588 38 588 33.5 583.5 c 128,-1,8
 29 579 29 579 23 579 c 128,-1,9
107 611 m 1,16,-1
 88 611 l 1,17,-1
 143 739 l 2,18,19
 148.173913043 751.565217391 148.173913043 751.565217391 158.264650284 751.565217391 c 0,20,21
 175.142857143 751.565217391 175.142857143 751.565217391 175.142857143 738.081632653 c 0,22,23
 175.142857143 732.142857143 175.142857143 732.142857143 170 724 c 2,24,-1
 107 611 l 1,16,-1
110 0 m 1,25,-1
 91 0 l 1,26,-1
 91 501 l 1,27,-1
 110 501 l 1,28,-1
 110 0 l 1,25,-1
EndSplineSet
EndChar

StartChar: Alphatonos
Encoding: 902 902 208
Width: 622
Flags: HMW
HStem: 0 21G<78 97 78 78 562 583 562 562> 245 55 568 143 569 143
VStem: 97 465<0 0> 137 386
LayerCount: 2
Fore
SplineSet
133 568 m 1,0,-1
 114 568 l 1,1,-1
 169 696 l 2,2,3
 174.173913043 708.565217391 174.173913043 708.565217391 184.264650284 708.565217391 c 0,4,5
 187.826086957 708.565217391 187.826086957 708.565217391 192 707 c 0,6,7
 208 700 208 700 196 681 c 1,8,-1
 133 568 l 1,0,-1
457 300 m 1,9,-1
 330 660 l 1,10,-1
 203 300 l 1,11,-1
 457 300 l 1,9,-1
583 0 m 1,12,-1
 562 0 l 1,13,-1
 464 281 l 1,14,-1
 196 281 l 1,15,-1
 97 0 l 1,16,-1
 78 0 l 1,17,-1
 323 700 l 1,18,-1
 337 700 l 1,19,-1
 583 0 l 1,12,-1
EndSplineSet
EndChar

StartChar: sterling
Encoding: 163 163 209
Width: 477
Flags: HMW
HStem: 0 80 435 80 694 20G
VStem: 78 360<0 15 15 15> 101 320<339 358 339 358>
LayerCount: 2
Fore
SplineSet
438 0 m 1,0,-1
 78 0 l 1,1,-1
 78 15 l 1,2,3
 128 40 128 40 160 94 c 128,-1,4
 192 148 192 148 193 205 c 0,5,6
 193 259.076923077 193 259.076923077 180.5 297.538461538 c 128,-1,7
 168 336 168 336 167 339 c 1,8,-1
 101 339 l 1,9,-1
 101 358 l 1,10,-1
 160 358 l 1,11,12
 125 465 125 465 125 515 c 0,13,14
 125 602 125 602 179.5 655.5 c 128,-1,15
 234 709 234 709 310.5 709 c 128,-1,16
 387 709 387 709 427 684 c 1,17,-1
 420 665 l 1,18,19
 375 690 375 690 318 690 c 0,20,21
 238 690 238 690 191 638 c 128,-1,22
 144 586 144 586 144 513 c 0,23,24
 144 468 144 468 180 358 c 1,25,-1
 421 358 l 1,26,-1
 421 339 l 1,27,-1
 188 339 l 1,28,29
 213.037037037 270.62962963 213.037037037 270.62962963 213.037037037 211.294238683 c 128,-1,30
 213.037037037 151.958847737 213.037037037 151.958847737 185.518518519 99.9794238683 c 128,-1,31
 158 48 158 48 119 20 c 1,32,-1
 438 20 l 1,33,-1
 438 0 l 1,0,-1
EndSplineSet
EndChar

StartChar: w_w_w
Encoding: 65541 -1 210
Width: 1916
Flags: HMW
HStem: 0 94 411 106
VStem: 18 629<501 501> 626 631<499 501 501 501> 1235 631<501 501>
LayerCount: 2
Fore
SplineSet
1698 0 m 1,0,-1
 1685 0 l 1,1,-1
 1551 455 l 1,2,-1
 1418 0 l 1,3,-1
 1406 0 l 1,4,-1
 1246 474 l 1,5,-1
 1087 0 l 1,6,-1
 1074 0 l 1,7,-1
 940 455 l 1,8,-1
 807 0 l 1,9,-1
 795 0 l 1,10,-1
 636 470 l 1,11,-1
 479 0 l 1,12,-1
 466 0 l 1,13,-1
 332 455 l 1,14,-1
 199 0 l 1,15,-1
 187 0 l 1,16,-1
 18 501 l 1,17,-1
 38 501 l 1,18,-1
 191 37 l 1,19,-1
 326 501 l 1,20,-1
 337 501 l 1,21,-1
 473 38 l 1,22,-1
 626 499 l 1,23,-1
 626 501 l 1,24,-1
 647 501 l 1,25,-1
 646 499 l 1,26,-1
 799 37 l 1,27,-1
 934 501 l 1,28,-1
 945 501 l 1,29,-1
 1081 38 l 1,30,-1
 1235 501 l 1,31,-1
 1257 501 l 1,32,-1
 1410 37 l 1,33,-1
 1545 501 l 1,34,-1
 1556 501 l 1,35,-1
 1692 38 l 1,36,-1
 1846 501 l 1,37,-1
 1866 501 l 1,38,-1
 1698 0 l 1,0,-1
EndSplineSet
EndChar

StartChar: f_t
Encoding: 65542 -1 211
Width: 518
Flags: HMW
HStem: 482 19<96 238 96 248 342 471>
VStem: 306 18
LayerCount: 2
Fore
SplineSet
78 561 m 2,0,1
 78 628 78 628 121.676470588 666.823529412 c 128,-1,2
 165.352941176 705.647058824 165.352941176 705.647058824 227.766624041 705.647058824 c 128,-1,3
 290.180306905 705.647058824 290.180306905 705.647058824 342 657 c 1,4,-1
 342 501 l 1,5,-1
 479 501 l 1,6,-1
 471 482 l 1,7,-1
 342 482 l 1,8,-1
 342 132 l 2,9,10
 342 32 342 32 435 3 c 1,11,-1
 430 -13 l 1,12,13
 374 3 374 3 349 38 c 128,-1,14
 324 73 324 73 324 132 c 2,15,-1
 324 647 l 1,16,17
 278.044715447 686.390243902 278.044715447 686.390243902 220.149613325 686.390243902 c 0,18,19
 155.889850511 686.390243902 155.889850511 686.390243902 118 633 c 0,20,21
 96 602 96 602 96 560 c 2,22,-1
 96 501 l 1,23,-1
 248 501 l 1,24,-1
 238 482 l 1,25,-1
 96 482 l 1,26,-1
 96 0 l 1,27,-1
 78 0 l 1,28,-1
 78 561 l 2,0,1
EndSplineSet
EndChar

StartChar: t_t
Encoding: 65543 -1 212
Width: 508
Flags: HMW
HStem: 0 75 442 75
VStem: 44 85 49 85 278 85 279 21 364 85 513 21
LayerCount: 2
Fore
SplineSet
390 5 m 1,0,-1
 384 -13 l 1,1,2
 328 3 328 3 303 38 c 128,-1,3
 278 73 278 73 278 132 c 2,4,-1
 278 482 l 1,5,-1
 63 482 l 1,6,-1
 63 132 l 2,7,8
 63 77 63 77 84.5 49 c 128,-1,9
 106 21 106 21 156 5 c 1,10,-1
 150 -13 l 1,11,12
 94 3 94 3 69 38 c 128,-1,13
 44 73 44 73 44 132 c 2,14,-1
 44 700 l 1,15,-1
 63 700 l 1,16,-1
 63 501 l 1,17,-1
 278 501 l 1,18,-1
 278 700 l 1,19,-1
 297 700 l 1,20,-1
 297 501 l 1,21,-1
 454 501 l 1,22,-1
 445 482 l 1,23,-1
 297 482 l 1,24,-1
 297 132 l 2,25,26
 297 77 297 77 318.5 49 c 128,-1,27
 340 21 340 21 390 5 c 1,0,-1
EndSplineSet
EndChar

StartChar: f_f
Encoding: 64256 64256 213
Width: 551
Flags: HMW
HStem: 0 21G<78 98 78 78 311 331 311 311> 482 19<98 239 98 248 331 472> 658 49
VStem: 120 56 312 19 357 56
LayerCount: 2
Fore
SplineSet
351 664 m 1,0,1
 391.268817204 699.666666667 391.268817204 699.666666667 450.125 699.666666667 c 0,2,3
 487.833333333 699.666666667 487.833333333 699.666666667 512 683 c 1,4,-1
 505 668 l 1,5,6
 474.944954128 680.403669725 474.944954128 680.403669725 445.233944954 680.403669725 c 128,-1,7
 415.52293578 680.403669725 415.52293578 680.403669725 386.5 665.5 c 0,8,9
 331 637 331 637 331 560 c 2,10,-1
 331 501 l 1,11,-1
 481 501 l 1,12,-1
 472 482 l 1,13,-1
 331 482 l 1,14,-1
 331 0 l 1,15,-1
 311 0 l 1,16,-1
 311 561 l 2,17,18
 311 615 311 615 338 651 c 1,19,20
 290.013737374 687.826666667 290.013737374 687.826666667 234.523535354 687.826666667 c 128,-1,21
 179.033333333 687.826666667 179.033333333 687.826666667 138.516666667 655.413333333 c 128,-1,22
 98 623 98 623 98 558 c 2,23,-1
 98 501 l 1,24,-1
 248 501 l 1,25,-1
 239 482 l 1,26,-1
 98 482 l 1,27,-1
 98 0 l 1,28,-1
 78 0 l 1,29,-1
 78 561 l 2,30,31
 78 610 78 610 103.5 646 c 0,32,33
 146.040246212 706.056818182 146.040246212 706.056818182 218.948922822 706.056818182 c 128,-1,34
 291.857599432 706.056818182 291.857599432 706.056818182 351 664 c 1,0,1
EndSplineSet
EndChar

StartChar: f_f_l
Encoding: 64260 64260 214
Width: 612
Flags: HMW
HStem: 0 21G<78 98 78 78 308 326 308 308 556 573 556 556>
VStem: 536 56
LayerCount: 2
Fore
SplineSet
349 665 m 1,0,1
 388.552941176 704.552941176 388.552941176 704.552941176 454.932480818 704.552941176 c 128,-1,2
 521.31202046 704.552941176 521.31202046 704.552941176 573 657 c 1,3,-1
 573 0 l 1,4,-1
 556 0 l 1,5,-1
 556 648 l 1,6,7
 510.967789708 687.671232877 510.967789708 687.671232877 456.631155128 687.671232877 c 128,-1,8
 402.294520548 687.671232877 402.294520548 687.671232877 364.147260274 654.835616438 c 128,-1,9
 326 622 326 622 326 565 c 2,10,-1
 326 501 l 1,11,-1
 478 501 l 1,12,-1
 470 482 l 1,13,-1
 326 482 l 1,14,-1
 326 0 l 1,15,-1
 308 0 l 1,16,-1
 308 561 l 2,17,18
 308 614 308 614 337 651 c 1,19,20
 288.851984797 686.831081081 288.851984797 686.831081081 233.915857264 686.831081081 c 128,-1,21
 178.97972973 686.831081081 178.97972973 686.831081081 138.489864865 654.915540541 c 128,-1,22
 98 623 98 623 98 558 c 2,23,-1
 98 501 l 1,24,-1
 248 501 l 1,25,-1
 239 482 l 1,26,-1
 98 482 l 1,27,-1
 98 0 l 1,28,-1
 78 0 l 1,29,-1
 78 561 l 2,30,31
 78 626 78 626 119.987951807 666.012048193 c 128,-1,32
 161.975903614 706.024096386 161.975903614 706.024096386 222.155873494 706.024096386 c 128,-1,33
 282.335843373 706.024096386 282.335843373 706.024096386 349 665 c 1,0,1
EndSplineSet
EndChar

StartChar: Hcircumflex
Encoding: 292 292 215
Width: 588
Flags: HMW
HStem: 730 142
VStem: 78 19<0 394 413 700> 79 21 139 251 489 19<0 394 394 394 413 700>
LayerCount: 2
Fore
SplineSet
440 772 m 1,0,-1
 423 756 l 1,1,-1
 297 883 l 1,2,-1
 166 756 l 1,3,-1
 150 772 l 1,4,-1
 298 913 l 1,5,-1
 440 772 l 1,0,-1
508 0 m 1,6,-1
 489 0 l 1,7,-1
 489 394 l 1,8,-1
 97 394 l 1,9,-1
 97 0 l 1,10,-1
 78 0 l 1,11,-1
 78 700 l 1,12,-1
 97 700 l 1,13,-1
 97 413 l 1,14,-1
 489 413 l 1,15,-1
 489 700 l 1,16,-1
 508 700 l 1,17,-1
 508 0 l 1,6,-1
EndSplineSet
EndChar

StartChar: Cdotaccent
Encoding: 266 266 216
Width: 430
Flags: HMW
HStem: -12 52 659 51 679 104
VStem: 66 19<183 185 185 504 504 513> 225 66
LayerCount: 2
Fore
SplineSet
265.5 770 m 128,-1,1
 252 770 252 770 252 783.5 c 128,-1,2
 252 797 252 797 265.5 797 c 128,-1,3
 279 797 279 797 279 783.5 c 128,-1,0
 279 770 279 770 265.5 770 c 128,-1,1
260.49540292 7.09302325581 m 0,4,5
 333.093023256 7.09302325581 333.093023256 7.09302325581 421 41 c 1,6,-1
 427 23 l 1,7,8
 341.745951417 -10.0576923077 341.745951417 -10.0576923077 265.350591716 -10.0576923077 c 0,9,10
 248.615384615 -10.0576923077 248.615384615 -10.0576923077 216.307692308 -7.02884615385 c 128,-1,11
 184 -4 184 -4 147.5 15.5 c 128,-1,12
 111 35 111 35 88.5 77.5 c 128,-1,13
 66 120 66 120 66 183 c 2,14,-1
 66 504 l 2,15,16
 66 580 66 580 87.5 619 c 128,-1,17
 109 658 109 658 153 685 c 1,18,19
 197.444444444 709.888888889 197.444444444 709.888888889 259.666666667 709.888888889 c 0,20,21
 340.75862069 709.888888889 340.75862069 709.888888889 402 677 c 1,22,-1
 394 660 l 1,23,24
 324 691 324 691 263 691 c 0,25,26
 218.142857143 691 218.142857143 691 184.071428571 677.5 c 128,-1,27
 150 664 150 664 131 645.5 c 128,-1,28
 112 627 112 627 98.5 593 c 128,-1,29
 85 559 85 559 85 513 c 2,30,-1
 85 185 l 2,31,32
 85 120 85 120 111.5 77.5 c 128,-1,33
 138 35 138 35 178.11627907 21.0465116279 c 128,-1,34
 218.23255814 7.09302325581 218.23255814 7.09302325581 260.49540292 7.09302325581 c 0,4,5
EndSplineSet
EndChar

StartChar: Ccircumflex
Encoding: 264 264 217
Width: 430
Flags: HMW
HStem: -12 52 659 51 730 142 825 47
VStem: 66 19<183 185 185 504 504 513> 120 251
LayerCount: 2
Fore
SplineSet
260.49540292 7.09302325581 m 0,0,1
 333.093023256 7.09302325581 333.093023256 7.09302325581 421 41 c 1,2,-1
 427 23 l 1,3,4
 341.745951417 -10.0576923077 341.745951417 -10.0576923077 265.350591716 -10.0576923077 c 0,5,6
 248.615384615 -10.0576923077 248.615384615 -10.0576923077 216.307692308 -7.02884615385 c 128,-1,7
 184 -4 184 -4 147.5 15.5 c 128,-1,8
 111 35 111 35 88.5 77.5 c 128,-1,9
 66 120 66 120 66 183 c 2,10,-1
 66 504 l 2,11,12
 66 580 66 580 87.5 619 c 128,-1,13
 109 658 109 658 153 685 c 1,14,15
 197.444444444 709.888888889 197.444444444 709.888888889 259.666666667 709.888888889 c 0,16,17
 340.75862069 709.888888889 340.75862069 709.888888889 402 677 c 1,18,-1
 394 660 l 1,19,20
 324 691 324 691 263 691 c 0,21,22
 218.142857143 691 218.142857143 691 184.071428571 677.5 c 128,-1,23
 150 664 150 664 131 645.5 c 128,-1,24
 112 627 112 627 98.5 593 c 128,-1,25
 85 559 85 559 85 513 c 2,26,-1
 85 185 l 2,27,28
 85 120 85 120 111.5 77.5 c 128,-1,29
 138 35 138 35 178.11627907 21.0465116279 c 128,-1,30
 218.23255814 7.09302325581 218.23255814 7.09302325581 260.49540292 7.09302325581 c 0,0,1
421 772 m 1,31,-1
 404 756 l 1,32,-1
 278 883 l 1,33,-1
 147 756 l 1,34,-1
 131 772 l 1,35,-1
 279 913 l 1,36,-1
 421 772 l 1,31,-1
EndSplineSet
EndChar

StartChar: cdotaccent
Encoding: 267 267 218
Width: 439
Flags: HMW
HStem: -12 51 460 69 487 104
VStem: 78 19<180 308 308 314 169 405.5> 224 66
LayerCount: 2
Fore
SplineSet
264.5 578 m 128,-1,1
 251 578 251 578 251 591.5 c 128,-1,2
 251 605 251 605 264.5 605 c 128,-1,3
 278 605 278 605 278 591.5 c 128,-1,0
 278 578 278 578 264.5 578 c 128,-1,1
123 71 m 128,-1,5
 150 33 150 33 192.672413793 20.6724137931 c 128,-1,6
 235.344827586 8.34482758621 235.344827586 8.34482758621 285.193103448 8.34482758621 c 128,-1,7
 335.04137931 8.34482758621 335.04137931 8.34482758621 395 25 c 1,8,-1
 400 6 l 1,9,10
 336 -11.0666666667 336 -11.0666666667 284 -11.0666666667 c 128,-1,11
 232 -11.0666666667 232 -11.0666666667 181.5 5.46666666667 c 0,12,13
 78 39.3518151815 78 39.3518151815 78 180 c 2,14,-1
 78 308 l 2,15,16
 78 379 78 379 106 427 c 0,17,18
 154.239130435 509.695652174 154.239130435 509.695652174 263.506616257 509.695652174 c 0,19,20
 329.913043478 509.695652174 329.913043478 509.695652174 398 478 c 1,21,-1
 391 458 l 1,22,23
 330.278611632 490.219512195 330.278611632 490.219512195 265.169541939 490.219512195 c 0,24,25
 227.512195122 490.219512195 227.512195122 490.219512195 189.756097561 476.609756098 c 128,-1,26
 152 463 152 463 124.5 420 c 128,-1,27
 97 377 97 377 97 314 c 2,28,-1
 97 169 l 1,29,4
 96 109 96 109 123 71 c 128,-1,5
EndSplineSet
EndChar

StartChar: ccircumflex
Encoding: 265 265 219
Width: 471
Flags: HMW
HStem: -12 51 460 69 538 142 633 47
VStem: 78 19<180 308 308 314 169 405.5> 109 251
LayerCount: 2
Fore
SplineSet
410 580 m 1,0,-1
 393 564 l 1,1,-1
 267 691 l 1,2,-1
 136 564 l 1,3,-1
 120 580 l 1,4,-1
 268 721 l 1,5,-1
 410 580 l 1,0,-1
123 71 m 128,-1,7
 150 33 150 33 192.672413793 20.6724137931 c 128,-1,8
 235.344827586 8.34482758621 235.344827586 8.34482758621 285.193103448 8.34482758621 c 128,-1,9
 335.04137931 8.34482758621 335.04137931 8.34482758621 395 25 c 1,10,-1
 400 6 l 1,11,12
 336 -11.0666666667 336 -11.0666666667 284 -11.0666666667 c 128,-1,13
 232 -11.0666666667 232 -11.0666666667 181.5 5.46666666667 c 0,14,15
 78 39.3518151815 78 39.3518151815 78 180 c 2,16,-1
 78 308 l 2,17,18
 78 379 78 379 106 427 c 0,19,20
 154.239130435 509.695652174 154.239130435 509.695652174 263.506616257 509.695652174 c 0,21,22
 329.913043478 509.695652174 329.913043478 509.695652174 398 478 c 1,23,-1
 391 458 l 1,24,25
 330.278611632 490.219512195 330.278611632 490.219512195 265.169541939 490.219512195 c 0,26,27
 227.512195122 490.219512195 227.512195122 490.219512195 189.756097561 476.609756098 c 128,-1,28
 152 463 152 463 124.5 420 c 128,-1,29
 97 377 97 377 97 314 c 2,30,-1
 97 169 l 1,31,6
 96 109 96 109 123 71 c 128,-1,7
EndSplineSet
EndChar

StartChar: Idotaccent
Encoding: 304 304 220
Width: 267
Flags: HMW
HStem: 679 104
VStem: 133 66 164 19<0 679 679 679>
LayerCount: 2
Fore
SplineSet
173.5 770 m 0,0,1
 160 770 160 770 160 783.5 c 0,2,3
 160 797 160 797 173.5 797 c 0,4,5
 187 797 187 797 187 783.5 c 0,6,7
 187 770 187 770 173.5 770 c 0,0,1
183 0 m 1,8,-1
 164 0 l 1,9,-1
 164 679 l 1,10,-1
 78 681 l 1,11,-1
 78 700 l 1,12,-1
 183 700 l 1,13,-1
 183 0 l 1,8,-1
EndSplineSet
EndChar

StartChar: Hbar
Encoding: 294 294 221
Width: 685
Flags: HMW
HStem: 363 80
VStem: 78 527<519 538 519 538> 127 19<0 394 413 519 538 700> 128 21 538 19<0 394 394 394 413 519 538 700>
LayerCount: 2
Fore
SplineSet
538 413 m 1,0,-1
 538 519 l 1,1,-1
 146 519 l 1,2,-1
 146 413 l 1,3,-1
 538 413 l 1,0,-1
557 0 m 1,4,-1
 538 0 l 1,5,-1
 538 394 l 1,6,-1
 146 394 l 1,7,-1
 146 0 l 1,8,-1
 127 0 l 1,9,-1
 127 519 l 1,10,-1
 78 519 l 1,11,-1
 78 538 l 1,12,-1
 127 538 l 1,13,-1
 127 700 l 1,14,-1
 146 700 l 1,15,-1
 146 538 l 1,16,-1
 538 538 l 1,17,-1
 538 700 l 1,18,-1
 557 700 l 1,19,-1
 557 538 l 1,20,-1
 605 538 l 1,21,-1
 605 519 l 1,22,-1
 557 519 l 1,23,-1
 557 0 l 1,4,-1
EndSplineSet
EndChar

StartChar: Gbreve
Encoding: 286 286 222
Width: 537
Flags: HMW
HStem: 0 21G<457 476 457 457> 68 20G<457 457> 659 51 728 20<245.5 305 245.5 307> 857 20G
VStem: 65 19<189 497> 163 226<841 846 810 846> 457 19<0 88 88 88 182 281 281 281>
LayerCount: 2
Fore
SplineSet
389 846 m 1,0,-1
 389 841 l 2,1,2
 389 794 389 794 355.5 761 c 128,-1,3
 322 728 322 728 276 728 c 128,-1,4
 230 728 230 728 196.5 761 c 128,-1,5
 163 794 163 794 163 841 c 2,6,-1
 163 846 l 1,7,-1
 184 846 l 1,8,-1
 184 841 l 2,9,10
 184 808 184 808 209 778 c 128,-1,11
 234 748 234 748 275 748 c 128,-1,12
 316 748 316 748 342 778.5 c 128,-1,13
 368 809 368 809 368 841 c 2,14,-1
 368 846 l 1,15,-1
 389 846 l 1,0,-1
394 659 m 1,16,17
 319.633333333 691.333333333 319.633333333 691.333333333 261.777777778 691.333333333 c 0,18,19
 180.008547009 691.333333333 180.008547009 691.333333333 133 645.5 c 0,20,21
 113 626 113 626 98.5 587.5 c 128,-1,22
 84 549 84 549 84 497 c 2,23,-1
 84 187 l 2,24,25
 84 109 84 109 136 59 c 128,-1,26
 188 9 188 9 280.5 9 c 128,-1,27
 373 9 373 9 415 59 c 128,-1,28
 457 109 457 109 457 182 c 2,29,-1
 457 281 l 1,30,-1
 346 281 l 1,31,-1
 338 300 l 1,32,-1
 476 300 l 1,33,-1
 476 0 l 1,34,-1
 457 0 l 1,35,-1
 457 88 l 1,36,37
 411 -10 411 -10 276 -10 c 0,38,39
 188 -10 188 -10 126.5 40 c 128,-1,40
 65 90 65 90 65 189 c 2,41,-1
 65 503 l 2,42,43
 65 631 65 631 152 684 c 1,44,45
 197.161290323 709.290322581 197.161290323 709.290322581 258.638917794 709.290322581 c 0,46,47
 335.529032258 709.290322581 335.529032258 709.290322581 401 676 c 1,48,-1
 394 659 l 1,16,17
EndSplineSet
EndChar

StartChar: Jcircumflex
Encoding: 308 308 223
Width: 247
Flags: HMW
HStem: -17 80 728 20<85.5 145 85.5 147> 857 20G
VStem: 3 226<841 846 810 846> 110 18<118 122 122 679 679 679>
LayerCount: 2
Fore
SplineSet
229 846 m 1,0,-1
 229 841 l 2,1,2
 229 794 229 794 195.5 761 c 128,-1,3
 162 728 162 728 116 728 c 128,-1,4
 70 728 70 728 36.5 761 c 128,-1,5
 3 794 3 794 3 841 c 2,6,-1
 3 846 l 1,7,-1
 24 846 l 1,8,-1
 24 841 l 2,9,10
 24 808 24 808 49 778 c 128,-1,11
 74 748 74 748 115 748 c 0,12,13
 156 748 156 748 182 778.5 c 128,-1,14
 208 809 208 809 208 841 c 2,15,-1
 208 846 l 1,16,-1
 229 846 l 1,0,-1
24 -37 m 1,17,-1
 18 -19 l 1,18,19
 110 -6 110 -6 110 118 c 2,20,-1
 110 679 l 1,21,-1
 26 681 l 1,22,-1
 26 700 l 1,23,-1
 128 700 l 1,24,-1
 128 122 l 2,25,26
 128 47 128 47 104 10 c 128,-1,27
 80 -27 80 -27 24 -37 c 1,17,-1
EndSplineSet
EndChar

StartChar: Zdotaccent
Encoding: 379 379 224
Width: 550
Flags: HMW
HStem: 0 80 634 80
VStem: 31 487<0 19 0 19> 247 66
LayerCount: 2
Fore
SplineSet
287.5 766 m 0,0,1
 274 766 274 766 274 779.5 c 0,2,3
 274 793 274 793 287.5 793 c 0,4,5
 301 793 301 793 301 779.5 c 0,6,7
 301 766 301 766 287.5 766 c 0,0,1
518 0 m 1,8,-1
 31 0 l 1,9,-1
 31 19 l 1,10,-1
 488 681 l 1,11,-1
 45 681 l 1,12,-1
 44 700 l 1,13,-1
 512 700 l 1,14,-1
 512 681 l 1,15,-1
 55 19 l 1,16,-1
 518 19 l 1,17,-1
 518 0 l 1,8,-1
EndSplineSet
EndChar

StartChar: hbar
Encoding: 295 295 225
Width: 548
Flags: HMW
HStem: 0 21G<140 159 140 140 490 509 490 490> 454 21<159 159> 460 49 694 20G
VStem: 78 234<598 617 598 617> 140 19<0 454 475 598 617 700> 140 56 454 55 490 19<0 346>
LayerCount: 2
Fore
SplineSet
159 475 m 1,0,1
 227.458333333 510.333333333 227.458333333 510.333333333 305.284722222 510.333333333 c 128,-1,2
 383.111111111 510.333333333 383.111111111 510.333333333 424 489 c 1,3,4
 509 450 509 450 509 346 c 2,5,-1
 509 0 l 1,6,-1
 490 0 l 1,7,-1
 490 347 l 2,8,9
 490 408 490 408 454.5 444.5 c 128,-1,10
 419 481 419 481 367 488 c 0,11,12
 344.25 491.0625 344.25 491.0625 320.734375 491.0625 c 0,13,14
 229.902173913 491.0625 229.902173913 491.0625 159 454 c 1,15,-1
 159 0 l 1,16,-1
 140 0 l 1,17,-1
 140 598 l 1,18,-1
 78 598 l 1,19,-1
 78 617 l 1,20,-1
 140 617 l 1,21,-1
 140 700 l 1,22,-1
 159 700 l 1,23,-1
 159 617 l 1,24,-1
 312 617 l 1,25,-1
 312 598 l 1,26,-1
 159 598 l 1,27,-1
 159 475 l 1,0,1
EndSplineSet
EndChar

StartChar: hcircumflex
Encoding: 293 293 226
Width: 579
Flags: HMW
HStem: 0 21G<150 169 150 150 500 519 500 500> 454 21<169 169> 460 49 694 20G 730 142
VStem: 7 251 150 19<0 454 475 700> 500 19<0 346>
LayerCount: 2
Fore
SplineSet
169 475 m 1,0,1
 237.458333333 510.333333333 237.458333333 510.333333333 315.284722222 510.333333333 c 128,-1,2
 393.111111111 510.333333333 393.111111111 510.333333333 434 489 c 1,3,4
 519 450 519 450 519 346 c 2,5,-1
 519 0 l 1,6,-1
 500 0 l 1,7,-1
 500 347 l 2,8,9
 500 408 500 408 464.5 444.5 c 128,-1,10
 429 481 429 481 377 488 c 0,11,12
 354.25 491.0625 354.25 491.0625 330.734375 491.0625 c 0,13,14
 239.902173913 491.0625 239.902173913 491.0625 169 454 c 1,15,-1
 169 0 l 1,16,-1
 150 0 l 1,17,-1
 150 700 l 1,18,-1
 169 700 l 1,19,-1
 169 475 l 1,0,1
308 772 m 1,20,-1
 291 756 l 1,21,-1
 165 883 l 1,22,-1
 34 756 l 1,23,-1
 18 772 l 1,24,-1
 166 913 l 1,25,-1
 308 772 l 1,20,-1
EndSplineSet
EndChar

StartChar: scedilla
Encoding: 351 351 227
Width: 431
Flags: HMW
HStem: -210 17<192.5 229 192.5 229.5> -98 50 454 75
VStem: 36 19<127 127> 54 19 224 102 322 9 377 19<90 200.5>
LayerCount: 2
Fore
SplineSet
185 -56 m 1,0,1
 204.488372093 -46.2558139535 204.488372093 -46.2558139535 236.674418605 -46.2558139535 c 128,-1,2
 268.860465116 -46.2558139535 268.860465116 -46.2558139535 297.430232558 -62.1279069767 c 128,-1,3
 326 -78 326 -78 326 -123.5 c 128,-1,4
 326 -169 326 -169 289 -189.5 c 128,-1,5
 252 -210 252 -210 207 -210 c 128,-1,6
 162 -210 162 -210 110 -191 c 1,7,-1
 120 -170 l 1,8,9
 156 -193 156 -193 201 -193 c 128,-1,10
 246 -193 246 -193 276.513513514 -174.691891892 c 128,-1,11
 307.027027027 -156.383783784 307.027027027 -156.383783784 307.027027027 -120.002702703 c 128,-1,12
 307.027027027 -83.6216216216 307.027027027 -83.6216216216 272 -70 c 0,13,14
 255.741935484 -63.6774193548 255.741935484 -63.6774193548 236.161290323 -63.6774193548 c 128,-1,15
 216.580645161 -63.6774193548 216.580645161 -63.6774193548 193 -73 c 2,16,-1
 152 -88 l 1,17,-1
 146 -78 l 1,18,-1
 196 -14 l 1,19,20
 122 -8 122 -8 80 32 c 128,-1,21
 38 72 38 72 36 127 c 1,22,-1
 55 127 l 1,23,24
 59 76 59 76 101 40 c 128,-1,25
 143 4 143 4 217 4 c 128,-1,26
 291 4 291 4 334 38 c 128,-1,27
 377 72 377 72 377 119 c 128,-1,28
 377 166 377 166 345.5 194 c 128,-1,29
 314 222 314 222 268.5 236.5 c 128,-1,30
 223 251 223 251 176.5 265 c 0,31,32
 62.8912450772 299.204786428 62.8912450772 299.204786428 54 365 c 0,33,34
 52.693877551 373.979591837 52.693877551 373.979591837 52.693877551 382.732611412 c 0,35,36
 52.693877551 427.591836735 52.693877551 427.591836735 90.3469387755 470.295918367 c 128,-1,37
 128 513 128 513 219 513 c 0,38,39
 250 513 250 513 278 505.5 c 128,-1,40
 306 498 306 498 318.5 490.5 c 2,41,-1
 331 483 l 1,42,-1
 322 466 l 1,43,44
 274.269850746 493.119402985 274.269850746 493.119402985 215.261791045 493.119402985 c 128,-1,45
 156.253731343 493.119402985 156.253731343 493.119402985 114.280711825 464.377009185 c 128,-1,46
 72.3076923077 435.634615385 72.3076923077 435.634615385 72.3076923077 384.684171598 c 0,47,48
 72.3076923077 340.301003344 72.3076923077 340.301003344 108.653846154 317.650501672 c 128,-1,49
 145 295 145 295 192 281.5 c 128,-1,50
 239 268 239 268 285.5 252 c 128,-1,51
 332 236 332 236 364 204.5 c 128,-1,52
 396 173 396 173 396 119.5 c 128,-1,53
 396 66 396 66 351.5 25.5 c 128,-1,54
 307 -15 307 -15 221 -15 c 2,55,-1
 216 -15 l 1,56,-1
 185 -56 l 1,0,1
EndSplineSet
EndChar

StartChar: gbreve
Encoding: 287 287 228
Width: 494
Flags: HMW
HStem: -210 18<342 348> -12 503<241 299> 6 504<214 298.5> 532 20<251.5 311 251.5 313> 661 20G
VStem: 78 358<176 325 325 384.5> 169 226<645 650 614 650> 436 19<-63 75 75 75 160 397 397 397 437 501>
LayerCount: 2
Fore
SplineSet
436 160 m 2,0,-1
 436 397 l 1,1,2
 399 491 399 491 271 491 c 0,3,4
 189.833333333 491 189.833333333 491 140.5 443 c 0,5,6
 122 425 122 425 109.5 393 c 128,-1,7
 97 361 97 361 97 320 c 2,8,-1
 97 167 l 2,9,10
 97 95 97 95 139.5 50.5 c 128,-1,11
 182 6 182 6 264 6 c 0,12,13
 355.178082192 6 355.178082192 6 406.5 69.5 c 0,14,15
 436 106 436 106 436 160 c 2,0,-1
348 -210 m 1,16,-1
 342 -192 l 1,17,18
 365 -183 365 -183 376.5 -177 c 128,-1,19
 388 -171 388 -171 404.5 -157 c 0,20,21
 436 -130.272727273 436 -130.272727273 436 -63 c 2,22,-1
 436 75 l 1,23,24
 378 -12 378 -12 264 -12 c 0,25,26
 176 -12 176 -12 127 36 c 128,-1,27
 78 84 78 84 78 176 c 2,28,-1
 78 325 l 2,29,30
 78 413 78 413 131 461.5 c 128,-1,31
 184 510 184 510 271 510 c 0,32,33
 384 510 384 510 436 437 c 1,34,-1
 436 501 l 1,35,-1
 455 501 l 1,36,-1
 455 -64 l 2,37,38
 455 -124 455 -124 430 -158 c 128,-1,39
 405 -192 405 -192 348 -210 c 1,16,-1
395 650 m 1,40,-1
 395 645 l 2,41,42
 395 598 395 598 361.5 565 c 128,-1,43
 328 532 328 532 282 532 c 128,-1,44
 236 532 236 532 202.5 565 c 128,-1,45
 169 598 169 598 169 645 c 2,46,-1
 169 650 l 1,47,-1
 190 650 l 1,48,-1
 190 645 l 2,49,50
 190 612 190 612 215 582 c 128,-1,51
 240 552 240 552 281 552 c 128,-1,52
 322 552 322 552 348 582.5 c 128,-1,53
 374 613 374 613 374 645 c 2,54,-1
 374 650 l 1,55,-1
 395 650 l 1,40,-1
EndSplineSet
EndChar

StartChar: jcircumflex
Encoding: 309 309 229
Width: 407
Flags: HMW
HStem: -209 43 457 52 538 142 654 67
VStem: -13 21 194 56
LayerCount: 2
Fore
SplineSet
212 -82 m 2,0,-1
 212 482 l 1,1,-1
 137 482 l 1,2,-1
 126 501 l 1,3,-1
 231 501 l 1,4,-1
 231 -83 l 2,5,6
 231 -193 231 -193 126 -209 c 1,7,-1
 123 -191 l 1,8,9
 134.384615385 -191 134.384615385 -191 151.692307692 -183.5 c 128,-1,10
 169 -176 169 -176 181 -165.5 c 128,-1,11
 193 -155 193 -155 202.5 -133 c 128,-1,12
 212 -111 212 -111 212 -82 c 2,0,-1
367 580 m 1,13,-1
 350 564 l 1,14,-1
 224 691 l 1,15,-1
 93 564 l 1,16,-1
 77 580 l 1,17,-1
 225 721 l 1,18,-1
 367 580 l 1,13,-1
EndSplineSet
EndChar

StartChar: zdotaccent
Encoding: 380 380 230
Width: 484
Flags: HMW
HStem: 0 75 442 75
VStem: 87 358 220 66
LayerCount: 2
Fore
SplineSet
260.5 575 m 0,0,1
 247 575 247 575 247 588.5 c 0,2,3
 247 602 247 602 260.5 602 c 0,4,5
 274 602 274 602 274 588.5 c 0,6,7
 274 575 274 575 260.5 575 c 0,0,1
445 0 m 1,8,-1
 78 0 l 1,9,-1
 78 19 l 1,10,-1
 401 482 l 1,11,-1
 87 482 l 1,12,-1
 87 501 l 1,13,-1
 424 501 l 1,14,-1
 424 482 l 1,15,-1
 101 19 l 1,16,-1
 445 19 l 1,17,-1
 445 0 l 1,8,-1
EndSplineSet
EndChar

StartChar: Gdotaccent
Encoding: 288 288 231
Width: 566
Flags: HMW
HStem: -17 80 678 104 694 20G
VStem: 74 19 252 66 476 19
LayerCount: 2
Fore
SplineSet
272.5 769 m 128,-1,1
 259 769 259 769 259 782.5 c 128,-1,2
 259 796 259 796 272.5 796 c 128,-1,3
 286 796 286 796 286 782.5 c 128,-1,0
 286 769 286 769 272.5 769 c 128,-1,1
394 659 m 1,4,5
 319.633333333 691.333333333 319.633333333 691.333333333 261.777777778 691.333333333 c 0,6,7
 180.008547009 691.333333333 180.008547009 691.333333333 133 645.5 c 0,8,9
 113 626 113 626 98.5 587.5 c 128,-1,10
 84 549 84 549 84 497 c 2,11,-1
 84 187 l 2,12,13
 84 109 84 109 136 59 c 128,-1,14
 188 9 188 9 280.5 9 c 128,-1,15
 373 9 373 9 415 59 c 128,-1,16
 457 109 457 109 457 182 c 2,17,-1
 457 281 l 1,18,-1
 346 281 l 1,19,-1
 338 300 l 1,20,-1
 476 300 l 1,21,-1
 476 0 l 1,22,-1
 457 0 l 1,23,-1
 457 88 l 1,24,25
 411 -10 411 -10 276 -10 c 0,26,27
 188 -10 188 -10 126.5 40 c 128,-1,28
 65 90 65 90 65 189 c 2,29,-1
 65 503 l 2,30,31
 65 631 65 631 152 684 c 1,32,33
 197.161290323 709.290322581 197.161290323 709.290322581 258.638917794 709.290322581 c 0,34,35
 335.529032258 709.290322581 335.529032258 709.290322581 401 676 c 1,36,-1
 394 659 l 1,4,5
EndSplineSet
EndChar

StartChar: Gcircumflex
Encoding: 284 284 232
Width: 537
Flags: HMW
HStem: 0 21G<457 476 457 457> 68 20G<457 457> 659 51 730 142 825 47
VStem: 65 19<189 497> 124 251 457 19<0 88 88 88 182 281 281 281>
LayerCount: 2
Fore
SplineSet
425 772 m 1,0,-1
 408 756 l 1,1,-1
 282 883 l 1,2,-1
 151 756 l 1,3,-1
 135 772 l 1,4,-1
 283 913 l 1,5,-1
 425 772 l 1,0,-1
394 659 m 1,6,7
 319.633333333 691.333333333 319.633333333 691.333333333 261.777777778 691.333333333 c 0,8,9
 180.008547009 691.333333333 180.008547009 691.333333333 133 645.5 c 0,10,11
 113 626 113 626 98.5 587.5 c 128,-1,12
 84 549 84 549 84 497 c 2,13,-1
 84 187 l 2,14,15
 84 109 84 109 136 59 c 128,-1,16
 188 9 188 9 280.5 9 c 128,-1,17
 373 9 373 9 415 59 c 128,-1,18
 457 109 457 109 457 182 c 2,19,-1
 457 281 l 1,20,-1
 346 281 l 1,21,-1
 338 300 l 1,22,-1
 476 300 l 1,23,-1
 476 0 l 1,24,-1
 457 0 l 1,25,-1
 457 88 l 1,26,27
 411 -10 411 -10 276 -10 c 0,28,29
 188 -10 188 -10 126.5 40 c 128,-1,30
 65 90 65 90 65 189 c 2,31,-1
 65 503 l 2,32,33
 65 631 65 631 152 684 c 1,34,35
 197.161290323 709.290322581 197.161290323 709.290322581 258.638917794 709.290322581 c 0,36,37
 335.529032258 709.290322581 335.529032258 709.290322581 401 676 c 1,38,-1
 394 659 l 1,6,7
EndSplineSet
EndChar

StartChar: gdotaccent
Encoding: 289 289 233
Width: 494
Flags: HMW
HStem: -210 18<342 348> -12 503<241 299> 6 504<214 298.5> 486 104
VStem: 78 358<176 325 325 384.5> 239 66 436 19<-63 75 75 75 160 397 397 397 437 501>
LayerCount: 2
Fore
SplineSet
436 160 m 2,0,-1
 436 397 l 1,1,2
 399 491 399 491 271 491 c 0,3,4
 189.833333333 491 189.833333333 491 140.5 443 c 0,5,6
 122 425 122 425 109.5 393 c 128,-1,7
 97 361 97 361 97 320 c 2,8,-1
 97 167 l 2,9,10
 97 95 97 95 139.5 50.5 c 128,-1,11
 182 6 182 6 264 6 c 0,12,13
 355.178082192 6 355.178082192 6 406.5 69.5 c 0,14,15
 436 106 436 106 436 160 c 2,0,-1
348 -210 m 1,16,-1
 342 -192 l 1,17,18
 365 -183 365 -183 376.5 -177 c 128,-1,19
 388 -171 388 -171 404.5 -157 c 0,20,21
 436 -130.272727273 436 -130.272727273 436 -63 c 2,22,-1
 436 75 l 1,23,24
 378 -12 378 -12 264 -12 c 0,25,26
 176 -12 176 -12 127 36 c 128,-1,27
 78 84 78 84 78 176 c 2,28,-1
 78 325 l 2,29,30
 78 413 78 413 131 461.5 c 128,-1,31
 184 510 184 510 271 510 c 0,32,33
 384 510 384 510 436 437 c 1,34,-1
 436 501 l 1,35,-1
 455 501 l 1,36,-1
 455 -64 l 2,37,38
 455 -124 455 -124 430 -158 c 128,-1,39
 405 -192 405 -192 348 -210 c 1,16,-1
279.5 577 m 128,-1,41
 266 577 266 577 266 590.5 c 128,-1,42
 266 604 266 604 279.5 604 c 128,-1,43
 293 604 293 604 293 590.5 c 128,-1,40
 293 577 293 577 279.5 577 c 128,-1,41
EndSplineSet
EndChar

StartChar: gcircumflex
Encoding: 285 285 234
Width: 495
Flags: HMW
HStem: -210 18<342 348> -12 503<241 299> 6 504<214 298.5> 538 142
VStem: 78 358<176 325 325 384.5> 116 251 436 19<-63 75 75 75 160 397 397 397 437 501>
LayerCount: 2
Fore
SplineSet
436 160 m 2,0,-1
 436 397 l 1,1,2
 399 491 399 491 271 491 c 0,3,4
 189.833333333 491 189.833333333 491 140.5 443 c 0,5,6
 122 425 122 425 109.5 393 c 128,-1,7
 97 361 97 361 97 320 c 2,8,-1
 97 167 l 2,9,10
 97 95 97 95 139.5 50.5 c 128,-1,11
 182 6 182 6 264 6 c 0,12,13
 355.178082192 6 355.178082192 6 406.5 69.5 c 0,14,15
 436 106 436 106 436 160 c 2,0,-1
348 -210 m 1,16,-1
 342 -192 l 1,17,18
 365 -183 365 -183 376.5 -177 c 128,-1,19
 388 -171 388 -171 404.5 -157 c 0,20,21
 436 -130.272727273 436 -130.272727273 436 -63 c 2,22,-1
 436 75 l 1,23,24
 378 -12 378 -12 264 -12 c 0,25,26
 176 -12 176 -12 127 36 c 128,-1,27
 78 84 78 84 78 176 c 2,28,-1
 78 325 l 2,29,30
 78 413 78 413 131 461.5 c 128,-1,31
 184 510 184 510 271 510 c 0,32,33
 384 510 384 510 436 437 c 1,34,-1
 436 501 l 1,35,-1
 455 501 l 1,36,-1
 455 -64 l 2,37,38
 455 -124 455 -124 430 -158 c 128,-1,39
 405 -192 405 -192 348 -210 c 1,16,-1
417 580 m 1,40,-1
 400 564 l 1,41,-1
 274 691 l 1,42,-1
 143 564 l 1,43,-1
 127 580 l 1,44,-1
 275 721 l 1,45,-1
 417 580 l 1,40,-1
EndSplineSet
EndChar

StartChar: Ubreve
Encoding: 364 364 235
Width: 566
Flags: HMW
HStem: -17 80 694 20G 724 20<253.5 313 253.5 315> 853 20G
VStem: 74 19<186 701> 171 226<837 842 806 842> 476 19<184 186 186 701>
LayerCount: 2
Fore
SplineSet
397 842 m 1,0,-1
 397 837 l 2,1,2
 397 790 397 790 363.5 757 c 128,-1,3
 330 724 330 724 284 724 c 128,-1,4
 238 724 238 724 204.5 757 c 128,-1,5
 171 790 171 790 171 837 c 2,6,-1
 171 842 l 1,7,-1
 192 842 l 1,8,-1
 192 837 l 2,9,10
 192 804 192 804 217 774 c 128,-1,11
 242 744 242 744 283 744 c 0,12,13
 324 744 324 744 350 774.5 c 128,-1,14
 376 805 376 805 376 837 c 2,15,-1
 376 842 l 1,16,-1
 397 842 l 1,0,-1
476 184 m 2,17,-1
 476 701 l 1,18,-1
 495 701 l 1,19,-1
 495 186 l 2,20,21
 495 133 495 133 476.5 94 c 128,-1,22
 458 55 458 55 426.5 34 c 128,-1,23
 395 13 395 13 360 3 c 128,-1,24
 325 -7 325 -7 285 -7 c 128,-1,25
 245 -7 245 -7 209.5 3 c 128,-1,26
 174 13 174 13 142.5 34 c 128,-1,27
 111 55 111 55 92.5 94 c 128,-1,28
 74 133 74 133 74 186 c 2,29,-1
 74 701 l 1,30,-1
 93 701 l 1,31,-1
 93 184 l 2,32,33
 93 136 93 136 111 101 c 128,-1,34
 129 66 129 66 159 47.5 c 128,-1,35
 189 29 189 29 221 20.5 c 128,-1,36
 253 12 253 12 287 12 c 128,-1,37
 321 12 321 12 352 20.5 c 128,-1,38
 383 29 383 29 412 47.5 c 128,-1,39
 441 66 441 66 458.5 101.5 c 128,-1,40
 476 137 476 137 476 184 c 2,17,-1
EndSplineSet
EndChar

StartChar: Scircumflex
Encoding: 348 348 236
Width: 561
Flags: HMW
HStem: -17 80 651 80 825 47
VStem: 37 22<142.5 178> 55 21<443.5 580> 135 251 418 8 491 21<129.5 292>
LayerCount: 2
Fore
SplineSet
436 772 m 1,0,-1
 419 756 l 1,1,-1
 293 883 l 1,2,-1
 162 756 l 1,3,-1
 146 772 l 1,4,-1
 294 913 l 1,5,-1
 436 772 l 1,0,-1
37 178 m 1,6,-1
 59 178 l 1,7,8
 59 116 59 116 114.5 61.5 c 128,-1,9
 170 7 170 7 270 7 c 0,10,11
 370 7 370 7 430.5 50 c 128,-1,12
 491 93 491 93 491 187 c 0,13,14
 491 236 491 236 458.5 271.5 c 128,-1,15
 426 307 426 307 378 325 c 128,-1,16
 330 343 330 343 273 363 c 128,-1,17
 216 383 216 383 168 401 c 128,-1,18
 120 419 120 419 87.5 454 c 128,-1,19
 55 489 55 489 55 538 c 0,20,21
 55 608 55 608 113 659 c 128,-1,22
 171 710 171 710 280 710 c 0,23,24
 363 710 363 710 426 680 c 1,25,-1
 418 660 l 1,26,27
 358 691 358 691 276 691 c 0,28,29
 194 691 194 691 135 650 c 128,-1,30
 76 609 76 609 76 535 c 0,31,32
 76 485 76 485 121 451 c 128,-1,33
 166 417 166 417 230 397 c 128,-1,34
 294 377 294 377 358 354.5 c 128,-1,35
 422 332 422 332 467 290.5 c 128,-1,36
 512 249 512 249 512 187 c 0,37,38
 512 96 512 96 454 42.5 c 128,-1,39
 396 -11 396 -11 280 -11 c 0,40,41
 164 -11 164 -11 101.5 46.5 c 128,-1,42
 39 104 39 104 37 178 c 1,6,-1
EndSplineSet
EndChar

StartChar: ubreve
Encoding: 365 365 237
Width: 490
Flags: HMW
HStem: -12 75 497 20G 535 20<239.5 299 239.5 301> 664 20G
VStem: 78 19<176 501> 157 226<648 653 617 653> 432 19<0 78 78 78 160 501>
LayerCount: 2
Fore
SplineSet
451 0 m 1,0,-1
 432 0 l 1,1,-1
 432 78 l 1,2,3
 382 -11 382 -11 266 -11 c 0,4,5
 78 -11 78 -11 78 176 c 2,6,-1
 78 501 l 1,7,-1
 97 501 l 1,8,-1
 97 176 l 2,9,10
 97 95 97 95 136 52 c 128,-1,11
 175 9 175 9 256.5 9 c 0,12,13
 338 9 338 9 385 50 c 128,-1,14
 432 91 432 91 432 160 c 2,15,-1
 432 501 l 1,16,-1
 451 501 l 1,17,-1
 451 0 l 1,0,-1
383 653 m 1,18,-1
 383 648 l 2,19,20
 383 602 383 602 349.5 568.5 c 128,-1,21
 316 535 316 535 270 535 c 128,-1,22
 224 535 224 535 190.5 568.5 c 128,-1,23
 157 602 157 602 157 648 c 2,24,-1
 157 653 l 1,25,-1
 178 653 l 1,26,-1
 178 648 l 2,27,28
 178 615 178 615 203 585 c 128,-1,29
 228 555 228 555 269 555 c 0,30,31
 310 555 310 555 336 585.5 c 128,-1,32
 362 616 362 616 362 648 c 2,33,-1
 362 653 l 1,34,-1
 383 653 l 1,18,-1
EndSplineSet
EndChar

StartChar: scircumflex
Encoding: 349 349 238
Width: 477
Flags: HMW
HStem: 454 75 538 142
VStem: 78 19<127 127> 96 19 105 251 364 9 419 19<90 200.5>
LayerCount: 2
Fore
SplineSet
364 466 m 1,0,1
 316.269850746 493.119402985 316.269850746 493.119402985 257.261791045 493.119402985 c 128,-1,2
 198.253731343 493.119402985 198.253731343 493.119402985 156.280711825 464.377009185 c 128,-1,3
 114.307692308 435.634615385 114.307692308 435.634615385 114.307692308 384.684171598 c 0,4,5
 114.307692308 340.301003344 114.307692308 340.301003344 150.653846154 317.650501672 c 128,-1,6
 187 295 187 295 234 281.5 c 128,-1,7
 281 268 281 268 327.5 252 c 128,-1,8
 374 236 374 236 406 204.5 c 128,-1,9
 438 173 438 173 438 119.5 c 128,-1,10
 438 66 438 66 393.5 25.5 c 128,-1,11
 349 -15 349 -15 263.5 -15 c 128,-1,12
 178 -15 178 -15 129 26 c 128,-1,13
 80 67 80 67 78 127 c 1,14,-1
 97 127 l 1,15,16
 101 76 101 76 143 40 c 128,-1,17
 185 4 185 4 259 4 c 128,-1,18
 333 4 333 4 376 38 c 128,-1,19
 419 72 419 72 419 119 c 128,-1,20
 419 166 419 166 387.5 194 c 128,-1,21
 356 222 356 222 310.5 236.5 c 128,-1,22
 265 251 265 251 218.5 265 c 0,23,24
 104.891245077 299.204786428 104.891245077 299.204786428 96 365 c 0,25,26
 94.693877551 373.979591837 94.693877551 373.979591837 94.693877551 382.732611412 c 0,27,28
 94.693877551 427.591836735 94.693877551 427.591836735 132.346938776 470.295918367 c 128,-1,29
 170 513 170 513 261 513 c 0,30,31
 292 513 292 513 320 505.5 c 128,-1,32
 348 498 348 498 360.5 490.5 c 2,33,-1
 373 483 l 1,34,-1
 364 466 l 1,0,1
406 580 m 1,35,-1
 389 564 l 1,36,-1
 263 691 l 1,37,-1
 132 564 l 1,38,-1
 116 580 l 1,39,-1
 264 721 l 1,40,-1
 406 580 l 1,35,-1
EndSplineSet
EndChar

StartChar: Rcommaaccent
Encoding: 342 342 239
Width: 564
Flags: HMW
HStem: -100 111 300 400<98 316 316 317 317 382.5>
VStem: 78 20<0 281 0 300 300 680> 277 30<-89 -81> 492 20<457 546>
LayerCount: 2
Fore
SplineSet
246 -184 m 1,0,-1
 230 -173 l 1,1,2
 255 -159 255 -159 270.5 -141 c 128,-1,3
 286 -123 286 -123 289 -112 c 2,4,-1
 292 -101 l 1,5,-1
 290 -101 l 1,6,7
 277 -98 277 -98 277 -84.5 c 128,-1,8
 277 -71 277 -71 292 -71 c 128,-1,9
 307 -71 307 -71 307 -86 c 0,10,11
 307 -134 307 -134 246 -184 c 1,0,-1
98 300 m 1,12,-1
 316 300 l 2,13,14
 407 300 407 300 449.5 355 c 128,-1,15
 492 410 492 410 492 494 c 128,-1,16
 492 578 492 578 447.5 629 c 128,-1,17
 403 680 403 680 316 680 c 2,18,-1
 98 680 l 1,19,-1
 98 300 l 1,12,-1
513 0 m 1,20,-1
 492 0 l 1,21,-1
 357 283 l 1,22,23
 339 281 339 281 332 281 c 2,24,-1
 98 281 l 1,25,-1
 98 0 l 1,26,-1
 78 0 l 1,27,-1
 78 700 l 1,28,-1
 317 700 l 2,29,30
 416 700 416 700 464 642 c 128,-1,31
 512 584 512 584 512 486 c 0,32,33
 512 433.807692308 512 433.807692308 488 377.5 c 0,34,35
 475 347 475 347 446 323 c 128,-1,36
 417 299 417 299 376 287 c 1,37,-1
 513 0 l 1,20,-1
EndSplineSet
EndChar

StartChar: kgreenlandic
Encoding: 312 312 240
Width: 486
Flags: HMW
HStem: 497 20G 694 20G
VStem: 83 85
LayerCount: 2
Fore
SplineSet
447 19 m 1,0,-1
 447 -1 l 1,1,2
 391 -1 391 -1 320 98 c 2,3,-1
 191 278 l 1,4,-1
 97 179 l 1,5,-1
 97 0 l 1,6,-1
 78 0 l 1,7,-1
 78 512 l 1,8,-1
 97 507 l 1,9,-1
 97 205 l 1,10,-1
 369 501 l 1,11,-1
 396 501 l 1,12,-1
 204 292 l 1,13,-1
 331 113 l 1,14,15
 401 19 401 19 447 19 c 1,0,-1
EndSplineSet
EndChar

StartChar: Aogonek
Encoding: 260 260 241
Width: 690
Flags: HMW
HStem: -213 50 0 21G<78 97 78 78 558 562 562 562 582 582 582 583> 280 20G<203 457 457 457>
VStem: 97 465<0 0> 462 68
LayerCount: 2
Fore
SplineSet
457 300 m 1,0,-1
 330 660 l 1,1,-1
 203 300 l 1,2,-1
 457 300 l 1,0,-1
635 -147 m 1,3,-1
 651 -163 l 1,4,5
 619 -213 619 -213 555 -213 c 0,6,7
 529.75 -213 529.75 -213 506.375 -202 c 0,8,9
 462 -181.117647059 462 -181.117647059 462 -128 c 0,10,11
 462 -65 462 -65 558 0 c 1,12,-1
 562 0 l 1,13,-1
 464 281 l 1,14,-1
 196 281 l 1,15,-1
 97 0 l 1,16,-1
 78 0 l 1,17,-1
 323 700 l 1,18,-1
 337 700 l 1,19,-1
 583 0 l 1,20,-1
 582 0 l 1,21,22
 482 -68 482 -68 482 -130 c 0,23,24
 482 -157 482 -157 503.5 -175 c 128,-1,25
 525 -193 525 -193 555 -193 c 0,26,27
 606 -193 606 -193 635 -147 c 1,3,-1
EndSplineSet
EndChar

